{"glyphs":{"0":{"ha":1028,"x_min":32,"x_max":996,"o":"m 121 489 q 146 658 121 580 q 221 793 172 736 q 346 882 271 851 q 517 913 420 913 q 680 883 607 913 q 805 797 753 853 q 883 663 856 741 q 911 489 911 584 q 865 264 911 360 q 730 116 820 169 q 517 62 641 62 q 302 116 391 62 q 166 266 212 170 q 121 489 121 363 m 344 488 q 347 347 344 401 q 366 248 351 293 q 419 175 382 203 q 518 147 456 147 q 633 193 595 147 q 680 307 671 239 q 688 488 688 374 q 680 676 688 609 q 634 787 671 743 q 518 830 596 830 q 397 786 436 830 q 351 676 359 743 q 344 488 344 609 m 32 489 q 63 691 32 599 q 156 853 95 784 q 308 959 218 922 q 515 996 398 996 q 715 960 626 996 q 867 858 804 925 q 963 697 930 790 q 996 489 996 604 q 941 222 996 336 q 777 45 886 108 q 515 -17 668 -17 q 254 46 363 -17 q 88 225 144 110 q 32 489 32 340 m 422 491 q 424 382 422 425 q 434 305 426 340 q 463 248 443 270 q 515 226 483 226 q 580 262 559 226 q 604 350 600 298 q 608 492 608 403 q 604 639 608 586 q 580 726 600 692 q 515 759 560 759 q 451 725 472 759 q 427 639 431 692 q 422 491 422 586 m 78 492 q 129 249 78 355 q 279 85 180 143 q 517 26 379 26 q 755 84 656 26 q 904 247 854 142 q 954 492 954 351 q 924 682 954 596 q 838 829 895 767 q 699 923 781 890 q 517 956 618 956 q 328 922 410 956 q 191 825 246 888 q 106 677 135 762 q 78 492 78 592 m 377 489 q 383 658 377 598 q 420 758 389 718 q 515 798 450 798 q 608 758 578 798 q 644 659 637 719 q 650 489 650 598 q 644 326 650 386 q 607 224 637 265 q 515 182 577 182 q 437 208 466 182 q 395 273 408 233 q 380 362 382 313 q 377 489 377 411 z "},"1":{"ha":722,"x_min":-18,"x_max":646,"o":"m 81 478 l -18 733 l 347 979 l 646 979 l 646 0 l 296 0 l 296 636 l 81 478 m 363 901 l 567 901 l 567 87 l 374 87 l 374 773 l 113 585 l 68 703 l 363 901 m 355 939 l 27 717 l 99 534 l 336 708 l 336 41 l 605 41 l 605 939 l 355 939 z "},"2":{"ha":822,"x_min":28,"x_max":794,"o":"m 397 236 l 794 236 l 794 0 l 28 0 l 28 275 q 311 435 188 355 q 409 519 373 477 q 444 615 444 560 q 392 719 444 686 q 264 751 340 751 q 47 710 144 751 l 47 965 q 201 987 125 979 q 354 996 277 996 q 667 922 541 996 q 794 675 794 849 q 759 529 794 595 q 667 411 723 463 q 551 323 610 360 q 397 239 491 287 l 397 236 m 123 905 q 355 922 279 922 q 606 861 513 916 q 719 675 699 807 q 688 553 716 602 q 616 462 659 503 q 524 384 574 420 q 225 197 475 347 l 225 165 l 718 165 l 718 73 l 104 73 l 104 236 q 349 385 221 297 q 467 478 419 430 q 517 616 514 526 q 449 774 515 724 q 263 826 382 825 q 123 807 145 822 l 123 905 m 88 932 l 88 763 q 264 792 144 789 q 418 748 361 788 q 485 615 476 708 q 438 498 477 543 q 332 408 399 453 q 68 254 205 324 l 68 41 l 753 41 l 753 195 l 260 195 q 539 353 484 315 q 642 439 594 392 q 721 542 689 486 q 753 675 753 597 q 632 890 741 827 q 354 955 524 952 q 88 932 277 955 z "},"3":{"ha":822,"x_min":29,"x_max":793,"o":"m 151 385 l 151 599 q 229 596 204 596 q 315 600 277 596 q 384 623 353 604 q 415 679 415 641 q 374 755 415 732 q 273 778 332 778 q 152 766 214 778 q 39 739 89 755 l 39 958 q 181 987 103 979 q 358 996 259 996 q 507 981 434 996 q 642 933 579 966 q 742 848 704 901 q 779 721 779 794 q 593 500 779 554 l 593 497 q 793 271 793 445 q 731 106 793 170 q 572 12 669 41 q 366 -17 475 -17 q 188 -6 282 -17 q 29 24 94 5 l 29 252 q 144 223 77 235 q 273 211 212 211 q 388 230 347 211 q 429 298 429 248 q 381 374 429 354 q 271 395 334 395 q 151 385 228 395 m 113 901 q 200 920 135 911 q 359 926 265 929 q 484 912 416 927 q 599 876 551 898 q 675 814 646 853 q 705 720 703 776 q 532 512 702 587 l 532 488 q 718 271 707 401 q 670 155 712 194 q 555 89 629 115 q 366 55 481 63 q 206 65 286 54 q 100 82 125 77 l 100 168 q 279 145 218 138 q 434 178 368 144 q 498 298 500 212 q 428 426 494 385 q 271 466 362 467 q 218 463 229 464 l 218 528 q 264 527 239 526 q 334 533 288 528 q 433 572 380 538 q 490 679 486 606 q 437 803 496 755 q 271 851 379 851 q 177 843 220 849 q 113 830 135 836 l 113 901 m 80 922 l 80 792 q 163 811 106 802 q 272 819 220 820 q 408 782 358 819 q 456 679 458 745 q 411 593 454 621 q 325 562 368 566 q 229 555 281 557 q 192 555 206 553 l 192 431 q 271 435 229 437 q 408 402 353 435 q 470 298 464 370 q 412 201 467 228 q 277 169 358 174 q 146 185 214 170 q 70 203 79 201 l 70 58 q 194 34 103 46 q 366 24 286 22 q 563 54 478 26 q 696 132 647 81 q 752 271 745 183 q 552 492 749 422 l 552 505 q 739 720 735 572 q 703 830 736 784 q 616 901 670 876 q 497 941 562 926 q 358 955 433 955 q 188 947 262 958 q 80 922 114 937 z "},"4":{"ha":978,"x_min":22,"x_max":956,"o":"m 195 361 l 589 361 l 589 806 l 195 361 m 713 323 l 881 323 l 881 258 l 713 258 l 713 75 l 625 75 l 625 257 l 102 257 l 102 357 l 578 903 l 713 903 l 713 323 m 785 396 l 956 396 l 956 187 l 785 187 l 785 0 l 549 0 l 549 187 l 22 187 l 22 396 l 549 979 l 785 979 l 785 396 m 347 423 l 519 423 l 519 616 l 347 423 m 277 393 l 555 716 l 555 393 l 277 393 m 746 353 l 746 939 l 567 939 l 62 372 l 62 228 l 591 228 l 591 41 l 746 41 l 746 228 l 914 228 l 914 353 l 746 353 z "},"5":{"ha":822,"x_min":52,"x_max":793,"o":"m 749 979 l 749 751 l 383 751 l 383 600 q 492 604 420 604 q 642 568 573 604 q 752 463 711 531 q 793 304 793 394 q 730 114 793 185 q 568 13 667 42 q 350 -17 469 -17 q 254 -12 308 -17 q 151 2 201 -7 q 52 25 101 12 l 52 249 q 256 220 176 220 q 429 330 429 220 q 373 424 429 398 q 237 450 316 450 q 64 428 158 450 l 64 979 l 749 979 m 127 90 l 127 157 q 258 150 174 149 q 501 331 494 152 q 435 477 499 435 q 237 520 370 519 q 138 511 168 519 l 138 904 l 673 904 l 673 822 l 306 822 l 306 520 q 492 534 419 538 q 604 503 555 535 q 681 424 652 470 q 715 305 709 378 q 669 160 711 205 q 540 89 627 116 q 350 58 453 62 q 260 60 311 57 q 127 90 210 64 m 92 62 q 156 44 106 56 q 258 28 206 33 q 350 23 311 24 q 551 55 460 26 q 696 138 643 84 q 751 305 749 191 q 716 442 751 385 q 622 532 681 499 q 492 568 563 566 q 343 559 420 569 l 343 598 l 343 792 l 708 792 l 708 939 l 104 939 l 104 475 q 237 491 163 488 q 407 452 349 488 q 469 331 465 416 q 256 179 463 186 q 92 195 172 176 l 92 62 z "},"6":{"ha":950,"x_min":22,"x_max":928,"o":"m 764 907 l 764 838 q 675 852 709 850 q 598 852 640 853 q 380 783 477 849 q 300 505 282 716 l 358 505 q 476 553 434 545 q 590 566 518 560 q 719 538 669 564 q 810 459 769 513 q 849 327 852 406 q 801 183 845 236 q 675 95 757 130 q 498 56 593 60 q 302 109 391 58 q 159 249 213 159 q 96 468 104 339 q 159 720 102 618 q 313 870 216 822 q 544 922 411 918 q 764 907 715 922 m 656 330 q 611 455 656 408 q 486 501 565 501 q 364 454 406 501 q 322 319 322 406 q 366 199 322 247 q 486 151 409 151 q 610 202 563 151 q 656 330 656 253 m 839 970 l 839 743 q 790 755 822 747 q 733 768 758 764 q 674 775 709 772 q 597 778 638 778 q 437 732 503 778 q 372 582 372 686 q 461 626 407 610 q 590 642 515 642 q 756 605 678 642 q 881 496 833 568 q 928 328 928 425 q 867 135 928 213 q 708 20 806 58 q 498 -17 610 -17 q 250 45 359 -17 q 82 217 141 106 q 22 468 22 328 q 89 755 22 636 q 273 935 155 875 q 543 996 391 996 q 839 970 715 996 m 595 329 q 566 416 595 384 q 486 448 536 448 q 407 415 434 448 q 380 322 380 382 q 408 238 380 271 q 486 205 436 205 q 565 240 535 205 q 595 329 595 275 m 630 329 q 591 219 630 262 q 488 175 552 175 q 386 216 422 175 q 349 320 349 258 q 385 435 349 394 q 488 477 420 477 q 592 436 554 477 q 630 329 630 396 m 798 937 q 543 955 713 958 q 296 901 401 954 q 128 738 190 848 q 63 468 66 627 q 123 235 68 334 q 278 83 178 137 q 498 24 378 29 q 688 63 600 27 q 830 161 777 98 q 888 327 883 224 q 842 476 884 415 q 737 570 799 538 q 591 600 675 602 q 471 585 517 597 q 369 543 425 573 l 332 541 q 408 757 326 700 q 598 819 490 814 q 674 818 638 821 q 733 811 709 816 q 772 802 756 806 q 798 795 789 798 l 798 937 z "},"7":{"ha":822,"x_min":17,"x_max":806,"o":"m 17 979 l 806 979 l 806 710 l 457 0 l 40 0 l 453 710 l 17 710 l 17 979 m 94 902 l 732 902 l 732 739 l 416 80 l 178 80 l 585 787 l 94 787 l 94 902 m 58 939 l 58 751 l 521 751 l 110 41 l 439 41 l 765 722 l 765 939 l 58 939 z "},"8":{"ha":950,"x_min":17,"x_max":933,"o":"m 103 262 q 269 488 118 433 l 269 510 q 170 588 198 557 q 130 638 141 618 q 115 728 119 658 q 144 808 122 776 q 217 863 165 840 q 330 901 269 886 q 473 920 392 916 q 659 895 582 914 q 779 838 736 876 q 834 727 821 800 q 804 617 827 655 q 675 513 780 579 l 675 492 q 819 374 787 407 q 854 262 850 340 q 826 189 850 228 q 751 126 802 151 q 640 84 701 102 q 473 64 579 66 q 293 93 369 66 q 165 153 217 119 q 103 262 114 187 m 637 324 q 596 457 637 406 q 473 507 555 507 q 352 456 389 507 q 315 320 315 406 q 353 182 315 236 q 473 128 390 128 q 596 183 555 128 q 637 324 637 239 m 336 703 q 372 590 336 633 q 475 545 408 547 q 573 589 537 545 q 610 700 610 633 q 573 807 610 764 q 475 850 537 850 q 373 808 410 850 q 336 703 336 766 m 17 261 q 211 498 17 452 l 211 501 q 112 550 151 522 q 53 622 73 578 q 33 728 33 666 q 71 856 33 804 q 173 938 109 907 q 313 982 237 969 q 473 996 390 996 q 688 971 590 996 q 848 886 786 946 q 909 728 909 826 q 865 585 909 637 q 734 500 821 532 l 734 501 l 734 498 q 879 417 824 476 q 933 261 933 357 q 893 130 933 184 q 787 43 852 75 q 639 -3 721 12 q 473 -17 557 -17 q 274 9 395 -18 q 85 98 153 36 q 17 261 17 159 m 575 323 q 550 407 575 375 q 473 439 525 439 q 398 407 422 439 q 375 321 375 374 q 399 235 375 269 q 473 201 422 201 q 550 235 525 201 q 575 323 575 269 m 391 705 q 413 636 391 663 q 473 609 434 610 q 531 636 509 609 q 552 703 552 663 q 531 768 552 742 q 473 795 509 795 q 413 769 435 795 q 391 705 391 743 m 602 322 q 570 210 602 254 q 471 166 537 166 q 375 209 406 166 q 345 319 345 252 q 375 428 345 387 q 471 469 405 469 q 570 429 537 469 q 602 322 602 388 m 369 705 q 397 788 369 755 q 475 822 425 822 q 550 788 523 822 q 578 703 578 753 q 550 615 578 650 q 475 581 523 581 q 397 616 425 581 q 369 705 369 650 m 57 262 q 126 129 65 174 q 286 55 187 84 q 473 24 384 26 q 637 43 567 24 q 766 88 708 62 q 859 157 825 114 q 892 262 894 199 q 846 393 890 346 q 707 496 802 439 l 707 507 q 829 602 798 557 q 868 727 860 646 q 808 860 860 814 q 671 928 757 906 q 473 955 586 951 q 323 937 391 952 q 197 895 255 922 q 111 829 140 868 q 75 728 81 789 q 94 631 76 661 q 144 572 111 602 q 241 506 176 543 l 241 495 q 57 262 73 442 z "},"9":{"ha":950,"x_min":22,"x_max":928,"o":"m 186 71 l 186 140 q 275 127 241 128 q 352 127 310 125 q 570 196 473 130 q 650 474 668 262 l 605 475 q 479 429 526 439 q 360 413 432 418 q 231 440 281 414 q 140 519 181 466 q 101 652 98 573 q 149 795 105 743 q 275 884 193 848 q 452 923 357 919 q 648 870 559 920 q 791 730 737 820 q 854 511 846 640 q 791 258 848 360 q 637 109 734 157 q 406 56 539 60 q 186 71 235 56 m 294 648 q 339 524 294 570 q 465 477 385 477 q 586 525 544 477 q 628 659 628 572 q 585 780 628 732 q 465 828 541 828 q 340 777 387 828 q 294 648 294 726 m 111 9 l 111 235 q 160 223 128 231 q 217 211 193 215 q 276 204 241 207 q 353 201 312 201 q 513 247 448 201 q 578 397 578 293 q 489 353 543 368 q 360 337 435 337 q 194 374 272 337 q 70 482 117 411 q 22 651 22 553 q 83 843 22 766 q 242 958 144 921 q 452 996 340 996 q 700 934 591 996 q 868 762 809 872 q 928 511 928 651 q 861 223 928 342 q 677 43 795 104 q 408 -17 559 -17 q 111 9 235 -17 m 355 650 q 385 563 355 595 q 464 531 414 531 q 543 564 516 531 q 570 656 570 597 q 542 741 570 707 q 464 774 514 774 q 385 739 415 774 q 355 650 355 703 m 320 650 q 359 760 320 716 q 463 804 398 804 q 564 762 528 804 q 601 659 601 721 q 566 543 601 585 q 463 502 530 502 q 358 542 396 502 q 320 650 320 583 m 152 41 q 408 24 237 20 q 654 78 549 25 q 822 241 760 131 q 887 511 884 351 q 827 743 882 645 q 672 896 772 842 q 452 955 572 949 q 262 916 351 951 q 120 817 173 880 q 62 652 67 754 q 109 502 66 564 q 213 409 151 441 q 359 379 275 376 q 479 393 433 381 q 581 439 526 406 l 618 437 q 542 221 624 279 q 352 160 460 164 q 276 160 312 158 q 217 168 241 163 q 178 177 194 172 q 152 184 161 181 l 152 41 z "},"`":{"ha":1095,"x_min":-14,"x_max":1136,"o":"m -14 688 l -14 979 l 808 979 l 1136 0 l 766 0 l 704 176 l 413 176 l 351 0 l 0 0 l 226 688 l -14 688 m 57 41 l 324 41 l 387 217 l 736 217 l 800 41 l 1080 41 l 782 939 l 27 939 l 27 728 l 286 728 l 57 41 m 480 415 l 642 415 l 567 633 l 480 415 m 117 87 l 347 770 l 71 770 l 71 895 l 746 895 l 1025 87 l 833 87 l 765 260 l 358 260 l 296 87 l 117 87 m 568 717 l 694 385 l 433 385 l 568 717 m 570 801 l 378 346 l 751 346 l 570 801 z "},"-":{"ha":514,"x_min":62,"x_max":452,"o":"m 134 328 l 134 428 l 383 428 l 383 328 l 134 328 m 62 256 l 62 500 l 452 500 l 452 256 l 62 256 m 103 296 l 411 296 l 411 459 l 103 459 l 103 296 z "},"=":{"ha":987,"x_min":0,"x_max":1028,"o":"m 0 292 l 1028 292 l 1028 251 l 0 251 l 0 292 m 1028 0 l 0 0 l 0 41 l 1028 41 l 1028 0 m 0 210 l 1028 210 l 1028 81 l 0 81 l 0 210 z "},"q":{"ha":1112,"x_min":7,"x_max":1112,"o":"m 1112 292 l 1112 0 l 529 -17 q 308 19 404 -14 q 144 116 212 52 q 41 275 76 181 q 7 489 7 368 q 43 701 7 612 q 148 854 79 789 q 315 952 217 920 q 564 989 412 985 q 837 941 719 985 q 1029 798 955 898 q 1096 499 1104 697 q 1031 342 1080 410 q 1083 292 982 275 l 1112 292 m 1009 496 q 968 395 987 426 q 930 298 949 363 q 1028 209 911 233 l 1028 87 l 568 64 q 316 113 422 64 q 157 254 211 161 q 101 483 104 347 q 135 662 104 585 q 225 793 165 740 q 372 873 285 846 q 568 901 459 901 q 821 852 715 901 q 974 713 927 804 q 1009 496 1020 623 m 298 477 q 350 270 298 357 q 557 182 402 182 l 557 244 q 808 307 791 220 q 833 477 826 393 q 775 680 826 593 q 557 768 724 768 q 298 477 298 768 m 374 476 q 411 330 374 393 q 559 267 448 267 l 559 310 q 737 355 724 294 q 753 476 750 416 q 713 623 750 560 q 559 685 677 685 q 374 476 374 685 m 1053 499 q 1016 740 1067 640 q 846 893 964 840 q 566 947 728 947 q 348 916 444 947 q 185 827 252 886 q 84 683 119 769 q 47 485 50 597 q 110 233 50 336 q 287 77 170 130 q 566 24 404 24 l 1071 41 l 1071 251 q 970 307 951 258 q 1012 388 989 357 q 1053 499 1035 419 m 338 477 q 562 723 338 723 q 749 649 705 723 q 798 477 793 574 q 778 333 793 406 q 562 280 762 260 l 562 229 q 384 302 429 229 q 338 477 338 376 z "},"w":{"ha":1358,"x_min":0,"x_max":1409,"o":"m 720 415 l 617 0 l 298 0 l 0 979 l 319 979 l 453 556 l 570 979 l 863 979 l 999 556 l 1090 979 l 1409 979 l 1163 0 l 844 0 l 720 415 m 107 900 l 261 900 l 400 480 l 507 480 l 640 900 l 810 900 l 955 481 l 1045 481 l 1152 901 l 1308 901 l 1107 75 l 906 75 l 776 491 l 669 491 l 555 81 l 366 81 l 107 900 m 52 939 l 332 41 l 586 41 l 693 455 l 749 455 l 876 41 l 1133 41 l 1359 939 l 1122 939 l 1022 515 l 977 515 l 835 939 l 604 939 l 482 515 l 424 515 l 290 939 l 52 939 z "},"e":{"ha":922,"x_min":41,"x_max":922,"o":"m 41 0 l 41 979 l 880 979 l 880 688 l 359 688 l 359 575 l 696 575 l 696 404 l 359 404 l 359 292 l 922 292 l 922 0 l 41 0 m 122 898 l 800 898 l 800 770 l 285 770 l 285 507 l 613 507 l 613 471 l 283 471 l 282 209 l 841 209 l 841 79 l 122 79 l 122 898 m 81 939 l 81 41 l 882 41 l 882 251 l 319 251 l 319 444 l 655 444 l 655 534 l 319 534 l 319 728 l 840 728 l 840 939 l 81 939 z "},"r":{"ha":1051,"x_min":41,"x_max":1051,"o":"m 41 0 l 41 979 l 678 979 q 867 921 796 968 q 964 829 939 873 q 1001 722 990 785 q 987 583 1012 658 q 901 460 962 507 q 726 385 840 412 l 799 292 l 1051 292 l 1051 0 l 705 0 l 395 323 l 395 0 l 41 0 m 81 41 l 354 41 l 354 364 l 420 364 l 729 41 l 1010 41 l 1010 251 l 775 251 l 684 380 l 684 399 q 879 488 829 446 q 949 593 929 530 q 962 712 970 656 q 933 805 954 768 q 847 886 911 842 q 678 939 783 929 l 81 939 l 81 41 m 378 752 l 652 752 q 696 731 670 752 q 728 642 723 709 q 700 555 725 572 q 652 537 674 537 l 378 537 l 378 752 m 420 713 l 420 574 l 629 574 q 666 586 646 574 q 687 643 686 597 q 663 699 684 685 q 629 713 642 713 l 420 713 m 125 87 l 125 899 l 678 899 q 827 852 772 890 q 901 783 883 814 q 925 703 920 751 q 914 604 930 655 q 858 518 898 553 q 643 401 818 483 l 643 382 l 754 208 l 970 208 l 970 83 l 754 83 l 452 407 l 315 407 l 315 87 l 125 87 m 342 790 l 342 494 l 678 494 q 736 518 705 494 q 771 639 767 543 q 732 761 765 732 q 677 790 700 790 l 342 790 z "},"t":{"ha":859,"x_min":0,"x_max":859,"o":"m 859 979 l 859 688 l 589 688 l 589 0 l 270 0 l 270 688 l 0 688 l 0 979 l 859 979 m 41 939 l 41 728 l 311 728 l 311 41 l 548 41 l 548 728 l 818 728 l 818 939 l 41 939 m 363 770 l 90 770 l 90 898 l 773 898 l 773 770 l 510 770 l 511 90 l 363 90 l 363 770 z "},"y":{"ha":1095,"x_min":0,"x_max":1175,"o":"m 1175 979 l 747 359 l 747 0 l 427 0 l 427 359 l 0 979 l 387 979 l 586 677 l 788 979 l 1175 979 m 79 939 l 469 372 l 469 41 l 708 41 l 708 372 l 1100 939 l 815 939 l 610 636 l 566 636 l 365 939 l 79 939 m 153 902 l 340 902 l 547 602 l 628 602 l 833 903 l 1027 903 l 669 388 l 669 84 l 515 84 l 515 385 l 153 902 z "},"u":{"ha":1013,"x_min":41,"x_max":1013,"o":"m 359 979 l 359 400 q 397 262 355 301 q 529 221 439 224 q 649 263 601 222 q 694 400 697 304 l 694 979 l 1013 979 l 1013 405 q 973 210 1011 283 q 876 88 935 137 q 729 12 817 39 q 532 -18 640 -15 q 348 7 441 -16 q 185 79 255 30 q 78 204 116 127 q 41 404 41 281 l 41 979 l 359 979 m 120 900 l 283 900 l 283 401 q 332 214 277 281 q 528 145 388 146 q 717 219 661 153 q 772 401 773 285 l 772 898 l 939 898 l 939 406 q 904 244 931 296 q 832 156 876 193 q 708 91 789 119 q 533 60 628 64 q 371 83 453 62 q 235 148 290 104 q 151 237 180 191 q 120 404 122 283 l 120 900 m 81 939 l 81 404 q 116 222 83 281 q 211 117 149 163 q 359 48 273 71 q 532 23 446 26 q 718 54 633 27 q 852 124 802 80 q 937 229 903 168 q 972 405 970 289 l 972 939 l 735 939 l 735 400 q 687 243 739 297 q 528 180 635 189 q 363 237 411 184 q 319 400 316 290 l 319 939 l 81 939 z "},"i":{"ha":359,"x_min":41,"x_max":359,"o":"m 41 979 l 359 979 l 359 0 l 41 0 l 41 979 m 123 894 l 277 895 l 277 81 l 123 79 l 123 894 m 81 939 l 81 41 l 319 41 l 319 939 l 81 939 z "},"o":{"ha":1137,"x_min":7,"x_max":1131,"o":"m 1049 484 q 990 257 1047 351 q 826 115 933 163 q 569 67 718 67 q 313 115 420 67 q 151 256 205 163 q 94 484 96 349 q 127 664 96 586 q 219 794 159 741 q 369 874 280 846 q 569 901 457 901 q 825 853 718 901 q 990 711 933 804 q 1049 484 1047 617 m 1131 484 q 1064 210 1131 323 q 870 40 997 97 q 566 -17 743 -17 q 263 40 390 -17 q 72 210 137 98 q 7 484 7 322 q 44 700 7 607 q 153 857 81 793 q 330 954 225 921 q 566 987 434 987 q 869 929 742 987 q 1064 758 997 871 q 1131 484 1131 645 m 289 480 q 344 272 289 361 q 560 182 399 182 q 749 230 686 182 q 826 337 811 277 q 848 480 842 397 q 788 690 842 601 q 560 779 734 779 q 289 480 289 779 m 374 481 q 412 331 374 395 q 563 267 450 267 q 693 300 650 267 q 747 377 736 334 q 762 481 758 420 q 721 631 758 567 q 563 694 683 694 q 374 481 374 694 m 1090 484 q 1026 736 1088 632 q 846 893 964 840 q 566 947 728 947 q 348 916 444 947 q 185 827 252 886 q 84 683 119 769 q 47 485 50 597 q 110 233 50 336 q 287 77 170 130 q 566 24 404 24 q 846 76 729 24 q 1026 233 964 129 q 1090 484 1088 337 m 330 483 q 560 741 330 741 q 752 664 707 741 q 803 483 798 587 q 785 358 798 410 q 719 266 772 307 q 560 226 667 226 q 376 303 423 226 q 330 483 330 380 z "},"p":{"ha":1018,"x_min":41,"x_max":1012,"o":"m 41 0 l 41 979 l 678 979 q 869 918 796 964 q 971 806 941 872 q 1006 692 1001 739 q 1009 600 1012 646 q 989 508 1006 555 q 898 401 972 461 q 701 323 823 342 l 395 323 l 395 0 l 41 0 m 342 790 l 342 494 l 678 494 q 736 518 705 494 q 771 639 767 543 q 732 761 765 732 q 677 790 700 790 l 342 790 m 125 87 l 125 893 l 678 895 q 821 842 768 876 q 894 770 873 808 q 922 678 914 732 q 916 571 930 624 q 854 476 901 518 q 700 407 808 434 l 315 407 l 315 87 l 125 87 m 420 713 l 420 574 l 629 574 q 666 586 646 574 q 687 643 686 597 q 663 699 684 685 q 629 713 642 713 l 420 713 m 81 41 l 354 41 l 354 364 l 701 364 q 878 439 817 388 q 959 557 939 490 q 968 686 979 625 q 935 791 956 746 q 852 880 914 836 q 678 939 791 925 l 81 939 l 81 41 m 378 752 l 652 752 q 696 731 670 752 q 728 642 723 709 q 700 555 725 572 q 652 537 674 537 l 378 537 l 378 752 z "},"[":{"ha":0,"x_min":-163,"x_max":41,"o":"m 41 939 l -122 939 l -122 728 l 41 728 l 41 688 l -163 688 l -163 979 l 41 979 l 41 939 m 41 769 l -81 769 l -81 898 l 41 898 l 41 769 z "},"]":{"ha":0,"x_min":0,"x_max":203,"o":"m 0 979 l 203 979 l 203 688 l 0 688 l 0 728 l 163 728 l 163 939 l 0 939 l 0 979 m 123 898 l 0 898 l 0 769 l 123 769 l 123 898 z "},"\\":{"ha":0,"x_min":1109,"x_max":1313,"o":"m 1109 -56 l 1313 -56 l 1313 -347 l 1109 -347 l 1109 -307 l 1272 -307 l 1272 -96 l 1109 -96 l 1109 -56 m 1232 -137 l 1109 -137 l 1109 -266 l 1232 -266 l 1232 -137 z "},"a":{"ha":1095,"x_min":0,"x_max":1136,"o":"m 0 0 l 322 979 l 808 979 l 1136 0 l 766 0 l 704 176 l 413 176 l 351 0 l 0 0 m 570 801 l 378 346 l 751 346 l 570 801 m 125 90 l 393 895 l 749 895 l 1020 90 l 833 90 l 760 263 l 361 263 l 296 90 l 125 90 m 480 415 l 642 415 l 567 633 l 480 415 m 57 41 l 324 41 l 387 217 l 736 217 l 800 41 l 1080 41 l 782 939 l 356 939 l 57 41 m 568 717 l 694 385 l 433 385 l 568 717 z "},"s":{"ha":770,"x_min":0,"x_max":770,"o":"m 770 979 l 770 688 l 572 688 q 521 591 398 693 q 736 217 741 399 q 521 0 732 35 l 0 0 l 0 292 l 206 292 q 255 399 398 286 q 54 798 19 616 q 277 979 90 979 l 770 979 m 87 213 l 206 213 q 331 452 525 231 q 142 784 115 669 q 278 897 170 899 l 688 897 l 688 769 l 572 769 q 397 593 289 777 q 657 252 644 387 q 522 83 670 118 l 87 83 l 87 213 m 41 251 l 41 41 l 521 41 q 694 236 700 79 q 456 591 689 393 q 572 728 347 732 l 729 728 l 729 939 l 277 939 q 99 788 136 936 q 293 426 62 640 q 206 251 464 258 l 41 251 z "},"d":{"ha":1127,"x_min":41,"x_max":1120,"o":"m 41 0 l 41 979 l 618 979 q 826 950 736 979 q 978 866 917 921 q 1079 721 1038 811 q 1120 490 1120 631 q 1076 259 1113 353 q 977 111 1038 165 q 826 27 915 57 q 602 0 736 -3 l 41 0 m 305 770 l 305 198 l 536 198 q 664 230 616 198 q 743 310 713 261 q 781 485 772 359 q 747 654 779 599 q 665 739 715 709 q 535 770 616 770 l 305 770 m 122 81 l 122 895 l 611 893 q 798 868 720 897 q 919 798 876 840 q 983 716 962 756 q 1017 641 1004 676 q 1035 488 1029 606 q 995 289 1030 364 q 917 174 959 213 q 810 111 874 136 q 596 81 746 86 l 122 81 m 389 682 l 389 274 l 534 274 q 625 300 596 276 q 668 352 654 324 q 690 478 683 379 q 669 596 685 561 q 623 656 652 631 q 534 682 593 682 l 389 682 m 349 728 l 537 728 q 644 702 603 728 q 710 628 684 675 q 739 481 736 580 q 707 330 731 372 q 643 260 682 288 q 538 233 603 233 l 349 233 l 349 728 m 81 41 l 602 41 q 835 73 765 45 q 951 143 905 100 q 1036 269 997 186 q 1080 490 1076 353 q 1060 660 1074 621 q 1023 743 1046 699 q 954 833 1001 787 q 821 910 906 879 q 618 939 736 941 l 81 939 l 81 41 z "},"f":{"ha":880,"x_min":41,"x_max":880,"o":"m 41 0 l 41 979 l 880 979 l 880 688 l 359 688 l 359 575 l 696 575 l 696 404 l 359 404 l 359 0 l 41 0 m 81 939 l 81 41 l 319 41 l 319 444 l 655 444 l 655 534 l 319 534 l 319 728 l 840 728 l 840 939 l 81 939 m 122 898 l 800 898 l 800 768 l 285 768 l 285 507 l 613 507 l 613 471 l 283 471 l 282 81 l 122 81 l 122 898 z "},"g":{"ha":1006,"x_min":7,"x_max":1006,"o":"m 966 728 l 966 939 l 572 939 q 369 912 461 937 q 205 831 277 887 q 92 694 134 776 q 47 504 50 613 q 117 247 46 350 q 307 94 187 144 q 572 41 426 43 l 966 41 l 966 449 l 741 449 l 741 251 l 700 251 q 553 256 608 250 q 446 276 499 262 q 357 339 393 290 q 315 487 321 388 q 361 640 323 601 q 444 696 400 678 q 542 720 488 713 q 700 728 596 726 l 966 728 m 1006 979 l 1006 688 l 700 688 q 547 682 597 688 q 459 661 498 675 q 391 612 420 647 q 356 487 361 576 q 391 363 359 400 q 467 313 422 326 q 559 296 511 301 q 700 292 606 292 l 700 490 l 1006 490 l 1006 0 l 572 0 q 284 57 413 0 q 81 227 155 113 q 7 504 7 340 q 51 710 7 619 q 174 860 96 800 q 355 950 253 920 q 572 979 457 979 l 1006 979 m 925 901 l 925 770 l 700 770 q 538 762 598 769 q 425 734 477 754 q 327 669 372 713 q 274 488 282 624 q 326 320 282 377 q 431 244 369 263 q 551 218 492 225 q 703 212 610 212 l 779 212 l 779 410 l 928 410 l 928 81 l 572 81 q 330 129 439 81 q 153 269 220 176 q 87 505 87 361 q 130 681 92 608 q 235 803 168 754 q 385 873 301 852 q 575 901 469 895 l 925 901 z "},"h":{"ha":935,"x_min":41,"x_max":935,"o":"m 616 642 l 616 979 l 935 979 l 935 0 l 616 0 l 616 353 l 359 353 l 359 0 l 41 0 l 41 979 l 359 979 l 359 642 l 616 642 m 122 898 l 279 898 l 279 559 l 697 559 l 697 901 l 852 901 l 852 87 l 697 87 l 697 429 l 285 429 l 285 84 l 122 84 l 122 898 m 81 939 l 81 41 l 319 41 l 319 393 l 656 393 l 656 41 l 894 41 l 894 939 l 656 939 l 656 601 l 319 601 l 319 939 l 81 939 z "},"j":{"ha":581,"x_min":0,"x_max":581,"o":"m 581 979 l 581 688 l 540 688 l 540 308 q 507 156 534 201 q 425 71 480 111 q 274 9 369 31 q 124 2 182 3 q 0 0 66 1 l 0 292 q 119 292 53 278 q 193 320 172 304 q 221 397 213 336 l 221 979 l 581 979 m 296 898 l 502 898 l 503 765 l 464 765 l 464 307 q 449 208 464 248 q 400 140 434 168 q 277 90 366 113 q 87 77 182 77 l 87 214 q 163 224 130 212 q 241 270 195 236 q 297 396 288 304 l 296 898 m 262 939 l 262 397 q 218 294 253 320 q 119 254 182 269 q 41 247 79 243 l 41 41 q 274 50 182 39 q 414 107 369 73 q 479 182 458 141 q 499 308 499 223 l 499 728 l 540 728 l 540 939 l 262 939 z "},"k":{"ha":952,"x_min":41,"x_max":952,"o":"m 359 979 l 359 661 l 583 979 l 902 979 l 537 490 l 700 292 l 952 292 l 952 0 l 606 0 l 359 292 l 359 0 l 41 0 l 41 979 l 359 979 m 122 897 l 278 897 l 278 584 l 404 584 l 622 901 l 745 901 l 461 502 l 461 483 l 664 214 l 871 214 l 871 79 l 650 78 l 391 369 l 281 369 l 281 81 l 123 81 l 122 897 m 81 939 l 81 41 l 319 41 l 319 332 l 375 332 l 627 41 l 911 41 l 911 251 l 680 251 l 496 480 l 496 496 l 824 939 l 604 939 l 387 620 l 319 620 l 319 939 l 81 939 z "},"l":{"ha":890,"x_min":41,"x_max":890,"o":"m 41 0 l 41 979 l 359 979 l 359 292 l 890 292 l 890 0 l 41 0 m 81 939 l 81 41 l 849 41 l 849 251 l 319 251 l 319 939 l 81 939 m 122 894 l 275 894 l 275 209 l 806 209 l 806 79 l 122 79 l 122 894 z "},";":{"ha":977,"x_min":7,"x_max":960,"o":"m 324 500 q 359 378 330 419 q 431 314 389 338 q 556 279 472 290 q 681 302 643 285 q 768 361 719 320 l 960 146 q 793 38 876 68 q 553 0 711 8 q 323 44 401 8 q 169 141 245 81 q 50 291 93 201 q 7 501 7 382 q 50 710 7 619 q 166 861 93 800 q 321 957 240 921 q 553 999 401 993 q 793 963 711 993 q 960 854 876 933 l 768 640 q 681 699 719 681 q 556 722 643 716 q 431 687 472 711 q 359 623 389 663 q 324 500 330 582 m 845 846 l 758 745 q 566 796 700 795 q 385 762 442 793 q 279 671 327 731 q 225 500 232 610 q 280 334 227 396 q 389 246 334 273 q 557 202 444 220 q 761 245 707 205 l 850 151 q 760 104 823 126 q 553 75 697 83 q 365 115 441 77 q 230 203 289 152 q 130 319 171 254 q 84 500 88 384 q 132 683 90 606 q 229 807 174 760 q 354 886 285 854 q 555 922 423 917 q 762 892 697 914 q 845 846 827 871 m 898 849 q 777 925 852 901 q 553 958 703 949 q 337 920 411 955 q 199 830 263 884 q 92 694 134 776 q 47 501 50 613 q 92 308 49 380 q 202 179 136 236 q 347 83 269 122 q 553 41 426 43 q 775 73 705 48 q 903 152 846 98 l 764 297 q 556 239 682 237 q 407 278 456 252 q 315 355 358 304 q 266 500 273 406 q 315 648 274 598 q 406 726 355 697 q 563 761 456 755 q 764 697 678 762 l 898 849 z "},"'":{"ha":439,"x_min":115,"x_max":323,"o":"m 115 551 l 115 979 l 323 979 l 323 551 l 115 551 m 195 625 l 195 903 l 253 903 l 253 625 l 195 625 m 158 593 l 285 593 l 285 940 l 158 940 l 158 593 z "},"z":{"ha":936,"x_min":41,"x_max":936,"o":"m 41 979 l 936 979 l 936 688 l 462 292 l 936 292 l 936 0 l 41 0 l 41 292 l 515 688 l 41 688 l 41 979 m 125 895 l 856 895 l 856 718 l 384 334 l 384 216 l 849 216 l 849 81 l 119 81 l 119 259 l 587 655 l 587 766 l 125 766 l 125 895 m 81 939 l 81 728 l 553 728 l 552 671 l 81 273 l 81 41 l 895 41 l 895 251 l 421 251 l 421 309 l 895 701 l 895 939 l 81 939 z "},"x":{"ha":1096,"x_min":0,"x_max":1175,"o":"m 1175 979 l 815 490 l 1175 0 l 788 0 l 586 302 l 387 0 l 0 0 l 359 490 l 0 979 l 387 979 l 586 677 l 788 979 l 1175 979 m 153 902 l 340 902 l 547 602 l 628 602 l 833 903 l 1027 903 l 739 537 l 739 450 l 1029 77 l 842 77 l 640 377 l 541 377 l 349 80 l 164 80 l 437 453 l 437 534 l 153 902 m 77 939 l 400 517 l 400 469 l 81 41 l 368 41 l 562 343 l 616 343 l 811 41 l 1097 41 l 774 467 l 774 513 l 1099 939 l 814 939 l 608 636 l 564 636 l 363 939 l 77 939 z "},"c":{"ha":1006,"x_min":7,"x_max":1006,"o":"m 1006 292 l 1006 0 l 572 0 q 284 57 413 0 q 81 227 155 113 q 7 504 7 340 q 51 710 7 619 q 174 860 96 800 q 355 950 253 920 q 572 979 457 979 l 1006 979 l 1006 688 l 700 688 q 547 682 597 688 q 459 661 498 675 q 391 612 420 647 q 356 487 361 576 q 391 363 359 400 q 467 313 422 326 q 559 296 511 301 q 700 292 606 292 l 1006 292 m 977 939 l 574 939 q 368 911 461 936 q 204 833 275 886 q 90 698 133 780 q 45 506 47 616 q 115 247 43 351 q 308 92 186 142 q 577 39 429 41 l 977 39 l 977 251 l 707 251 q 558 256 613 250 q 449 276 503 262 q 359 340 395 290 q 316 489 322 389 q 363 643 324 604 q 447 700 402 682 q 546 724 492 718 q 700 731 601 730 l 977 731 l 977 939 m 935 901 l 935 770 l 700 770 q 538 762 598 769 q 425 734 477 754 q 327 669 372 713 q 274 488 282 624 q 326 320 282 377 q 431 244 369 263 q 551 218 492 225 q 703 212 610 212 l 930 212 l 930 81 l 572 81 q 330 129 439 81 q 153 269 220 176 q 87 505 87 361 q 130 681 92 608 q 235 803 168 754 q 385 873 301 852 q 575 901 469 895 l 935 901 z "},"v":{"ha":1168,"x_min":0,"x_max":1214,"o":"m 374 979 l 596 227 l 821 979 l 1214 979 l 865 0 l 345 0 l 0 979 l 374 979 m 125 897 l 313 897 l 542 146 l 657 146 l 884 899 l 1112 899 l 816 81 l 397 81 l 125 897 m 370 41 l 840 41 l 1162 939 l 850 939 l 627 186 l 568 186 l 342 939 l 59 939 l 370 41 z "},"b":{"ha":1104,"x_min":41,"x_max":1097,"o":"m 41 0 l 41 979 l 709 979 q 953 924 869 978 q 1055 742 1037 869 q 1013 589 1061 644 q 857 497 966 533 l 857 494 q 956 466 910 488 q 1032 413 1001 444 q 1080 345 1063 383 q 1097 271 1097 307 q 1037 95 1097 155 q 885 17 978 35 q 659 0 791 -1 l 41 0 m 332 782 l 332 549 l 591 549 q 710 581 661 547 q 760 664 760 614 q 714 751 763 722 q 591 782 665 781 l 332 782 m 393 711 l 393 629 l 572 629 q 671 667 662 624 q 572 711 654 711 l 393 711 m 125 84 l 125 892 l 682 892 q 883 858 811 891 q 963 738 955 825 q 935 617 968 654 q 789 496 901 581 q 943 382 876 431 q 1012 271 1009 334 q 975 151 1009 190 q 849 98 941 111 q 643 84 757 84 l 125 84 m 330 422 l 330 159 l 616 159 q 747 188 696 155 q 802 289 798 220 q 749 390 798 356 q 616 422 701 423 l 330 422 m 393 347 l 393 236 l 610 236 q 713 290 705 231 q 613 347 708 347 l 393 347 m 81 41 l 659 41 q 878 56 789 38 q 1013 126 966 73 q 1056 271 1059 180 q 1040 337 1056 307 q 1000 391 1025 368 q 937 434 976 415 q 819 496 899 454 q 973 599 925 549 q 1014 742 1021 648 q 926 893 999 849 q 709 939 854 937 l 81 939 l 81 41 m 362 746 l 573 746 q 672 726 633 746 q 709 667 711 706 q 675 601 713 622 q 573 589 637 581 l 362 589 l 362 746 m 365 387 l 599 387 q 709 364 667 389 q 751 291 751 340 q 718 215 751 237 q 599 195 684 193 l 365 195 l 365 387 z "},"n":{"ha":970,"x_min":41,"x_max":970,"o":"m 41 0 l 41 979 l 359 979 l 651 613 l 651 979 l 970 979 l 970 0 l 651 0 l 359 366 l 359 0 l 41 0 m 122 895 l 321 895 l 605 533 l 736 533 l 736 894 l 889 894 l 889 80 l 698 80 l 406 446 l 286 446 l 285 81 l 122 81 l 122 895 m 81 939 l 81 41 l 319 41 l 319 407 l 383 407 l 675 41 l 929 41 l 929 939 l 692 939 l 692 574 l 627 574 l 342 939 l 81 939 z "},"m":{"ha":1105,"x_min":41,"x_max":1105,"o":"m 41 0 l 41 979 l 359 979 l 574 572 l 787 979 l 1105 979 l 1105 0 l 787 0 l 787 407 l 582 0 l 564 0 l 359 407 l 359 0 l 41 0 m 125 895 l 313 895 l 570 469 l 581 469 l 838 895 l 1023 895 l 1023 90 l 868 90 l 868 491 l 741 491 l 572 141 l 401 494 l 279 494 l 279 87 l 125 87 l 125 895 m 81 939 l 81 41 l 319 41 l 319 452 l 381 452 l 571 57 l 764 448 l 827 448 l 827 41 l 1065 41 l 1065 939 l 810 939 l 577 515 l 572 515 l 336 939 l 81 939 z "},",":{"ha":514,"x_min":41,"x_max":422,"o":"m 127 269 l 422 269 l 262 -158 l 41 -158 l 127 269 m 174 212 l 332 212 l 221 -103 l 114 -103 l 174 212 m 153 240 l 83 -129 l 236 -129 l 374 240 l 153 240 z "},".":{"ha":514,"x_min":106,"x_max":408,"o":"m 184 72 l 184 200 l 334 200 l 334 72 l 184 72 m 106 0 l 106 269 l 408 269 l 408 0 l 106 0 m 146 41 l 368 41 l 368 229 l 146 229 l 146 41 z "},"/":{"ha":514,"x_min":-83,"x_max":597,"o":"m 351 996 l 597 996 l 163 -17 l -83 -17 l 351 996 m 31 54 l 401 918 l 484 918 l 112 54 l 31 54 m -16 22 l 133 22 l 534 955 l 382 955 l -16 22 z "}," ":{"ha":644,"x_min":0,"x_max":0,"o":""},"~":{"ha":1095,"x_min":-14,"x_max":1135,"o":"m 896 688 l 1122 0 l 770 0 l 709 176 l 418 176 l 356 0 l -14 0 l 313 979 l 1135 979 l 1135 688 l 896 688 m 836 728 l 1095 728 l 1095 939 l 340 939 l 41 41 l 321 41 l 385 217 l 734 217 l 798 41 l 1065 41 l 836 728 m 555 633 l 480 415 l 642 415 l 555 633 m 827 87 l 764 260 l 357 260 l 290 87 l 97 87 l 376 895 l 1052 895 l 1052 770 l 775 770 l 1006 87 l 827 87 m 690 385 l 428 385 l 554 717 l 690 385 m 372 346 l 744 346 l 553 801 l 372 346 z "},"!":{"ha":591,"x_min":110,"x_max":482,"o":"m 110 979 l 482 979 l 428 363 l 164 363 l 110 979 m 144 261 l 447 261 l 447 0 l 144 0 l 144 261 m 220 183 l 367 183 l 367 81 l 220 81 l 220 183 m 198 898 l 387 898 l 354 439 l 231 439 l 198 898 m 155 939 l 204 404 l 388 404 l 436 939 l 155 939 m 185 220 l 185 41 l 406 41 l 406 220 l 185 220 z "},"@":{"ha":3836,"x_min":62,"x_max":3800,"o":"m 406 1027 l 406 372 l 417 445 l 440 458 l 440 1040 l 406 1027 m 74 161 l 74 100 l 499 100 l 523 359 l 523 440 l 434 444 q 287 189 429 161 l 287 1143 q 334 1174 294 1180 l 334 1238 l 74 1238 l 74 1175 q 121 1064 132 1166 l 121 186 l 74 161 m 712 1027 l 712 421 l 748 434 l 748 1040 l 712 1027 m 406 1238 l 406 1175 q 452 1126 452 1163 l 452 458 l 532 458 l 547 445 l 547 273 l 570 261 q 854 434 783 224 l 854 1112 q 901 1175 848 1182 l 901 1238 l 712 1238 l 712 1175 q 760 1089 761 1182 l 760 434 q 660 388 713 374 q 595 495 606 401 l 593 1131 q 652 1176 603 1183 l 653 1238 l 406 1238 m 949 397 l 949 359 l 1031 384 l 984 445 l 961 445 l 949 397 m 926 1152 l 926 536 q 1055 434 984 458 q 1280 570 1185 421 l 1280 805 l 1173 805 l 1173 583 q 1067 595 1090 534 l 1067 1115 q 1173 1126 1122 1202 l 1173 977 l 1280 977 l 1280 1238 l 1162 1225 q 1048 1248 1143 1259 q 926 1152 954 1238 m 1173 965 l 1173 817 l 1280 817 l 1315 768 l 1339 780 l 1339 854 l 1282 854 l 1185 965 l 1173 965 m 1477 1067 l 1504 854 l 1446 854 l 1477 1067 m 854 224 l 854 199 l 1482 199 q 1518 211 1504 171 q 1482 224 1508 248 l 854 224 m 701 149 q 712 75 667 102 l 748 75 l 747 99 l 713 100 l 712 124 l 1398 124 q 1537 86 1460 61 q 1624 213 1614 111 q 1538 340 1622 311 q 1397 298 1455 370 l 1185 298 l 1185 321 l 1210 321 l 1209 309 l 1233 309 q 1192 349 1229 355 q 1158 307 1156 342 q 1185 273 1160 272 l 1411 273 q 1540 311 1478 347 q 1600 216 1602 276 q 1523 108 1594 132 q 1411 149 1453 85 l 701 149 m 1280 570 l 1280 496 l 1445 537 l 1446 608 l 1411 608 l 1434 755 l 1529 755 l 1541 648 q 1504 616 1540 614 l 1504 545 l 1718 570 l 1718 656 q 1670 731 1670 656 l 1612 1147 q 1670 1187 1613 1181 l 1670 1238 l 1351 1238 l 1351 1175 q 1398 1139 1389 1180 l 1327 632 q 1280 570 1319 576 m 1754 892 l 1777 829 l 1801 829 l 1777 892 l 1754 892 m 1658 124 l 1658 87 l 1836 87 q 1849 220 1835 148 l 1812 224 q 1771 125 1797 140 l 1754 137 l 1754 397 l 1776 411 l 1777 445 l 1658 445 l 1658 412 l 1682 395 l 1683 124 l 1658 124 m 1811 347 l 1812 298 l 1860 298 q 1883 87 1847 100 q 1989 100 1957 78 l 1989 137 q 1931 137 1943 112 l 1931 298 l 1978 298 l 1978 347 l 1931 347 l 1931 409 l 1860 397 l 1860 347 l 1811 347 m 1729 817 l 1729 570 l 1812 570 l 1812 595 q 2060 669 1982 517 l 2060 854 l 2035 901 l 1872 1027 l 1872 1126 q 1939 1142 1905 1164 q 1966 1027 1973 1120 l 2060 1027 l 2060 1238 l 1966 1238 l 1966 1224 l 1955 1225 q 1819 1249 1948 1260 q 1729 1158 1759 1229 l 1729 965 q 1919 817 1794 878 l 1919 707 q 1812 721 1856 637 l 1812 817 l 1729 817 m 2072 296 q 2119 298 2096 317 l 2119 149 q 2072 137 2102 127 l 2072 296 m 1966 1002 l 1978 952 l 2108 829 l 2119 829 l 2119 904 q 1989 1002 2060 892 l 1966 1002 m 2001 309 l 2001 112 l 2037 87 l 2238 87 q 2190 137 2238 100 l 2190 445 l 2085 445 q 2119 397 2072 434 l 2119 335 q 2001 309 2037 372 m 2085 644 l 2085 570 l 2321 557 l 2321 619 q 2274 680 2273 626 l 2274 867 q 2338 817 2332 865 l 2416 817 l 2416 1002 l 2332 1002 q 2274 954 2341 950 l 2274 1150 q 2368 1040 2384 1161 l 2462 1040 l 2462 1238 l 2085 1238 l 2085 1175 q 2131 1126 2131 1163 l 2131 689 q 2085 644 2115 644 m 2368 755 l 2368 619 l 2450 543 l 2450 609 q 2498 643 2481 603 l 2498 694 q 2380 755 2416 669 l 2368 755 m 2462 593 l 2462 521 q 2711 464 2597 508 l 2711 545 q 2664 597 2661 549 l 2664 1141 q 2698 1188 2667 1183 l 2699 1238 l 2475 1238 l 2475 1175 q 2509 1133 2500 1176 l 2509 640 q 2462 593 2500 587 m 2340 211 q 2380 199 2354 170 l 3019 199 l 3019 224 l 2380 224 q 2340 211 2353 252 m 3030 1040 l 3030 694 l 3090 694 l 3090 1040 l 3030 1040 m 3088 543 l 3101 544 l 3101 421 l 3078 421 l 3088 543 m 2236 214 q 2337 80 2249 101 q 2464 125 2426 60 l 3160 124 l 3147 100 l 3134 112 l 3113 112 l 3137 75 q 3183 136 3189 75 l 3172 149 l 2451 149 q 2356 100 2426 99 q 2261 213 2266 127 q 2363 323 2274 309 q 2453 273 2421 324 l 2711 272 q 2715 339 2740 321 q 2664 335 2690 358 l 2664 309 l 2688 309 l 2688 323 l 2698 323 l 2699 298 l 2462 298 q 2338 344 2422 360 q 2236 214 2254 328 m 547 149 l 547 124 l 582 124 q 2134 488 1257 534 q 2854 330 2566 442 q 3329 100 3142 218 l 3361 100 l 3362 137 q 2844 385 3103 286 q 2144 534 2586 484 q 1269 458 1801 570 l 1031 384 l 736 261 l 547 149 m 3314 309 q 3362 224 3299 264 l 3362 137 l 3402 102 l 3408 174 l 3456 186 l 3456 236 q 3338 309 3370 242 l 3314 309 m 2724 532 l 2724 458 q 3209 260 3000 392 l 3244 260 l 3244 334 q 3197 396 3197 334 l 3197 916 l 3316 359 l 3352 334 l 3469 916 l 3467 199 q 3421 159 3455 156 l 3422 99 l 3682 99 l 3682 161 q 3635 248 3630 159 l 3634 1141 q 3682 1177 3633 1173 l 3682 1236 l 3434 1236 l 3352 817 l 3264 1234 l 3221 1236 l 3055 1236 l 3055 1175 q 3103 1137 3097 1175 l 3103 680 l 3036 681 q 2969 495 3023 522 l 2925 495 l 2925 1126 q 2972 1176 2926 1171 l 2972 1236 l 2724 1236 l 2724 1175 q 2772 1112 2774 1183 l 2772 545 l 2724 532 m 62 1249 l 346 1249 l 393 1199 l 393 1249 l 665 1249 l 665 1219 l 701 1212 l 701 1249 l 913 1249 l 941 1213 l 1014 1261 q 1171 1243 1150 1271 l 1292 1249 l 1339 1199 l 1339 1249 l 1679 1249 l 1726 1199 l 1778 1247 l 1812 1261 q 1944 1251 1904 1270 l 2982 1250 l 3040 1187 l 3042 1249 l 3279 1249 l 3394 1109 l 3422 1250 l 3693 1249 l 3800 1137 l 3800 1051 q 3740 977 3728 1038 l 3740 123 l 3800 62 l 3800 -25 l 3515 -25 q 3479 25 3484 -12 l 3457 25 l 3441 -1 l 3290 -1 q 3219 -25 3279 -38 q 3113 -1 3228 8 l 2545 -1 q 2439 -35 2545 -38 l 2378 0 l 2357 1 l 2357 -35 q 2096 -1 2120 -52 q 2025 -38 2085 -38 l 1955 -1 l 1939 -37 l 1744 -37 l 1717 0 l 1694 -1 q 1575 -38 1635 -38 l 1457 -1 l 866 -1 l 819 -38 l 701 62 q 606 -25 619 35 l 168 -25 l 62 87 l 62 174 q 109 248 115 178 l 109 1080 q 62 1158 111 1141 l 62 1249 z "},"#":{"ha":0,"x_min":-41,"x_max":81,"o":"m -41 728 l 81 728 l 81 688 l -41 688 l -41 728 m -41 898 l 81 898 l 81 769 l -41 769 l -41 898 m -41 979 l 81 979 l 81 939 l -41 939 l -41 979 z "},"$":{"ha":0,"x_min":-41,"x_max":81,"o":"m -41 41 l 81 41 l 81 0 l -41 0 l -41 41 m -41 292 l 81 292 l 81 251 l -41 251 l -41 292 m -41 210 l 81 210 l 81 81 l -41 81 l -41 210 z "},"%":{"ha":0,"x_min":41,"x_max":81,"o":"m 41 939 l 81 939 l 81 728 l 41 728 l 41 939 z "},"^":{"ha":0,"x_min":41,"x_max":81,"o":"m 41 251 l 81 251 l 81 41 l 41 41 l 41 251 z "},"&":{"ha":0,"x_min":-41,"x_max":0,"o":"m -41 939 l 0 939 l 0 728 l -41 728 l -41 939 z "},"*":{"ha":0,"x_min":-41,"x_max":0,"o":"m -41 251 l 0 251 l 0 41 l -41 41 l -41 251 z "},"(":{"ha":514,"x_min":43,"x_max":486,"o":"m 358 14 l 277 14 q 201 165 231 79 q 151 349 171 252 q 127 559 130 445 q 279 1101 127 827 l 366 1101 q 301 937 320 1001 q 273 817 282 873 q 255 692 263 760 q 244 559 247 624 q 247 401 241 467 q 264 283 252 336 q 294 170 277 231 q 358 14 312 109 m 486 -71 l 232 -71 q 132 129 174 25 q 66 340 90 233 q 43 557 43 448 q 232 1186 43 865 l 486 1186 q 418 1038 447 1114 q 369 882 389 963 q 339 720 349 801 q 330 557 330 638 q 339 394 330 476 q 369 232 349 312 q 417 77 388 152 q 486 -71 446 2 m 418 -30 q 351 127 372 60 q 316 260 331 195 q 294 401 301 326 q 285 559 288 477 q 297 707 290 632 q 319 850 304 781 q 355 987 334 920 q 415 1145 377 1055 l 258 1145 q 89 559 87 844 q 111 345 87 445 q 168 156 136 244 q 258 -30 201 68 l 418 -30 z "},")":{"ha":514,"x_min":43,"x_max":486,"o":"m 172 14 q 235 170 218 109 q 265 283 253 231 q 283 401 277 336 q 286 559 288 467 q 275 692 283 624 q 257 817 267 760 q 229 937 248 873 q 163 1101 210 1001 l 250 1101 q 402 559 402 827 q 379 349 399 445 q 329 165 359 252 q 253 14 299 79 l 172 14 m 43 -71 q 113 77 83 2 q 161 232 142 152 q 190 394 180 312 q 200 557 200 476 q 191 720 200 638 q 161 882 181 801 q 112 1038 141 963 q 43 1186 83 1114 l 298 1186 q 486 557 486 865 q 463 340 486 448 q 398 129 440 233 q 298 -71 355 25 l 43 -71 m 272 -30 q 361 156 329 68 q 418 345 394 244 q 441 559 443 445 q 272 1145 443 844 l 115 1145 q 174 987 153 1055 q 211 850 196 920 q 233 707 226 781 q 245 559 239 632 q 235 401 242 477 q 214 260 229 326 q 178 127 199 195 q 112 -30 158 60 l 272 -30 z "},"_":{"ha":977,"x_min":7,"x_max":977,"o":"m 679 292 l 679 490 l 977 490 l 977 0 l 555 0 q 276 57 401 0 q 79 227 151 113 q 7 504 7 340 q 50 710 7 619 q 169 860 93 800 q 323 957 245 920 q 553 1001 401 993 q 793 963 711 993 q 960 854 876 933 l 768 640 q 681 699 719 681 q 556 722 643 716 q 433 685 472 711 q 363 618 393 659 q 326 494 334 578 q 363 376 334 410 q 438 320 393 342 q 534 293 483 298 q 679 292 586 288 m 898 849 q 777 925 852 901 q 553 958 703 949 q 337 920 411 955 q 199 830 263 884 q 92 694 134 776 q 47 501 50 613 q 96 297 62 363 q 176 183 130 231 q 324 90 222 136 q 553 41 426 43 l 936 41 l 936 449 l 720 449 l 720 251 q 556 239 681 236 q 407 278 456 252 q 317 355 358 304 q 277 500 277 407 q 316 647 277 597 q 406 726 355 697 q 563 761 456 755 q 764 697 678 765 l 898 849 m 845 846 l 758 745 q 566 796 700 795 q 385 762 442 793 q 279 671 327 731 q 225 500 232 610 q 280 334 227 396 q 389 246 334 273 q 557 202 444 220 q 757 221 703 198 l 757 406 l 897 406 l 897 79 l 553 79 q 366 117 442 83 q 230 203 289 152 q 130 319 171 254 q 84 500 88 384 q 132 683 90 606 q 229 807 174 760 q 354 886 285 854 q 555 922 423 917 q 762 892 697 914 q 845 846 827 871 z "},"+":{"ha":987,"x_min":0,"x_max":1028,"o":"m 0 979 l 1028 979 l 1028 939 l 0 939 l 0 979 m 1028 688 l 0 688 l 0 728 l 1028 728 l 1028 688 m 0 898 l 1028 898 l 1028 769 l 0 769 l 0 898 z "},"Q":{"ha":1112,"x_min":7,"x_max":1112,"o":"m 1055 499 q 1016 740 1067 640 q 846 893 964 840 q 566 947 728 947 q 348 916 444 947 q 185 827 252 886 q 84 683 119 769 q 47 485 50 597 q 110 233 50 336 q 287 77 170 130 q 566 24 404 24 l 1071 41 l 1112 41 l 1112 0 l 529 -17 q 308 19 404 -14 q 144 116 212 52 q 41 275 76 181 q 7 489 7 368 q 43 701 7 612 q 148 854 79 789 q 315 952 217 920 q 564 989 412 985 q 837 941 719 985 q 1029 798 955 898 q 1096 499 1104 697 q 1031 342 1080 410 q 1083 292 982 275 l 1112 292 l 1112 251 l 1071 251 q 970 307 951 258 q 1012 388 989 357 q 1055 499 1035 419 m 338 477 q 562 723 338 723 q 749 649 705 723 q 798 477 793 574 q 778 333 793 406 q 562 280 762 260 l 562 229 q 384 302 429 229 q 338 477 338 376 m 374 476 q 411 330 374 393 q 559 267 448 267 l 559 310 q 737 355 724 294 q 753 476 750 416 q 713 623 750 560 q 559 685 677 685 q 374 476 374 685 m 1009 496 q 968 395 987 426 q 930 298 949 363 q 1029 210 911 233 l 1111 210 l 1111 81 l 568 64 q 316 113 422 64 q 157 254 211 161 q 101 483 104 347 q 135 662 104 585 q 225 793 165 740 q 372 873 285 846 q 568 901 459 901 q 821 852 715 901 q 974 713 927 804 q 1009 496 1020 623 m 298 477 q 350 270 298 357 q 557 182 402 182 l 557 244 q 808 307 791 220 q 833 477 826 393 q 775 680 826 593 q 557 768 724 768 q 298 477 298 768 z "},"W":{"ha":1310,"x_min":41,"x_max":1310,"o":"m 41 939 l 41 979 l 283 979 l 418 556 l 534 979 l 827 979 l 964 556 l 1055 979 l 1310 979 l 1310 939 l 1087 939 l 987 515 l 941 515 l 800 939 l 569 939 l 447 515 l 389 515 l 254 939 l 41 939 m 1270 728 l 1310 728 l 1310 688 l 1302 688 l 1128 0 l 809 0 l 685 415 l 582 0 l 263 0 l 49 688 l 41 688 l 41 728 l 81 728 l 297 41 l 551 41 l 658 455 l 713 455 l 840 41 l 1098 41 l 1270 728 m 41 898 l 224 898 l 362 480 l 469 480 l 602 900 l 772 900 l 917 481 l 1007 481 l 1113 898 l 1310 898 l 1310 769 l 1238 769 l 1069 75 l 868 75 l 738 491 l 631 491 l 517 81 l 328 81 l 113 769 l 41 769 l 41 898 z "},"E":{"ha":922,"x_min":41,"x_max":922,"o":"m 41 939 l 41 979 l 882 979 l 882 939 l 41 939 m 81 251 l 41 251 l 41 728 l 81 728 l 81 251 m 882 728 l 882 688 l 359 688 l 359 575 l 696 575 l 696 404 l 359 404 l 359 292 l 922 292 l 922 251 l 319 251 l 319 444 l 655 444 l 655 534 l 319 534 l 319 728 l 882 728 m 922 41 l 922 0 l 41 0 l 41 41 l 922 41 m 41 898 l 882 898 l 882 769 l 285 769 l 285 507 l 613 507 l 613 471 l 283 471 l 283 212 l 922 210 l 922 81 l 41 81 l 41 210 l 123 210 l 123 769 l 41 769 l 41 898 z "},"R":{"ha":1051,"x_min":41,"x_max":1051,"o":"m 41 939 l 41 979 l 678 979 q 867 921 796 968 q 964 829 939 873 q 1001 722 990 785 q 987 583 1012 658 q 901 460 962 507 q 726 385 840 412 l 799 292 l 1051 292 l 1051 251 l 775 251 l 685 381 l 685 391 q 876 490 825 447 q 948 594 927 532 q 962 712 970 656 q 933 805 954 768 q 847 886 911 842 q 678 939 783 929 l 41 939 m 378 752 l 652 752 q 696 731 670 752 q 728 642 723 709 q 700 555 725 572 q 652 537 674 537 l 378 537 l 378 752 m 420 713 l 420 574 l 629 574 q 666 586 646 574 q 687 643 686 597 q 663 699 684 685 q 629 713 642 713 l 420 713 m 41 41 l 354 41 l 354 364 l 420 364 l 729 41 l 1051 41 l 1051 0 l 705 0 l 395 323 l 395 0 l 41 0 l 41 41 m 81 728 l 81 251 l 41 251 l 41 728 l 81 728 m 342 790 l 342 494 l 678 494 q 736 518 705 494 q 771 639 767 543 q 732 761 765 732 q 677 790 700 790 l 342 790 m 41 81 l 41 210 l 123 210 l 123 769 l 41 769 l 41 898 l 678 898 q 827 852 772 890 q 901 783 883 814 q 925 703 920 751 q 914 604 930 655 q 858 518 898 553 q 646 395 818 483 l 646 377 l 765 212 l 1051 210 l 1051 81 l 750 81 l 452 407 l 315 407 l 315 81 l 41 81 z "},"T":{"ha":859,"x_min":0,"x_max":859,"o":"m 311 41 l 548 41 l 548 728 l 859 728 l 859 688 l 589 688 l 589 0 l 270 0 l 270 688 l 0 688 l 0 728 l 311 728 l 311 41 m 0 979 l 859 979 l 859 939 l 0 939 l 0 979 m 363 769 l 0 769 l 0 898 l 859 898 l 859 769 l 510 769 l 510 90 l 363 90 l 363 769 z "},"Y":{"ha":857,"x_min":41,"x_max":857,"o":"m 41 939 l 41 979 l 248 979 l 448 677 l 650 979 l 857 979 l 857 939 l 677 939 l 471 636 l 427 636 l 227 939 l 41 939 m 857 728 l 857 688 l 840 688 l 609 359 l 609 0 l 289 0 l 289 359 l 58 688 l 41 688 l 41 728 l 81 728 l 331 372 l 331 41 l 570 41 l 570 372 l 817 728 l 857 728 m 41 898 l 205 898 l 411 597 l 492 597 l 697 898 l 857 898 l 857 769 l 802 769 l 533 382 l 533 79 l 380 79 l 380 380 l 108 769 l 41 769 l 41 898 z "},"U":{"ha":1013,"x_min":41,"x_max":1013,"o":"m 359 979 l 359 400 q 400 263 360 302 q 529 221 439 224 q 649 263 601 222 q 694 400 697 304 l 694 979 l 1013 979 l 1013 939 l 735 939 l 735 400 q 689 243 737 297 q 529 180 642 190 q 366 237 411 184 q 319 400 320 290 l 319 939 l 41 939 l 41 979 l 359 979 m 972 728 l 1013 728 l 1013 405 q 973 210 1011 283 q 876 88 935 137 q 729 12 817 39 q 532 -18 640 -15 q 348 7 441 -16 q 185 79 255 30 q 78 204 116 127 q 41 404 41 281 l 41 728 l 81 728 l 81 404 q 119 223 88 283 q 211 117 149 163 q 359 48 273 71 q 532 23 446 26 q 718 54 633 27 q 852 124 802 80 q 937 229 903 168 q 972 405 970 289 l 972 728 m 41 898 l 283 898 l 283 401 q 336 214 283 282 q 528 145 388 146 q 717 219 661 153 q 772 401 773 285 l 772 898 l 1013 898 l 1013 769 l 937 769 l 937 405 q 904 244 931 296 q 832 156 876 193 q 708 91 789 119 q 533 60 628 64 q 371 83 453 62 q 235 148 290 104 q 155 237 180 191 q 123 404 130 283 l 123 769 l 41 769 l 41 898 z "},"I":{"ha":952,"x_min":41,"x_max":952,"o":"m 41 939 l 41 979 l 359 979 l 359 661 l 583 979 l 902 979 l 537 490 l 849 3 q 952 -56 891 -60 l 952 -97 q 833 -33 871 -99 l 496 483 l 496 494 l 824 939 l 604 939 l 387 620 l 319 620 l 319 939 l 41 939 m 81 728 l 81 251 l 41 251 l 41 728 l 81 728 m 41 0 l 41 41 l 319 41 l 319 332 l 375 332 l 732 -190 q 952 -307 807 -309 l 952 -347 q 713 -225 783 -349 l 359 292 l 359 0 l 41 0 m 41 898 l 278 898 l 278 584 l 404 584 l 622 901 l 745 901 l 461 496 l 461 477 l 811 -60 q 952 -137 853 -133 l 952 -266 q 749 -152 827 -274 l 391 369 l 281 369 l 281 81 l 41 81 l 41 210 l 123 210 l 123 769 l 41 769 l 41 898 z "},"O":{"ha":1051,"x_min":41,"x_max":1051,"o":"m 41 939 l 41 979 l 678 979 q 867 921 796 968 q 964 829 939 873 q 1001 722 990 785 q 987 583 1012 658 q 901 460 962 507 q 726 385 840 412 l 978 -27 q 1051 -56 1002 -57 l 1051 -96 q 958 -61 982 -99 l 685 377 l 685 393 q 876 490 825 447 q 948 594 927 532 q 962 712 970 656 q 933 805 954 768 q 847 886 911 842 q 678 939 783 929 l 41 939 m 378 752 l 652 752 q 696 731 670 752 q 728 642 723 709 q 700 555 725 572 q 652 537 674 537 l 378 537 l 378 752 m 420 713 l 420 574 l 629 574 q 666 586 646 574 q 687 643 686 597 q 663 699 684 685 q 629 713 642 713 l 420 713 m 41 41 l 354 41 l 354 364 l 420 364 l 817 -228 q 1051 -307 879 -309 l 1051 -347 q 798 -271 858 -349 l 395 323 l 395 0 l 41 0 l 41 41 m 81 728 l 81 251 l 41 251 l 41 728 l 81 728 m 41 81 l 41 210 l 123 210 l 123 769 l 41 769 l 41 898 l 678 898 q 827 852 772 890 q 901 783 883 814 q 925 703 920 751 q 914 604 930 655 q 858 518 898 553 q 646 395 818 483 l 646 377 l 939 -92 q 1051 -137 965 -138 l 1051 -266 q 833 -187 897 -271 l 452 407 l 315 407 l 315 81 l 41 81 m 342 790 l 342 494 l 678 494 q 736 518 705 494 q 771 639 767 543 q 732 761 765 732 q 677 790 700 790 l 342 790 z "},"P":{"ha":1018,"x_min":41,"x_max":1012,"o":"m 41 0 l 41 41 l 354 41 l 354 364 l 701 364 q 878 439 817 388 q 959 557 939 490 q 968 686 979 625 q 935 791 956 746 q 852 880 914 836 q 678 939 791 925 l 41 939 l 41 979 l 678 979 q 869 918 796 964 q 971 806 941 872 q 1006 692 1001 739 q 1009 600 1012 646 q 989 508 1006 555 q 898 401 972 461 q 701 323 823 342 l 395 323 l 395 0 l 41 0 m 378 752 l 652 752 q 696 731 670 752 q 728 642 723 709 q 700 555 725 572 q 652 537 674 537 l 378 537 l 378 752 m 420 713 l 420 574 l 629 574 q 666 586 646 574 q 687 643 686 597 q 663 699 684 685 q 629 713 642 713 l 420 713 m 81 728 l 81 251 l 41 251 l 41 728 l 81 728 m 41 81 l 41 210 l 123 210 l 123 769 l 41 769 l 41 898 l 678 898 q 821 842 768 876 q 894 770 873 808 q 922 678 914 732 q 916 571 930 624 q 854 476 901 518 q 700 407 808 434 l 315 407 l 315 81 l 41 81 m 342 790 l 342 494 l 678 494 q 736 518 705 494 q 771 639 767 543 q 732 761 765 732 q 677 790 700 790 l 342 790 z "},"{":{"ha":0,"x_min":-163,"x_max":41,"o":"m 41 251 l -122 251 l -122 41 l 41 41 l 41 0 l -163 0 l -163 292 l 41 292 l 41 251 m 41 81 l -81 81 l -81 210 l 41 210 l 41 81 z "},"}":{"ha":0,"x_min":0,"x_max":203,"o":"m 0 292 l 203 292 l 203 0 l 0 0 l 0 41 l 163 41 l 163 251 l 0 251 l 0 292 m 122 210 l 0 210 l 0 81 l 122 81 l 122 210 z "},"|":{"ha":0,"x_min":-1313,"x_max":-1109,"o":"m -1109 -96 l -1272 -96 l -1272 -307 l -1109 -307 l -1109 -347 l -1313 -347 l -1313 -56 l -1109 -56 l -1109 -96 m -1109 -266 l -1232 -266 l -1232 -137 l -1109 -137 l -1109 -266 z "},"A":{"ha":1012,"x_min":41,"x_max":1012,"o":"m 41 41 l 292 41 l 354 217 l 699 217 l 761 41 l 1012 41 l 1012 0 l 734 0 l 671 176 l 381 176 l 319 0 l 41 0 l 41 41 m 1004 292 l 1012 292 l 1012 251 l 971 251 l 750 939 l 323 939 l 83 251 l 41 251 l 41 292 l 49 292 l 289 979 l 784 979 l 1004 292 m 448 415 l 609 415 l 534 633 l 448 415 m 41 81 l 41 210 l 127 210 l 353 892 l 708 892 l 938 210 l 1012 210 l 1012 81 l 794 81 l 719 260 l 320 260 l 259 81 l 41 81 m 533 717 l 659 385 l 397 385 l 533 717 m 537 801 l 346 346 l 718 346 l 537 801 z "},"S":{"ha":770,"x_min":19,"x_max":770,"o":"m 770 979 l 770 939 l 277 939 q 99 788 136 936 q 293 426 62 640 q 206 251 464 258 l 41 251 l 41 292 l 206 292 q 255 399 398 286 q 54 798 19 616 q 277 979 90 979 l 770 979 m 770 688 l 572 688 q 521 591 398 693 q 736 217 741 399 q 521 0 732 35 l 41 0 l 41 41 l 521 41 q 694 236 700 79 q 456 591 689 393 q 572 728 347 732 l 770 728 l 770 688 m 41 210 l 207 210 q 331 452 525 231 q 142 784 115 669 q 277 898 170 899 l 770 898 l 770 769 l 572 769 q 397 593 289 777 q 657 252 644 387 q 523 81 670 118 l 41 81 l 41 210 z "},"D":{"ha":1127,"x_min":41,"x_max":1120,"o":"m 41 41 l 602 41 q 835 73 765 45 q 951 143 905 100 q 1036 269 997 186 q 1080 490 1076 353 q 1060 660 1074 621 q 1023 743 1046 699 q 954 833 1001 787 q 821 910 906 879 q 618 939 736 941 l 41 939 l 41 979 l 618 979 q 826 950 736 979 q 978 866 917 921 q 1079 721 1038 811 q 1120 490 1120 631 q 1076 259 1113 353 q 977 111 1038 165 q 826 27 915 57 q 602 0 736 -3 l 41 0 l 41 41 m 41 251 l 41 728 l 81 728 l 81 251 l 41 251 m 41 81 l 41 210 l 123 210 l 123 769 l 41 769 l 41 898 l 618 898 q 808 872 728 898 q 930 805 888 846 q 993 724 973 764 q 1024 647 1013 684 q 1043 489 1036 609 q 1002 278 1040 353 q 930 170 963 203 q 839 111 897 137 q 602 81 781 85 l 41 81 m 305 770 l 305 198 l 536 198 q 664 230 616 198 q 743 310 713 261 q 781 485 772 359 q 747 654 779 599 q 665 739 715 709 q 535 770 616 770 l 305 770 m 349 728 l 537 728 q 644 702 603 728 q 710 628 684 675 q 739 481 736 580 q 707 330 731 372 q 643 260 682 288 q 538 233 603 233 l 349 233 l 349 728 m 389 682 l 389 274 l 534 274 q 625 300 596 276 q 668 352 654 324 q 690 478 683 379 q 669 596 685 561 q 623 656 652 631 q 534 682 593 682 l 389 682 z "},"F":{"ha":882,"x_min":41,"x_max":882,"o":"m 41 939 l 41 979 l 882 979 l 882 939 l 41 939 m 81 251 l 41 251 l 41 728 l 81 728 l 81 251 m 319 41 l 319 444 l 655 444 l 655 534 l 319 534 l 319 728 l 882 728 l 882 688 l 359 688 l 359 575 l 696 575 l 696 404 l 359 404 l 359 0 l 41 0 l 41 41 l 319 41 m 41 898 l 882 898 l 882 769 l 285 769 l 285 507 l 613 507 l 613 471 l 285 471 l 285 81 l 41 81 l 41 210 l 123 210 l 123 769 l 41 769 l 41 898 z "},"G":{"ha":1006,"x_min":7,"x_max":1006,"o":"m 1006 728 l 1006 688 l 700 688 q 547 682 597 688 q 459 661 498 675 q 391 612 420 647 q 356 487 361 576 q 391 363 359 400 q 467 313 422 326 q 559 296 511 301 q 700 292 606 292 l 700 490 l 1006 490 l 1006 0 l 572 0 q 284 57 413 0 q 81 227 155 113 q 7 504 7 340 q 51 710 7 619 q 174 860 96 800 q 355 950 253 920 q 572 979 457 979 l 1006 979 l 1006 939 l 572 939 q 369 912 461 937 q 205 831 277 887 q 92 694 134 776 q 47 504 50 613 q 117 247 46 350 q 307 94 187 144 q 572 41 426 43 l 966 41 l 966 449 l 741 449 l 741 251 l 700 251 q 553 256 608 250 q 446 276 499 262 q 357 339 393 290 q 315 487 321 388 q 361 640 323 601 q 444 696 400 678 q 542 720 488 713 q 700 728 596 726 l 1006 728 m 1006 898 l 1006 769 l 701 769 q 538 762 598 769 q 425 734 477 754 q 327 669 372 713 q 274 488 282 624 q 326 320 282 377 q 431 244 369 263 q 551 218 492 225 q 703 212 610 212 l 779 212 l 779 410 l 930 410 l 930 81 l 572 81 q 330 129 439 81 q 153 269 220 176 q 87 505 87 361 q 130 681 92 608 q 235 803 168 754 q 385 873 301 852 q 573 898 469 895 l 1006 898 z "},"H":{"ha":935,"x_min":41,"x_max":935,"o":"m 616 642 l 616 979 l 935 979 l 935 939 l 656 939 l 656 601 l 319 601 l 319 939 l 41 939 l 41 979 l 359 979 l 359 642 l 616 642 m 41 251 l 41 728 l 81 728 l 81 251 l 41 251 m 935 728 l 935 251 l 894 251 l 894 728 l 935 728 m 935 41 l 935 0 l 616 0 l 616 353 l 359 353 l 359 0 l 41 0 l 41 41 l 319 41 l 319 393 l 656 393 l 656 41 l 935 41 m 41 898 l 281 898 l 281 559 l 697 559 l 698 898 l 935 898 l 935 769 l 854 769 l 854 210 l 935 210 l 935 81 l 697 81 l 697 429 l 281 429 l 281 81 l 41 81 l 41 210 l 123 210 l 123 769 l 41 769 l 41 898 z "},"J":{"ha":595,"x_min":0,"x_max":595,"o":"m 262 939 l 262 84 q 237 -22 257 7 q 182 -68 217 -50 q 112 -92 148 -87 q 0 -96 76 -98 l 0 -56 q 96 -52 60 -57 q 157 -34 132 -46 q 197 1 182 -22 q 221 84 213 23 l 221 979 l 595 979 l 595 939 l 262 939 m 0 -347 l 0 -307 q 164 -301 102 -307 q 302 -274 227 -296 q 420 -216 377 -252 q 478 -142 463 -180 q 499 -5 494 -104 l 499 728 l 595 728 l 595 688 l 540 688 l 540 -5 q 515 -164 536 -118 q 443 -251 495 -210 q 312 -313 391 -292 q 170 -340 233 -334 q 0 -347 106 -347 m 298 898 l 595 898 l 595 769 l 463 769 l 463 -5 q 444 -122 456 -92 q 398 -183 432 -153 q 292 -235 365 -213 q 159 -261 220 -256 q 0 -266 98 -266 l 0 -137 q 129 -131 94 -138 q 208 -102 165 -123 q 271 -43 250 -80 q 298 84 292 -7 l 298 898 z "},"K":{"ha":952,"x_min":41,"x_max":952,"o":"m 41 939 l 41 979 l 359 979 l 359 661 l 583 979 l 902 979 l 537 490 l 700 292 l 952 292 l 952 251 l 680 251 l 496 484 l 496 492 l 824 939 l 604 939 l 387 620 l 319 620 l 319 939 l 41 939 m 81 728 l 81 251 l 41 251 l 41 728 l 81 728 m 41 0 l 41 41 l 319 41 l 319 332 l 375 332 l 627 41 l 952 41 l 952 0 l 606 0 l 359 292 l 359 0 l 41 0 m 41 898 l 278 898 l 278 584 l 404 584 l 622 901 l 745 901 l 461 495 l 461 481 l 661 210 l 952 210 l 952 81 l 647 81 l 391 369 l 281 369 l 281 81 l 41 81 l 41 210 l 123 210 l 123 769 l 41 769 l 41 898 z "},"L":{"ha":890,"x_min":41,"x_max":890,"o":"m 41 939 l 41 979 l 359 979 l 359 292 l 890 292 l 890 251 l 319 251 l 319 939 l 41 939 m 41 728 l 81 728 l 81 251 l 41 251 l 41 728 m 41 41 l 890 41 l 890 0 l 41 0 l 41 41 m 41 898 l 283 898 l 283 210 l 890 210 l 890 81 l 41 81 l 41 210 l 123 210 l 123 769 l 41 769 l 41 898 z "},":":{"ha":514,"x_min":106,"x_max":408,"o":"m 106 0 l 106 269 l 408 269 l 408 0 l 106 0 m 106 461 l 106 730 l 408 730 l 408 461 l 106 461 m 146 226 l 146 38 l 371 38 l 371 226 l 146 226 m 146 690 l 146 502 l 371 502 l 371 690 l 146 690 m 186 541 l 186 659 l 332 659 l 332 541 l 186 541 m 184 66 l 184 195 l 334 195 l 334 66 l 184 66 z "},"\"":{"ha":772,"x_min":134,"x_max":639,"o":"m 431 551 l 431 979 l 639 979 l 639 551 l 431 551 m 474 593 l 601 593 l 601 940 l 474 940 l 474 593 m 134 551 l 134 979 l 342 979 l 342 551 l 134 551 m 511 638 l 511 904 l 566 904 l 566 638 l 511 638 m 174 592 l 301 592 l 301 939 l 174 939 l 174 592 m 212 633 l 212 899 l 268 899 l 268 633 l 212 633 z "},"Z":{"ha":936,"x_min":41,"x_max":936,"o":"m 41 939 l 41 979 l 936 979 l 936 688 l 462 292 l 936 292 l 936 251 l 421 251 l 421 309 l 895 701 l 895 939 l 41 939 m 936 0 l 41 0 l 41 292 l 515 688 l 41 688 l 41 728 l 553 728 l 553 671 l 81 273 l 81 41 l 936 41 l 936 0 m 41 898 l 856 898 l 856 718 l 384 334 l 384 210 l 936 210 l 936 81 l 119 81 l 119 259 l 587 655 l 587 769 l 41 769 l 41 898 z "},"X":{"ha":846,"x_min":41,"x_max":846,"o":"m 41 939 l 41 979 l 241 979 l 441 677 l 643 979 l 846 979 l 846 939 l 669 939 l 463 636 l 419 636 l 218 939 l 41 939 m 846 0 l 643 0 l 441 302 l 241 0 l 41 0 l 41 41 l 222 41 l 416 343 l 471 343 l 666 41 l 846 41 l 846 0 m 41 251 l 41 292 l 49 292 l 214 490 l 49 688 l 41 688 l 41 728 l 81 728 l 255 517 l 255 469 l 81 251 l 41 251 m 846 251 l 846 292 l 838 292 l 673 490 l 838 688 l 846 688 l 846 728 l 806 728 l 632 517 l 632 469 l 806 251 l 846 251 m 41 898 l 196 898 l 400 605 l 481 605 l 685 898 l 846 898 l 846 769 l 772 769 l 593 540 l 593 453 l 782 210 l 846 210 l 846 81 l 696 81 l 494 380 l 395 380 l 202 81 l 41 81 l 41 210 l 111 210 l 290 456 l 290 537 l 110 769 l 41 769 l 41 898 z "},"C":{"ha":1006,"x_min":7,"x_max":1006,"o":"m 1006 939 l 572 939 q 369 912 461 937 q 205 831 277 887 q 92 694 134 776 q 47 504 50 613 q 117 247 46 350 q 307 94 187 144 q 572 41 426 43 l 1006 41 l 1006 0 l 572 0 q 284 57 413 0 q 81 227 155 113 q 7 504 7 340 q 51 710 7 619 q 174 860 96 800 q 355 950 253 920 q 572 979 457 979 l 1006 979 l 1006 939 m 1006 728 l 1006 688 l 700 688 q 547 682 597 688 q 459 661 498 675 q 391 612 420 647 q 356 487 361 576 q 391 363 359 400 q 467 313 422 326 q 559 296 511 301 q 700 292 606 292 l 1006 292 l 1006 251 l 700 251 q 553 256 608 250 q 446 276 499 262 q 357 339 393 290 q 315 487 321 388 q 361 640 323 601 q 444 696 400 678 q 542 720 488 713 q 700 728 596 726 l 1006 728 m 1006 901 l 1006 770 l 700 770 q 538 762 598 769 q 425 734 477 754 q 327 669 372 713 q 274 488 282 624 q 326 320 282 377 q 431 244 369 263 q 551 218 492 225 q 703 212 610 212 l 1006 212 l 1006 81 l 572 81 q 330 129 439 81 q 153 269 220 176 q 87 505 87 361 q 130 681 92 608 q 235 803 168 754 q 385 873 301 852 q 575 901 469 895 l 1006 901 z "},"V":{"ha":1076,"x_min":41,"x_max":1076,"o":"m 41 979 l 325 979 l 547 227 l 772 979 l 1076 979 l 1076 939 l 802 939 l 578 186 l 519 186 l 293 939 l 41 939 l 41 979 m 816 0 l 296 0 l 49 688 l 41 688 l 41 728 l 83 728 l 321 41 l 791 41 l 1039 728 l 1076 728 l 1076 688 l 1067 688 l 816 0 m 73 898 l 259 898 l 490 144 l 606 144 l 833 898 l 1076 898 l 1076 769 l 1017 769 l 764 78 l 346 78 l 116 769 l 41 769 l 41 898 l 73 898 z "},"B":{"ha":1104,"x_min":41,"x_max":1097,"o":"m 41 939 l 41 979 l 709 979 q 953 924 869 978 q 1055 742 1037 869 q 1013 589 1061 644 q 857 497 966 533 l 857 494 q 956 466 910 488 q 1032 413 1001 444 q 1080 345 1063 383 q 1097 271 1097 307 q 1037 95 1097 155 q 885 17 978 35 q 659 0 791 -1 l 41 0 l 41 41 l 659 41 q 878 56 789 38 q 1013 126 966 73 q 1056 271 1059 180 q 1040 337 1056 307 q 1003 394 1025 368 q 941 441 982 420 q 823 494 901 461 l 823 499 q 974 600 928 551 q 1014 742 1021 648 q 926 893 999 849 q 709 939 854 937 l 41 939 m 81 728 l 81 251 l 41 251 l 41 728 l 81 728 m 41 81 l 41 210 l 125 210 l 125 769 l 41 769 l 41 898 l 709 898 q 901 863 840 898 q 978 742 962 827 q 945 614 983 655 q 789 496 907 574 q 948 390 892 437 q 1019 271 1004 343 q 987 160 1021 204 q 871 99 954 115 q 660 81 789 82 l 41 81 m 332 782 l 332 549 l 591 549 q 710 581 661 547 q 760 664 760 614 q 714 751 763 722 q 591 782 665 781 l 332 782 m 376 746 l 578 746 q 673 726 635 746 q 709 667 711 706 q 675 611 711 632 q 578 589 640 590 l 376 589 l 376 746 m 412 711 l 412 629 l 578 629 q 671 667 662 629 q 578 711 654 711 l 412 711 m 330 422 l 330 159 l 616 159 q 747 189 696 157 q 802 289 798 220 q 749 390 798 356 q 616 422 701 423 l 330 422 m 365 387 l 599 387 q 709 364 667 389 q 751 291 751 340 q 718 215 751 237 q 599 195 684 193 l 365 195 l 365 387 m 393 347 l 393 236 l 610 236 q 713 290 705 231 q 613 347 708 347 l 393 347 z "},"N":{"ha":970,"x_min":41,"x_max":970,"o":"m 41 939 l 41 979 l 359 979 l 651 613 l 651 979 l 970 979 l 970 939 l 692 939 l 692 574 l 627 574 l 342 939 l 41 939 m 970 41 l 970 0 l 651 0 l 359 366 l 359 0 l 41 0 l 41 41 l 319 41 l 319 407 l 383 407 l 675 41 l 970 41 m 970 728 l 970 251 l 929 251 l 929 728 l 970 728 m 81 728 l 81 251 l 41 251 l 41 728 l 81 728 m 41 898 l 321 898 l 605 533 l 736 533 l 736 898 l 970 898 l 970 769 l 888 769 l 888 210 l 970 210 l 970 81 l 699 81 l 406 446 l 286 446 l 286 81 l 41 81 l 41 210 l 123 210 l 123 769 l 41 769 l 41 898 z "},"M":{"ha":1105,"x_min":41,"x_max":1105,"o":"m 41 979 l 359 979 l 574 572 l 787 979 l 1105 979 l 1105 939 l 810 939 l 578 515 l 572 515 l 336 939 l 41 939 l 41 979 m 1105 41 l 1105 0 l 787 0 l 787 407 l 582 0 l 564 0 l 359 407 l 359 0 l 41 0 l 41 41 l 319 41 l 319 452 l 381 452 l 571 57 l 764 448 l 827 448 l 827 41 l 1105 41 m 1105 728 l 1105 251 l 1065 251 l 1065 728 l 1105 728 m 81 728 l 81 251 l 41 251 l 41 728 l 81 728 m 41 898 l 312 898 l 570 469 l 583 469 l 840 898 l 1105 898 l 1105 769 l 1023 769 l 1023 210 l 1105 210 l 1105 81 l 868 81 l 868 491 l 741 491 l 572 141 l 401 494 l 279 494 l 279 81 l 41 81 l 41 210 l 123 210 l 123 769 l 41 769 l 41 898 z "},"<":{"ha":0,"x_min":-1109,"x_max":0,"o":"m -1109 -56 l 0 -56 l 0 -96 l -1109 -96 l -1109 -56 m -1109 -307 l 0 -307 l 0 -347 l -1109 -347 l -1109 -307 m -1109 -137 l 0 -137 l 0 -266 l -1109 -266 l -1109 -137 z "},">":{"ha":0,"x_min":0,"x_max":1109,"o":"m 1109 -96 l 0 -96 l 0 -56 l 1109 -56 l 1109 -96 m 1109 -347 l 0 -347 l 0 -307 l 1109 -307 l 1109 -347 m 1109 -137 l 1109 -266 l 0 -266 l 0 -137 l 1109 -137 z "},"?":{"ha":798,"x_min":57,"x_max":741,"o":"m 426 445 l 294 445 q 346 526 317 503 q 420 591 374 549 q 464 694 467 633 q 406 801 465 769 q 251 830 347 833 q 130 810 186 826 l 130 879 q 228 909 170 896 q 361 922 285 922 q 509 905 438 920 q 618 852 579 890 q 666 760 658 814 q 632 668 655 699 q 552 593 608 637 q 465 516 495 549 q 426 445 434 482 m 192 261 l 494 261 l 494 0 l 192 0 l 192 261 m 229 226 l 229 38 l 456 38 l 456 226 l 229 226 m 482 363 l 204 363 q 236 511 210 460 q 297 588 262 562 q 360 636 331 613 q 390 694 390 659 q 355 741 390 730 q 253 751 319 751 q 151 738 206 751 q 57 705 96 724 l 57 945 q 207 983 137 970 q 359 996 277 996 q 529 976 442 996 q 678 904 616 957 q 741 760 741 851 q 708 643 741 689 q 608 542 675 596 q 512 452 541 488 q 482 363 482 417 m 266 69 l 266 197 l 416 197 l 416 69 l 266 69 m 448 403 q 481 475 446 435 q 579 568 515 515 q 669 656 643 620 q 700 760 696 693 q 644 876 693 830 q 517 939 594 921 q 359 955 439 956 q 216 943 282 956 q 98 905 149 929 l 98 766 q 155 782 114 773 q 252 792 195 791 q 382 774 334 796 q 431 694 430 753 q 393 610 429 640 q 327 557 357 579 q 273 496 297 534 q 241 403 250 457 l 448 403 z "},"":{"ha":439,"x_min":115,"x_max":323,"o":"m 321 553 m 251 751 l 189 818 l 189 898 l 251 898 l 251 751 m 323 552 l 115 765 l 115 979 l 323 979 l 323 552 m 283 659 l 283 939 l 156 939 l 156 788 l 283 659 z "},"":{"ha":439,"x_min":115,"x_max":323,"o":"m 282 788 l 282 939 l 155 939 l 155 659 l 282 788 m 115 979 l 323 979 l 323 765 l 115 552 l 115 979 m 188 898 l 250 898 l 250 808 l 187 743 l 188 898 z "},"":{"ha":772,"x_min":134,"x_max":639,"o":"m 637 553 m 340 553 m 342 552 l 134 765 l 134 979 l 342 979 l 342 552 m 639 552 l 431 765 l 431 979 l 639 979 l 639 552 m 598 659 l 598 939 l 471 939 l 471 788 l 598 659 m 301 659 l 301 939 l 174 939 l 174 788 l 301 659 m 269 746 l 206 810 l 206 899 l 269 899 l 269 746 m 566 745 l 503 812 l 503 905 l 566 905 l 566 745 z "},"":{"ha":772,"x_min":133,"x_max":638,"o":"m 430 979 l 638 979 l 638 765 l 430 552 l 430 979 m 133 979 l 341 979 l 341 765 l 133 552 l 133 979 m 300 788 l 300 939 l 174 939 l 174 659 l 300 788 m 597 788 l 597 939 l 471 939 l 471 659 l 597 788 m 204 902 l 267 902 l 266 812 l 203 747 l 204 902 m 503 902 l 565 902 l 564 812 l 502 747 l 503 902 z "},"":{"ha":1012,"x_min":41,"x_max":1012,"o":"m 41 41 l 292 41 l 354 217 l 699 217 l 761 41 l 1012 41 l 1012 0 l 734 0 l 671 176 l 381 176 l 319 0 l 41 0 l 41 41 m 1004 292 l 1012 292 l 1012 251 l 971 251 l 750 939 l 323 939 l 83 251 l 41 251 l 41 292 l 49 292 l 289 979 l 784 979 l 1004 292 m 448 415 l 609 415 l 534 633 l 448 415 m 41 81 l 41 210 l 127 210 l 353 892 l 708 892 l 938 210 l 1012 210 l 1012 81 l 794 81 l 719 260 l 320 260 l 259 81 l 41 81 m 533 717 l 659 385 l 397 385 l 533 717 m 537 801 l 346 346 l 718 346 l 537 801 m 181 1221 l 494 1221 l 614 1005 l 181 1221 m 395 1166 l 498 1119 l 467 1166 l 395 1166 m 326 1181 l 543 1080 l 476 1181 l 326 1181 z "},"":{"ha":1095,"x_min":0,"x_max":1136,"o":"m 0 0 l 322 979 l 808 979 l 1136 0 l 766 0 l 704 176 l 413 176 l 351 0 l 0 0 m 57 41 l 324 41 l 387 217 l 736 217 l 800 41 l 1080 41 l 782 939 l 356 939 l 57 41 m 480 415 l 642 415 l 567 633 l 480 415 m 208 1218 l 522 1218 l 641 1002 l 208 1218 m 342 1181 l 559 1080 l 492 1181 l 342 1181 m 125 90 l 393 895 l 749 895 l 1020 90 l 833 90 l 760 263 l 361 263 l 296 90 l 125 90 m 568 717 l 694 385 l 433 385 l 568 717 m 570 801 l 378 346 l 751 346 l 570 801 m 410 1166 l 513 1119 l 481 1166 l 410 1166 z "},"":{"ha":1012,"x_min":41,"x_max":1012,"o":"m 41 41 l 292 41 l 354 217 l 699 217 l 761 41 l 1012 41 l 1012 0 l 734 0 l 671 176 l 381 176 l 319 0 l 41 0 l 41 41 m 1004 292 l 1012 292 l 1012 251 l 971 251 l 750 939 l 323 939 l 83 251 l 41 251 l 41 292 l 49 292 l 289 979 l 784 979 l 1004 292 m 448 415 l 609 415 l 534 633 l 448 415 m 41 81 l 41 210 l 127 210 l 353 892 l 708 892 l 938 210 l 1012 210 l 1012 81 l 794 81 l 719 260 l 320 260 l 259 81 l 41 81 m 533 717 l 659 385 l 397 385 l 533 717 m 537 801 l 346 346 l 718 346 l 537 801 m 465 1002 l 584 1218 l 897 1218 l 465 1002 m 612 1181 l 548 1080 l 758 1181 l 612 1181 m 696 1166 l 592 1119 l 624 1166 l 696 1166 z "},"":{"ha":1095,"x_min":0,"x_max":1136,"o":"m 0 0 l 322 979 l 808 979 l 1136 0 l 766 0 l 704 176 l 413 176 l 351 0 l 0 0 m 57 41 l 324 41 l 387 217 l 736 217 l 800 41 l 1080 41 l 782 939 l 356 939 l 57 41 m 480 415 l 642 415 l 567 633 l 480 415 m 505 1002 l 625 1218 l 938 1218 l 505 1002 m 650 1181 l 586 1080 l 796 1181 l 650 1181 m 125 90 l 393 895 l 749 895 l 1020 90 l 833 90 l 760 263 l 361 263 l 296 90 l 125 90 m 568 717 l 694 385 l 433 385 l 568 717 m 570 801 l 378 346 l 751 346 l 570 801 m 735 1166 l 631 1119 l 663 1166 l 735 1166 z "},"":{"ha":1012,"x_min":41,"x_max":1012,"o":"m 41 41 l 292 41 l 354 217 l 699 217 l 761 41 l 1012 41 l 1012 0 l 734 0 l 671 176 l 381 176 l 319 0 l 41 0 l 41 41 m 1004 292 l 1012 292 l 1012 251 l 971 251 l 750 939 l 323 939 l 83 251 l 41 251 l 41 292 l 49 292 l 289 979 l 784 979 l 1004 292 m 448 415 l 609 415 l 534 633 l 448 415 m 41 81 l 41 210 l 127 210 l 353 892 l 708 892 l 938 210 l 1012 210 l 1012 81 l 794 81 l 719 260 l 320 260 l 259 81 l 41 81 m 533 717 l 659 385 l 397 385 l 533 717 m 537 801 l 346 346 l 718 346 l 537 801 m 532 1156 l 665 1074 l 532 1191 l 403 1069 l 532 1156 m 723 998 l 535 1116 l 345 1000 l 345 1040 l 534 1232 l 723 1040 l 723 998 z "},"":{"ha":1095,"x_min":0,"x_max":1136,"o":"m 0 0 l 322 979 l 808 979 l 1136 0 l 766 0 l 704 176 l 413 176 l 351 0 l 0 0 m 57 41 l 324 41 l 387 217 l 736 217 l 800 41 l 1080 41 l 782 939 l 356 939 l 57 41 m 480 415 l 642 415 l 567 633 l 480 415 m 755 998 l 568 1116 l 378 1000 l 378 1040 l 566 1232 l 755 1040 l 755 998 m 564 1150 l 697 1069 l 564 1185 l 435 1063 l 564 1150 m 125 90 l 393 895 l 749 895 l 1020 90 l 833 90 l 760 263 l 361 263 l 296 90 l 125 90 m 568 717 l 694 385 l 433 385 l 568 717 m 570 801 l 378 346 l 751 346 l 570 801 z "},"":{"ha":1012,"x_min":41,"x_max":1012,"o":"m 41 41 l 292 41 l 354 217 l 699 217 l 761 41 l 1012 41 l 1012 0 l 734 0 l 671 176 l 381 176 l 319 0 l 41 0 l 41 41 m 1004 292 l 1012 292 l 1012 251 l 971 251 l 750 939 l 323 939 l 83 251 l 41 251 l 41 292 l 49 292 l 289 979 l 784 979 l 1004 292 m 448 415 l 609 415 l 534 633 l 448 415 m 41 81 l 41 210 l 127 210 l 353 892 l 708 892 l 938 210 l 1012 210 l 1012 81 l 794 81 l 719 260 l 320 260 l 259 81 l 41 81 m 533 717 l 659 385 l 397 385 l 533 717 m 537 801 l 346 346 l 718 346 l 537 801 m 789 1109 q 513 1076 627 952 q 341 1086 399 1199 l 300 1118 q 519 1171 400 1301 q 738 1137 637 1042 l 789 1109 m 380 1169 q 462 1156 423 1166 q 566 1076 500 1145 q 708 1085 631 1006 q 592 1075 627 1057 q 503 1151 557 1093 q 380 1169 449 1208 z "},"":{"ha":1095,"x_min":0,"x_max":1136,"o":"m 0 0 l 322 979 l 808 979 l 1136 0 l 766 0 l 704 176 l 413 176 l 351 0 l 0 0 m 57 41 l 324 41 l 387 217 l 736 217 l 800 41 l 1080 41 l 782 939 l 356 939 l 57 41 m 480 415 l 642 415 l 567 633 l 480 415 m 410 1169 q 492 1156 453 1166 q 595 1076 530 1145 q 738 1085 661 1006 q 622 1075 656 1057 q 533 1151 587 1093 q 410 1169 479 1208 m 819 1109 q 543 1076 656 952 q 371 1086 429 1199 l 330 1118 q 549 1171 430 1301 q 768 1137 667 1042 l 819 1109 m 125 90 l 393 895 l 749 895 l 1020 90 l 833 90 l 760 263 l 361 263 l 296 90 l 125 90 m 568 717 l 694 385 l 433 385 l 568 717 m 570 801 l 378 346 l 751 346 l 570 801 z "},"":{"ha":1012,"x_min":41,"x_max":1012,"o":"m 41 41 l 292 41 l 354 217 l 699 217 l 761 41 l 1012 41 l 1012 0 l 734 0 l 671 176 l 381 176 l 319 0 l 41 0 l 41 41 m 1004 292 l 1012 292 l 1012 251 l 971 251 l 750 939 l 323 939 l 83 251 l 41 251 l 41 292 l 49 292 l 289 979 l 784 979 l 1004 292 m 448 415 l 609 415 l 534 633 l 448 415 m 41 81 l 41 210 l 127 210 l 353 892 l 708 892 l 938 210 l 1012 210 l 1012 81 l 794 81 l 719 260 l 320 260 l 259 81 l 41 81 m 533 717 l 659 385 l 397 385 l 533 717 m 537 801 l 346 346 l 718 346 l 537 801 m 428 1196 q 485 1174 463 1196 q 507 1117 507 1151 q 480 1055 503 1076 q 424 1034 458 1034 q 369 1056 391 1034 q 347 1112 347 1078 q 369 1173 347 1150 q 428 1196 391 1196 m 645 1199 q 702 1176 680 1199 q 724 1120 724 1154 q 697 1057 720 1078 q 641 1036 675 1036 q 586 1059 608 1036 q 564 1115 564 1081 q 586 1176 564 1153 q 645 1199 608 1199 m 428 1157 q 394 1144 407 1157 q 382 1110 382 1132 q 394 1079 382 1091 q 425 1066 407 1066 q 458 1078 445 1066 q 473 1113 471 1090 q 460 1144 473 1132 q 428 1157 448 1157 m 645 1160 q 611 1147 624 1160 q 599 1113 599 1135 q 611 1081 599 1094 q 642 1069 624 1069 q 675 1081 662 1069 q 690 1116 688 1093 q 677 1147 690 1135 q 645 1160 665 1160 m 646 1141 q 665 1134 657 1141 q 672 1116 672 1126 q 663 1095 671 1102 q 644 1088 656 1088 q 626 1095 633 1088 q 619 1114 619 1103 q 626 1134 619 1126 q 646 1141 633 1141 m 429 1138 q 448 1131 440 1138 q 455 1113 455 1124 q 446 1092 454 1099 q 427 1085 439 1085 q 409 1093 416 1085 q 402 1111 402 1100 q 409 1131 402 1124 q 429 1138 416 1138 z "},"":{"ha":1095,"x_min":0,"x_max":1136,"o":"m 0 0 l 322 979 l 808 979 l 1136 0 l 766 0 l 704 176 l 413 176 l 351 0 l 0 0 m 57 41 l 324 41 l 387 217 l 736 217 l 800 41 l 1080 41 l 782 939 l 356 939 l 57 41 m 480 415 l 642 415 l 567 633 l 480 415 m 455 1196 q 512 1174 490 1196 q 534 1117 534 1151 q 508 1055 530 1076 q 451 1034 485 1034 q 396 1056 418 1034 q 374 1112 374 1078 q 396 1173 374 1150 q 455 1196 418 1196 m 679 1196 q 735 1174 713 1196 q 758 1117 758 1151 q 731 1055 754 1076 q 675 1034 709 1034 q 620 1056 642 1034 q 597 1112 597 1078 q 620 1173 597 1150 q 679 1196 642 1196 m 455 1157 q 421 1144 434 1157 q 409 1110 409 1132 q 421 1079 409 1091 q 452 1066 434 1066 q 485 1078 472 1066 q 500 1113 498 1090 q 487 1144 500 1132 q 455 1157 475 1157 m 680 1157 q 647 1144 659 1157 q 634 1110 634 1132 q 647 1079 634 1091 q 677 1066 659 1066 q 710 1078 697 1066 q 725 1113 723 1090 q 712 1144 725 1132 q 680 1157 700 1157 m 125 90 l 393 895 l 749 895 l 1020 90 l 833 90 l 760 263 l 361 263 l 296 90 l 125 90 m 568 717 l 694 385 l 433 385 l 568 717 m 570 801 l 378 346 l 751 346 l 570 801 m 454 1138 q 473 1131 466 1138 q 481 1113 481 1124 q 472 1092 479 1099 q 453 1085 465 1085 q 435 1093 442 1085 q 428 1111 428 1100 q 435 1131 428 1124 q 454 1138 442 1138 m 681 1138 q 700 1131 692 1138 q 707 1113 707 1124 q 699 1092 706 1099 q 680 1085 691 1085 q 662 1093 669 1085 q 654 1111 654 1100 q 662 1131 654 1124 q 681 1138 669 1138 z "},"":{"ha":1012,"x_min":41,"x_max":1012,"o":"m 41 41 l 292 41 l 354 217 l 699 217 l 761 41 l 1012 41 l 1012 0 l 734 0 l 671 176 l 381 176 l 319 0 l 41 0 l 41 41 m 1004 292 l 1012 292 l 1012 251 l 971 251 l 750 939 l 323 939 l 83 251 l 41 251 l 41 292 l 49 292 l 289 979 l 784 979 l 1004 292 m 448 415 l 609 415 l 534 633 l 448 415 m 41 81 l 41 210 l 127 210 l 353 892 l 708 892 l 938 210 l 1012 210 l 1012 81 l 794 81 l 719 260 l 320 260 l 259 81 l 41 81 m 533 717 l 659 385 l 397 385 l 533 717 m 537 801 l 346 346 l 718 346 l 537 801 m 533 1253 q 626 1216 589 1253 q 663 1124 663 1179 q 623 1028 663 1068 q 527 989 583 989 q 436 1025 473 989 q 399 1116 399 1061 q 437 1216 399 1178 q 533 1253 474 1253 m 530 1199 q 471 1176 493 1199 q 448 1115 448 1153 q 471 1059 448 1081 q 526 1036 493 1036 q 582 1057 559 1036 q 608 1120 605 1078 q 586 1176 608 1154 q 530 1199 564 1199 z "},"":{"ha":1095,"x_min":0,"x_max":1136,"o":"m 0 0 l 322 979 l 808 979 l 1136 0 l 766 0 l 704 176 l 413 176 l 351 0 l 0 0 m 57 41 l 324 41 l 387 217 l 736 217 l 800 41 l 1080 41 l 782 939 l 356 939 l 57 41 m 480 415 l 642 415 l 567 633 l 480 415 m 566 1253 q 659 1216 622 1253 q 696 1124 696 1179 q 655 1028 696 1068 q 559 989 615 989 q 469 1025 506 989 q 432 1116 432 1061 q 469 1216 432 1178 q 566 1253 507 1253 m 568 1199 q 509 1176 531 1199 q 486 1115 486 1153 q 509 1059 486 1081 q 564 1036 531 1036 q 620 1057 597 1036 q 646 1120 643 1078 q 624 1176 646 1154 q 568 1199 602 1199 m 125 90 l 393 895 l 749 895 l 1020 90 l 833 90 l 760 263 l 361 263 l 296 90 l 125 90 m 568 717 l 694 385 l 433 385 l 568 717 m 570 801 l 378 346 l 751 346 l 570 801 z "},"":{"ha":1420,"x_min":41,"x_max":1420,"o":"m 700 939 l 323 939 l 81 251 l 41 251 l 41 292 l 49 292 l 289 979 l 1378 979 l 1378 688 l 857 688 l 857 575 l 1194 575 l 1194 404 l 857 404 l 857 292 l 1420 292 l 1420 251 l 817 251 l 817 444 l 1153 444 l 1153 534 l 817 534 l 817 728 l 1337 728 l 1337 939 l 700 939 m 41 41 l 292 41 l 351 217 l 575 217 l 575 41 l 1420 41 l 1420 0 l 534 0 l 534 176 l 380 176 l 319 0 l 41 0 l 41 41 m 41 81 l 41 210 l 127 210 l 355 898 l 1308 898 l 1308 769 l 783 769 l 783 510 l 1120 510 l 1120 473 l 783 473 l 783 210 l 1420 210 l 1420 81 l 614 81 l 614 260 l 320 260 l 259 81 l 41 81 m 562 827 l 346 346 l 562 347 l 562 827 m 533 709 l 532 377 l 397 377 l 533 709 m 437 410 l 507 410 l 507 585 l 437 410 z "},"":{"ha":1436,"x_min":-16,"x_max":1436,"o":"m 551 0 l 551 176 l 397 176 l 335 0 l -16 0 l 306 979 l 1394 979 l 1394 688 l 873 688 l 873 575 l 1210 575 l 1210 404 l 873 404 l 873 292 l 1436 292 l 1436 0 l 551 0 m 716 939 l 336 939 l 37 41 l 304 41 l 367 217 l 591 217 l 591 41 l 1396 41 l 1396 251 l 833 251 l 833 444 l 1169 444 l 1169 534 l 833 534 l 833 728 l 1354 728 l 1354 939 l 716 939 m 92 81 l 366 898 l 1318 898 l 1318 769 l 794 769 l 794 510 l 1131 510 l 1131 473 l 794 473 l 794 210 l 1359 212 l 1359 81 l 625 81 l 625 260 l 331 260 l 270 81 l 92 81 m 602 827 l 387 346 l 602 347 l 602 827 m 579 709 l 578 377 l 444 377 l 579 709 m 486 407 l 556 407 l 556 582 l 486 407 z "},"":{"ha":1006,"x_min":7,"x_max":1006,"o":"m 1006 939 l 572 939 q 369 912 461 937 q 205 831 277 887 q 92 694 134 776 q 47 504 50 613 q 117 247 46 350 q 307 94 187 144 q 551 42 426 43 l 551 -113 q 625 -142 581 -115 q 673 -222 669 -170 q 657 -283 674 -262 q 567 -320 640 -305 q 680 -290 643 -312 q 732 -250 716 -269 q 750 -201 747 -231 q 706 -134 745 -156 q 606 -100 667 -113 l 606 41 l 1006 41 l 1006 0 l 650 0 l 650 -76 q 758 -122 722 -90 q 793 -201 793 -155 q 724 -310 793 -263 q 547 -356 655 -356 q 439 -351 504 -356 l 449 -292 q 517 -301 477 -300 q 609 -280 585 -301 q 633 -222 633 -259 q 606 -178 633 -197 q 541 -159 580 -159 q 511 -161 529 -159 l 510 3 q 284 57 413 0 q 81 227 155 113 q 7 504 7 340 q 51 710 7 619 q 174 860 96 800 q 355 950 253 920 q 572 979 457 979 l 841 979 l 1006 979 l 1006 939 m 1006 728 l 1006 688 l 700 688 q 547 682 597 688 q 459 661 498 675 q 391 612 420 647 q 356 487 361 576 q 391 363 359 400 q 467 313 422 326 q 559 296 511 301 q 700 292 606 292 l 1006 292 l 1006 251 l 700 251 q 553 256 608 250 q 446 276 499 262 q 357 339 393 290 q 315 487 321 388 q 361 640 323 601 q 444 696 400 678 q 542 720 488 713 q 700 728 596 726 l 1006 728 m 1006 901 l 1006 770 l 700 770 q 538 762 598 769 q 425 734 477 754 q 327 669 372 713 q 274 488 282 624 q 326 320 282 377 q 431 244 369 263 q 551 218 492 225 q 703 212 610 212 l 1006 212 l 1006 81 l 572 81 q 330 129 439 81 q 153 269 220 176 q 87 505 87 361 q 130 681 92 608 q 235 803 168 754 q 385 873 301 852 q 575 901 469 895 l 1006 901 m 571 81 l 586 81 l 586 -103 q 689 -144 658 -126 q 736 -201 720 -163 q 718 -243 732 -225 q 673 -281 704 -260 q 690 -220 688 -254 q 663 -153 677 -167 q 571 -102 650 -140 l 571 81 z "},"":{"ha":1006,"x_min":7,"x_max":1006,"o":"m 510 3 q 284 57 413 0 q 81 227 155 113 q 7 504 7 340 q 51 710 7 619 q 174 860 96 800 q 355 950 253 920 q 572 979 457 979 l 841 979 l 1006 979 l 1006 688 l 700 688 q 547 682 597 688 q 459 661 498 675 q 391 612 420 647 q 356 487 361 576 q 391 363 359 400 q 467 313 422 326 q 559 296 511 301 q 700 292 606 292 l 1006 292 l 1006 0 l 650 0 l 650 -76 q 758 -122 722 -90 q 793 -201 793 -155 q 724 -310 793 -263 q 547 -356 655 -356 q 439 -351 504 -356 l 449 -292 q 517 -301 477 -300 q 609 -280 585 -301 q 633 -222 633 -259 q 606 -178 633 -197 q 541 -159 580 -159 q 511 -161 529 -159 l 510 3 m 966 939 l 572 939 q 369 912 461 937 q 205 831 277 887 q 92 694 134 776 q 47 504 50 613 q 117 247 46 350 q 307 94 187 144 q 551 42 426 43 l 551 -113 q 625 -142 581 -115 q 673 -222 669 -170 q 657 -283 674 -262 q 567 -320 640 -305 q 680 -290 643 -312 q 732 -250 716 -269 q 750 -201 747 -231 q 706 -134 745 -156 q 606 -100 667 -113 l 606 41 l 769 41 l 966 41 l 966 251 l 700 251 q 553 256 608 250 q 446 276 499 262 q 357 339 393 290 q 315 487 321 388 q 361 640 323 601 q 444 696 400 678 q 542 720 488 713 q 700 728 596 726 l 966 728 l 966 939 m 935 901 l 935 770 l 700 770 q 538 762 598 769 q 425 734 477 754 q 327 669 372 713 q 274 488 282 624 q 326 320 282 377 q 431 244 369 263 q 551 218 492 225 q 703 212 610 212 l 930 212 l 930 81 l 572 81 q 330 129 439 81 q 153 269 220 176 q 87 505 87 361 q 130 681 92 608 q 235 803 168 754 q 385 873 301 852 q 575 901 469 895 l 935 901 m 571 81 l 586 81 l 586 -103 q 689 -144 658 -126 q 736 -201 720 -163 q 718 -243 732 -225 q 673 -281 704 -260 q 690 -220 688 -254 q 663 -153 677 -167 q 571 -102 650 -140 l 571 81 z "},"":{"ha":922,"x_min":41,"x_max":922,"o":"m 41 939 l 41 979 l 882 979 l 882 939 l 41 939 m 81 251 l 41 251 l 41 728 l 81 728 l 81 251 m 882 728 l 882 688 l 359 688 l 359 575 l 696 575 l 696 404 l 359 404 l 359 292 l 922 292 l 922 251 l 319 251 l 319 444 l 655 444 l 655 534 l 319 534 l 319 728 l 882 728 m 922 41 l 922 0 l 41 0 l 41 41 l 922 41 m 138 1218 l 451 1218 l 570 1002 l 138 1218 m 277 1181 l 494 1080 l 427 1181 l 277 1181 m 41 898 l 882 898 l 882 769 l 285 769 l 285 507 l 613 507 l 613 471 l 283 471 l 283 212 l 922 210 l 922 81 l 41 81 l 41 210 l 123 210 l 123 769 l 41 769 l 41 898 m 349 1165 l 452 1118 l 420 1165 l 349 1165 z "},"":{"ha":922,"x_min":41,"x_max":922,"o":"m 41 0 l 41 979 l 880 979 l 880 688 l 359 688 l 359 575 l 696 575 l 696 404 l 359 404 l 359 292 l 922 292 l 922 0 l 41 0 m 138 1218 l 451 1218 l 570 1002 l 138 1218 m 81 939 l 81 41 l 882 41 l 882 251 l 319 251 l 319 444 l 655 444 l 655 534 l 319 534 l 319 728 l 840 728 l 840 939 l 81 939 m 277 1181 l 494 1080 l 427 1181 l 277 1181 m 122 898 l 800 898 l 800 770 l 285 770 l 285 507 l 613 507 l 613 471 l 283 471 l 282 209 l 841 209 l 841 79 l 122 79 l 122 898 m 349 1165 l 452 1118 l 420 1165 l 349 1165 z "},"":{"ha":922,"x_min":41,"x_max":922,"o":"m 41 939 l 41 979 l 882 979 l 882 939 l 41 939 m 81 251 l 41 251 l 41 728 l 81 728 l 81 251 m 882 728 l 882 688 l 359 688 l 359 575 l 696 575 l 696 404 l 359 404 l 359 292 l 922 292 l 922 251 l 319 251 l 319 444 l 655 444 l 655 534 l 319 534 l 319 728 l 882 728 m 922 41 l 922 0 l 41 0 l 41 41 l 922 41 m 456 1002 l 576 1218 l 889 1218 l 456 1002 m 601 1181 l 537 1080 l 747 1181 l 601 1181 m 41 898 l 882 898 l 882 769 l 285 769 l 285 507 l 613 507 l 613 471 l 283 471 l 283 212 l 922 210 l 922 81 l 41 81 l 41 210 l 123 210 l 123 769 l 41 769 l 41 898 m 685 1166 l 581 1119 l 613 1166 l 685 1166 z "},"":{"ha":922,"x_min":41,"x_max":922,"o":"m 41 0 l 41 979 l 880 979 l 880 688 l 359 688 l 359 575 l 696 575 l 696 404 l 359 404 l 359 292 l 922 292 l 922 0 l 41 0 m 456 1002 l 576 1218 l 889 1218 l 456 1002 m 81 939 l 81 41 l 882 41 l 882 251 l 319 251 l 319 444 l 655 444 l 655 534 l 319 534 l 319 728 l 840 728 l 840 939 l 81 939 m 601 1181 l 537 1080 l 747 1181 l 601 1181 m 122 898 l 800 898 l 800 770 l 285 770 l 285 507 l 613 507 l 613 471 l 283 471 l 282 209 l 841 209 l 841 79 l 122 79 l 122 898 m 685 1166 l 581 1119 l 613 1166 l 685 1166 z "},"":{"ha":922,"x_min":41,"x_max":922,"o":"m 41 939 l 41 979 l 882 979 l 882 939 l 41 939 m 81 251 l 41 251 l 41 728 l 81 728 l 81 251 m 882 728 l 882 688 l 359 688 l 359 575 l 696 575 l 696 404 l 359 404 l 359 292 l 922 292 l 922 251 l 319 251 l 319 444 l 655 444 l 655 534 l 319 534 l 319 728 l 882 728 m 922 41 l 922 0 l 41 0 l 41 41 l 922 41 m 699 998 l 511 1116 l 321 1000 l 321 1040 l 509 1232 l 699 1040 l 699 998 m 510 1150 l 643 1069 l 510 1185 l 381 1063 l 510 1150 m 41 898 l 882 898 l 882 769 l 285 769 l 285 507 l 613 507 l 613 471 l 283 471 l 283 212 l 922 210 l 922 81 l 41 81 l 41 210 l 123 210 l 123 769 l 41 769 l 41 898 z "},"":{"ha":922,"x_min":41,"x_max":922,"o":"m 41 0 l 41 979 l 880 979 l 880 688 l 359 688 l 359 575 l 696 575 l 696 404 l 359 404 l 359 292 l 922 292 l 922 0 l 41 0 m 699 998 l 511 1116 l 321 1000 l 321 1040 l 509 1232 l 699 1040 l 699 998 m 81 939 l 81 41 l 882 41 l 882 251 l 319 251 l 319 444 l 655 444 l 655 534 l 319 534 l 319 728 l 840 728 l 840 939 l 81 939 m 510 1150 l 643 1069 l 510 1185 l 381 1063 l 510 1150 m 122 898 l 800 898 l 800 770 l 285 770 l 285 507 l 613 507 l 613 471 l 283 471 l 282 209 l 841 209 l 841 79 l 122 79 l 122 898 z "},"":{"ha":922,"x_min":41,"x_max":922,"o":"m 41 939 l 41 979 l 882 979 l 882 939 l 41 939 m 81 251 l 41 251 l 41 728 l 81 728 l 81 251 m 882 728 l 882 688 l 359 688 l 359 575 l 696 575 l 696 404 l 359 404 l 359 292 l 922 292 l 922 251 l 319 251 l 319 444 l 655 444 l 655 534 l 319 534 l 319 728 l 882 728 m 922 41 l 922 0 l 41 0 l 41 41 l 922 41 m 382 1196 q 438 1174 416 1196 q 460 1117 460 1151 q 434 1055 457 1076 q 378 1034 412 1034 q 323 1056 345 1034 q 300 1112 300 1078 q 323 1173 300 1150 q 382 1196 345 1196 m 638 1196 q 695 1174 673 1196 q 717 1117 717 1151 q 691 1055 713 1076 q 634 1034 668 1034 q 579 1056 602 1034 q 557 1112 557 1078 q 579 1173 557 1150 q 638 1196 602 1196 m 382 1160 q 348 1147 361 1160 q 336 1113 336 1135 q 348 1081 336 1094 q 379 1069 361 1069 q 412 1081 399 1069 q 427 1116 425 1093 q 414 1147 427 1135 q 382 1160 401 1160 m 637 1161 q 603 1148 616 1161 q 591 1114 591 1136 q 603 1083 591 1095 q 634 1070 616 1070 q 667 1082 654 1070 q 682 1117 680 1094 q 669 1148 682 1136 q 637 1161 656 1161 m 41 898 l 882 898 l 882 769 l 285 769 l 285 507 l 613 507 l 613 471 l 283 471 l 283 212 l 922 210 l 922 81 l 41 81 l 41 210 l 123 210 l 123 769 l 41 769 l 41 898 m 382 1139 q 401 1132 394 1139 q 409 1114 409 1125 q 400 1094 408 1101 q 381 1086 393 1086 q 363 1094 370 1086 q 356 1112 356 1101 q 363 1132 356 1125 q 382 1139 370 1139 m 637 1142 q 656 1135 649 1142 q 664 1117 664 1128 q 655 1096 663 1103 q 636 1089 648 1089 q 618 1097 625 1089 q 611 1115 611 1104 q 618 1135 611 1128 q 637 1142 625 1142 z "},"":{"ha":922,"x_min":41,"x_max":922,"o":"m 41 0 l 41 979 l 880 979 l 880 688 l 359 688 l 359 575 l 696 575 l 696 404 l 359 404 l 359 292 l 922 292 l 922 0 l 41 0 m 382 1196 q 438 1174 416 1196 q 460 1117 460 1151 q 434 1055 457 1076 q 378 1034 412 1034 q 323 1056 345 1034 q 300 1112 300 1078 q 323 1173 300 1150 q 382 1196 345 1196 m 638 1196 q 695 1174 673 1196 q 717 1117 717 1151 q 691 1055 713 1076 q 634 1034 668 1034 q 579 1056 602 1034 q 557 1112 557 1078 q 579 1173 557 1150 q 638 1196 602 1196 m 81 939 l 81 41 l 882 41 l 882 251 l 319 251 l 319 444 l 655 444 l 655 534 l 319 534 l 319 728 l 840 728 l 840 939 l 81 939 m 382 1160 q 348 1147 361 1160 q 336 1113 336 1135 q 348 1081 336 1094 q 379 1069 361 1069 q 412 1081 399 1069 q 427 1116 425 1093 q 414 1147 427 1135 q 382 1160 401 1160 m 638 1161 q 605 1148 617 1161 q 592 1114 592 1136 q 605 1083 592 1095 q 635 1070 617 1070 q 668 1082 655 1070 q 683 1117 681 1094 q 670 1148 683 1136 q 638 1161 658 1161 m 122 898 l 800 898 l 800 770 l 285 770 l 285 507 l 613 507 l 613 471 l 283 471 l 282 209 l 841 209 l 841 79 l 122 79 l 122 898 m 637 1142 q 656 1135 649 1142 q 664 1117 664 1128 q 655 1096 663 1103 q 636 1089 648 1089 q 618 1097 625 1089 q 611 1115 611 1104 q 618 1135 611 1128 q 637 1142 625 1142 m 382 1139 q 401 1132 394 1139 q 409 1114 409 1125 q 400 1094 408 1101 q 381 1086 393 1086 q 363 1094 370 1086 q 356 1112 356 1101 q 363 1132 356 1125 q 382 1139 370 1139 z "},"":{"ha":373,"x_min":18,"x_max":346,"o":"m 27 979 l 346 979 l 346 0 l 27 0 l 27 979 m 18 1218 l 269 1218 l 346 1004 l 18 1218 m 68 939 l 68 41 l 305 41 l 305 939 l 68 939 m 114 1184 l 290 1082 l 236 1184 l 114 1184 m 109 894 l 263 895 l 263 81 l 109 79 l 109 894 m 172 1169 l 253 1122 l 228 1169 l 172 1169 z "},"":{"ha":373,"x_min":18,"x_max":346,"o":"m 27 979 l 346 979 l 346 0 l 27 0 l 27 979 m 18 1218 l 269 1218 l 346 1004 l 18 1218 m 68 939 l 68 41 l 305 41 l 305 939 l 68 939 m 114 1184 l 290 1082 l 236 1184 l 114 1184 m 109 894 l 263 895 l 263 81 l 109 79 l 109 894 m 172 1169 l 253 1122 l 228 1169 l 172 1169 z "},"":{"ha":373,"x_min":18,"x_max":346,"o":"m 345 979 l 345 0 l 27 0 l 27 979 l 345 979 m 18 1004 l 94 1218 l 346 1218 l 18 1004 m 68 939 l 68 41 l 305 41 l 305 939 l 68 939 m 127 1184 l 77 1082 l 241 1184 l 127 1184 m 109 894 l 263 895 l 263 81 l 109 79 l 109 894 m 191 1169 l 111 1122 l 136 1169 l 191 1169 z "},"":{"ha":373,"x_min":18,"x_max":346,"o":"m 345 979 l 345 0 l 27 0 l 27 979 l 345 979 m 18 1004 l 94 1218 l 346 1218 l 18 1004 m 68 939 l 68 41 l 305 41 l 305 939 l 68 939 m 127 1184 l 77 1082 l 241 1184 l 127 1184 m 109 894 l 263 895 l 263 81 l 109 79 l 109 894 m 191 1169 l 111 1122 l 136 1169 l 191 1169 z "},"":{"ha":373,"x_min":27,"x_max":346,"o":"m 27 979 l 346 979 l 346 0 l 27 0 l 27 979 m 340 1002 l 186 1120 l 31 1004 l 31 1044 l 185 1236 l 340 1044 l 340 1002 m 68 939 l 68 41 l 305 41 l 305 939 l 68 939 m 184 1156 l 293 1074 l 184 1191 l 80 1069 l 184 1156 m 109 894 l 263 895 l 263 81 l 109 79 l 109 894 z "},"":{"ha":373,"x_min":27,"x_max":346,"o":"m 27 979 l 346 979 l 346 0 l 27 0 l 27 979 m 340 1002 l 186 1120 l 31 1004 l 31 1044 l 185 1236 l 340 1044 l 340 1002 m 68 939 l 68 41 l 305 41 l 305 939 l 68 939 m 184 1156 l 293 1074 l 184 1191 l 80 1069 l 184 1156 m 109 894 l 263 895 l 263 81 l 109 79 l 109 894 z "},"":{"ha":373,"x_min":2,"x_max":374,"o":"m 27 979 l 346 979 l 346 0 l 27 0 l 27 979 m 83 1196 q 140 1174 118 1196 q 162 1117 162 1151 q 136 1055 159 1076 q 79 1034 113 1034 q 24 1056 47 1034 q 2 1112 2 1078 q 24 1173 2 1150 q 83 1196 47 1196 m 295 1196 q 352 1174 330 1196 q 374 1117 374 1151 q 348 1055 370 1076 q 291 1034 325 1034 q 236 1056 258 1034 q 214 1112 214 1078 q 236 1173 214 1150 q 295 1196 258 1196 m 68 939 l 68 41 l 305 41 l 305 939 l 68 939 m 83 1157 q 50 1144 62 1157 q 37 1110 37 1132 q 50 1079 37 1091 q 81 1066 62 1066 q 113 1078 100 1066 q 128 1113 126 1090 q 116 1144 128 1132 q 83 1157 103 1157 m 295 1157 q 261 1144 274 1157 q 249 1110 249 1132 q 261 1079 249 1091 q 292 1066 274 1066 q 325 1078 312 1066 q 340 1113 338 1090 q 327 1144 340 1132 q 295 1157 315 1157 m 109 894 l 263 895 l 263 81 l 109 79 l 109 894 m 83 1138 q 102 1131 94 1138 q 109 1113 109 1124 q 100 1092 108 1099 q 81 1085 93 1085 q 63 1093 71 1085 q 56 1111 56 1100 q 63 1131 56 1124 q 83 1138 71 1138 m 294 1138 q 313 1131 306 1138 q 321 1113 321 1124 q 312 1092 319 1099 q 293 1085 304 1085 q 275 1093 282 1085 q 268 1111 268 1100 q 275 1131 268 1124 q 294 1138 282 1138 z "},"":{"ha":373,"x_min":2,"x_max":374,"o":"m 27 979 l 346 979 l 346 0 l 27 0 l 27 979 m 83 1196 q 140 1174 118 1196 q 162 1117 162 1151 q 136 1055 159 1076 q 79 1034 113 1034 q 24 1056 47 1034 q 2 1112 2 1078 q 24 1173 2 1150 q 83 1196 47 1196 m 295 1196 q 352 1174 330 1196 q 374 1117 374 1151 q 348 1055 370 1076 q 291 1034 325 1034 q 236 1056 258 1034 q 214 1112 214 1078 q 236 1173 214 1150 q 295 1196 258 1196 m 68 939 l 68 41 l 305 41 l 305 939 l 68 939 m 83 1157 q 50 1144 62 1157 q 37 1110 37 1132 q 50 1079 37 1091 q 81 1066 62 1066 q 113 1078 100 1066 q 128 1113 126 1090 q 116 1144 128 1132 q 83 1157 103 1157 m 295 1157 q 261 1144 274 1157 q 249 1110 249 1132 q 261 1079 249 1091 q 292 1066 274 1066 q 325 1078 312 1066 q 340 1113 338 1090 q 327 1144 340 1132 q 295 1157 315 1157 m 109 894 l 263 895 l 263 81 l 109 79 l 109 894 m 83 1138 q 102 1131 94 1138 q 109 1113 109 1124 q 100 1092 108 1099 q 81 1085 93 1085 q 63 1093 71 1085 q 56 1111 56 1100 q 63 1131 56 1124 q 83 1138 71 1138 m 294 1138 q 313 1131 306 1138 q 321 1113 321 1124 q 312 1092 319 1099 q 293 1085 304 1085 q 275 1093 282 1085 q 268 1111 268 1100 q 275 1131 268 1124 q 294 1138 282 1138 z "},"":{"ha":1223,"x_min":-28,"x_max":1223,"o":"m 144 0 l 144 368 l -28 368 l -28 538 l 144 538 l 144 979 l 722 979 q 928 948 839 979 q 1080 864 1018 917 q 1182 721 1141 811 q 1223 486 1223 631 q 1179 259 1216 353 q 1080 111 1141 165 q 929 27 1018 57 q 705 0 840 -3 l 144 0 m 471 736 l 656 736 q 760 710 720 736 q 826 636 800 683 q 853 490 851 589 q 822 339 846 381 q 759 271 798 298 q 657 244 720 244 l 469 244 l 469 412 l 659 412 l 659 499 l 471 499 l 471 736 m 184 41 l 705 41 q 938 73 868 45 q 1054 143 1008 100 q 1139 269 1100 186 q 1183 490 1179 353 q 1163 660 1177 621 q 1126 743 1149 699 q 1057 833 1104 787 q 924 910 1009 879 q 722 939 840 941 l 184 939 l 184 491 l 14 491 l 14 412 l 184 412 l 184 41 m 511 699 l 511 540 l 705 540 l 705 369 l 510 369 l 510 283 l 652 283 q 739 309 711 285 q 780 362 766 334 q 802 490 794 390 q 781 611 796 575 q 736 672 765 647 q 650 699 708 698 l 511 699 m 228 81 l 228 441 l 62 441 l 62 463 l 228 463 l 228 895 l 717 893 q 904 868 826 897 q 1025 798 981 840 q 1089 716 1068 756 q 1123 641 1110 676 q 1141 488 1135 606 q 1100 289 1136 364 q 1022 174 1065 213 q 916 111 980 136 q 702 81 852 86 l 228 81 m 425 775 l 425 469 l 621 469 l 621 442 l 425 442 l 425 203 l 656 203 q 784 235 735 203 q 862 315 832 267 q 901 490 892 364 q 866 659 898 604 q 785 745 834 714 q 654 775 735 775 l 425 775 z "},"":{"ha":1223,"x_min":-28,"x_max":1223,"o":"m 144 0 l 144 368 l -28 368 l -28 538 l 144 538 l 144 979 l 722 979 q 928 948 839 979 q 1080 864 1018 917 q 1182 721 1141 811 q 1223 486 1223 631 q 1179 259 1216 353 q 1080 111 1141 165 q 929 27 1018 57 q 705 0 840 -3 l 144 0 m 471 736 l 656 736 q 760 710 720 736 q 826 636 800 683 q 853 490 851 589 q 822 339 846 381 q 759 271 798 298 q 657 244 720 244 l 471 244 l 469 412 l 659 412 l 659 499 l 469 499 l 471 736 m 184 41 l 705 41 q 938 73 868 45 q 1054 143 1008 100 q 1139 269 1100 186 q 1183 490 1179 353 q 1163 660 1177 621 q 1126 743 1149 699 q 1057 833 1104 787 q 924 910 1009 879 q 722 939 840 941 l 184 939 l 184 490 l 14 491 l 14 412 l 184 412 l 184 41 m 511 699 l 510 540 l 705 540 l 705 369 l 510 369 l 511 283 l 652 283 q 739 309 711 285 q 780 362 766 334 q 802 490 794 390 q 781 611 796 575 q 736 672 765 647 q 650 699 708 698 l 511 699 m 228 81 l 228 441 l 62 441 l 62 463 l 228 463 l 228 895 l 717 893 q 904 868 826 897 q 1025 798 981 840 q 1089 716 1068 756 q 1123 641 1110 676 q 1141 488 1135 606 q 1100 289 1136 364 q 1022 174 1065 213 q 916 111 980 136 q 702 81 852 86 l 228 81 m 425 775 l 425 469 l 621 469 l 621 442 l 425 442 l 425 203 l 656 203 q 784 235 735 203 q 862 315 832 267 q 901 490 892 364 q 866 659 898 604 q 785 745 834 714 q 654 775 735 775 l 425 775 z "},"":{"ha":970,"x_min":41,"x_max":970,"o":"m 41 939 l 41 979 l 359 979 l 651 613 l 651 979 l 970 979 l 970 939 l 692 939 l 692 574 l 627 574 l 342 939 l 41 939 m 970 41 l 970 0 l 651 0 l 359 366 l 359 0 l 41 0 l 41 41 l 319 41 l 319 407 l 383 407 l 675 41 l 970 41 m 970 728 l 970 251 l 929 251 l 929 728 l 970 728 m 81 728 l 81 251 l 41 251 l 41 728 l 81 728 m 722 1104 q 445 1070 559 947 q 273 1080 331 1194 l 233 1112 q 451 1166 332 1295 q 670 1131 570 1036 l 722 1104 m 309 1169 q 391 1156 353 1166 q 495 1076 430 1145 q 637 1085 560 1006 q 522 1075 556 1057 q 433 1151 487 1093 q 309 1169 378 1208 m 41 898 l 321 898 l 605 533 l 736 533 l 736 898 l 970 898 l 970 769 l 888 769 l 888 210 l 970 210 l 970 81 l 699 81 l 406 446 l 286 446 l 286 81 l 41 81 l 41 210 l 123 210 l 123 769 l 41 769 l 41 898 z "},"":{"ha":970,"x_min":41,"x_max":970,"o":"m 41 0 l 41 979 l 359 979 l 651 613 l 651 979 l 970 979 l 970 0 l 651 0 l 359 366 l 359 0 l 41 0 m 81 939 l 81 41 l 319 41 l 319 407 l 383 407 l 675 41 l 929 41 l 929 939 l 692 939 l 692 574 l 627 574 l 342 939 l 81 939 m 722 1104 q 445 1070 559 947 q 273 1080 331 1194 l 233 1112 q 451 1166 332 1295 q 670 1131 570 1036 l 722 1104 m 309 1169 q 391 1156 353 1166 q 495 1076 430 1145 q 637 1085 560 1006 q 522 1075 556 1057 q 433 1151 487 1093 q 309 1169 378 1208 m 122 895 l 321 895 l 605 533 l 736 533 l 736 894 l 889 894 l 889 80 l 698 80 l 406 446 l 286 446 l 285 81 l 122 81 l 122 895 z "},"":{"ha":1137,"x_min":7,"x_max":1131,"o":"m 1131 484 q 1064 210 1131 323 q 870 40 997 97 q 566 -17 743 -17 q 263 40 390 -17 q 72 210 137 98 q 7 484 7 322 q 44 700 7 607 q 153 857 81 793 q 330 954 225 921 q 566 987 434 987 q 869 929 742 987 q 1064 758 997 871 q 1131 484 1131 645 m 138 1218 l 451 1218 l 570 1002 l 138 1218 m 1090 484 q 1026 736 1088 632 q 846 893 964 840 q 566 947 728 947 q 348 916 444 947 q 185 827 252 886 q 84 683 119 769 q 47 485 50 597 q 110 233 50 336 q 287 77 170 130 q 566 24 404 24 q 846 76 729 24 q 1026 233 964 129 q 1090 484 1088 337 m 277 1181 l 494 1080 l 427 1181 l 277 1181 m 330 483 q 560 741 330 741 q 752 664 707 741 q 803 483 798 587 q 785 358 798 410 q 719 266 772 307 q 560 226 667 226 q 376 303 423 226 q 330 483 330 380 m 374 481 q 412 331 374 395 q 563 267 450 267 q 693 300 650 267 q 747 377 736 334 q 762 481 758 420 q 721 631 758 567 q 563 694 683 694 q 374 481 374 694 m 1049 484 q 990 257 1047 351 q 826 115 933 163 q 569 67 718 67 q 313 115 420 67 q 151 256 205 163 q 94 484 96 349 q 127 664 96 586 q 219 794 159 741 q 369 874 280 846 q 569 901 457 901 q 825 853 718 901 q 990 711 933 804 q 1049 484 1047 617 m 289 480 q 344 272 289 361 q 560 182 399 182 q 749 230 686 182 q 826 337 811 277 q 848 480 842 397 q 788 690 842 601 q 560 779 734 779 q 289 480 289 779 m 347 1166 l 451 1119 l 419 1166 l 347 1166 z "},"":{"ha":1137,"x_min":7,"x_max":1131,"o":"m 1131 484 q 1064 210 1131 323 q 870 40 997 97 q 566 -17 743 -17 q 263 40 390 -17 q 72 210 137 98 q 7 484 7 322 q 44 700 7 607 q 153 857 81 793 q 330 954 225 921 q 566 987 434 987 q 869 929 742 987 q 1064 758 997 871 q 1131 484 1131 645 m 138 1218 l 451 1218 l 570 1002 l 138 1218 m 1090 484 q 1026 736 1088 632 q 846 893 964 840 q 566 947 728 947 q 348 916 444 947 q 185 827 252 886 q 84 683 119 769 q 47 485 50 597 q 110 233 50 336 q 287 77 170 130 q 566 24 404 24 q 846 76 729 24 q 1026 233 964 129 q 1090 484 1088 337 m 277 1181 l 494 1080 l 427 1181 l 277 1181 m 330 483 q 560 741 330 741 q 752 664 707 741 q 803 483 798 587 q 785 358 798 410 q 719 266 772 307 q 560 226 667 226 q 376 303 423 226 q 330 483 330 380 m 374 481 q 412 331 374 395 q 563 267 450 267 q 693 300 650 267 q 747 377 736 334 q 762 481 758 420 q 721 631 758 567 q 563 694 683 694 q 374 481 374 694 m 1049 484 q 990 257 1047 351 q 826 115 933 163 q 569 67 718 67 q 313 115 420 67 q 151 256 205 163 q 94 484 96 349 q 127 664 96 586 q 219 794 159 741 q 369 874 280 846 q 569 901 457 901 q 825 853 718 901 q 990 711 933 804 q 1049 484 1047 617 m 289 480 q 344 272 289 361 q 560 182 399 182 q 749 230 686 182 q 826 337 811 277 q 848 480 842 397 q 788 690 842 601 q 560 779 734 779 q 289 480 289 779 m 347 1166 l 451 1119 l 419 1166 l 347 1166 z "},"":{"ha":1137,"x_min":7,"x_max":1131,"o":"m 1131 484 q 1064 210 1131 323 q 870 40 997 97 q 566 -17 743 -17 q 263 40 390 -17 q 72 210 137 98 q 7 484 7 322 q 44 700 7 607 q 153 857 81 793 q 330 954 225 921 q 566 987 434 987 q 869 929 742 987 q 1064 758 997 871 q 1131 484 1131 645 m 456 1002 l 576 1218 l 889 1218 l 456 1002 m 1090 484 q 1026 736 1088 632 q 846 893 964 840 q 566 947 728 947 q 348 916 444 947 q 185 827 252 886 q 84 683 119 769 q 47 485 50 597 q 110 233 50 336 q 287 77 170 130 q 566 24 404 24 q 846 76 729 24 q 1026 233 964 129 q 1090 484 1088 337 m 601 1181 l 537 1080 l 747 1181 l 601 1181 m 330 483 q 560 741 330 741 q 752 664 707 741 q 803 483 798 587 q 785 358 798 410 q 719 266 772 307 q 560 226 667 226 q 376 303 423 226 q 330 483 330 380 m 374 481 q 412 331 374 395 q 563 267 450 267 q 693 300 650 267 q 747 377 736 334 q 762 481 758 420 q 721 631 758 567 q 563 694 683 694 q 374 481 374 694 m 1049 484 q 990 257 1047 351 q 826 115 933 163 q 569 67 718 67 q 313 115 420 67 q 151 256 205 163 q 94 484 96 349 q 127 664 96 586 q 219 794 159 741 q 369 874 280 846 q 569 901 457 901 q 825 853 718 901 q 990 711 933 804 q 1049 484 1047 617 m 289 480 q 344 272 289 361 q 560 182 399 182 q 749 230 686 182 q 826 337 811 277 q 848 480 842 397 q 788 690 842 601 q 560 779 734 779 q 289 480 289 779 m 685 1166 l 581 1119 l 613 1166 l 685 1166 z "},"":{"ha":1137,"x_min":7,"x_max":1131,"o":"m 1131 484 q 1064 210 1131 323 q 870 40 997 97 q 566 -17 743 -17 q 263 40 390 -17 q 72 210 137 98 q 7 484 7 322 q 44 700 7 607 q 153 857 81 793 q 330 954 225 921 q 566 987 434 987 q 869 929 742 987 q 1064 758 997 871 q 1131 484 1131 645 m 456 1002 l 576 1218 l 889 1218 l 456 1002 m 1090 484 q 1026 736 1088 632 q 846 893 964 840 q 566 947 728 947 q 348 916 444 947 q 185 827 252 886 q 84 683 119 769 q 47 485 50 597 q 110 233 50 336 q 287 77 170 130 q 566 24 404 24 q 846 76 729 24 q 1026 233 964 129 q 1090 484 1088 337 m 601 1181 l 537 1080 l 747 1181 l 601 1181 m 330 483 q 560 741 330 741 q 752 664 707 741 q 803 483 798 587 q 785 358 798 410 q 719 266 772 307 q 560 226 667 226 q 376 303 423 226 q 330 483 330 380 m 374 481 q 412 331 374 395 q 563 267 450 267 q 693 300 650 267 q 747 377 736 334 q 762 481 758 420 q 721 631 758 567 q 563 694 683 694 q 374 481 374 694 m 1049 484 q 990 257 1047 351 q 826 115 933 163 q 569 67 718 67 q 313 115 420 67 q 151 256 205 163 q 94 484 96 349 q 127 664 96 586 q 219 794 159 741 q 369 874 280 846 q 569 901 457 901 q 825 853 718 901 q 990 711 933 804 q 1049 484 1047 617 m 289 480 q 344 272 289 361 q 560 182 399 182 q 749 230 686 182 q 826 337 811 277 q 848 480 842 397 q 788 690 842 601 q 560 779 734 779 q 289 480 289 779 m 685 1166 l 581 1119 l 613 1166 l 685 1166 z "},"":{"ha":1137,"x_min":7,"x_max":1131,"o":"m 1131 484 q 1064 210 1131 323 q 870 40 997 97 q 566 -17 743 -17 q 263 40 390 -17 q 72 210 137 98 q 7 484 7 322 q 44 700 7 607 q 153 857 81 793 q 330 954 225 921 q 566 987 434 987 q 869 929 742 987 q 1064 758 997 871 q 1131 484 1131 645 m 755 998 l 561 1124 l 364 1001 l 364 1043 l 559 1246 l 755 1043 l 755 998 m 1090 484 q 1026 736 1088 632 q 846 893 964 840 q 566 947 728 947 q 348 916 444 947 q 185 827 252 886 q 84 683 119 769 q 47 485 50 597 q 110 233 50 336 q 287 77 170 130 q 566 24 404 24 q 846 76 729 24 q 1026 233 964 129 q 1090 484 1088 337 m 559 1162 l 692 1076 l 559 1200 l 430 1069 l 559 1162 m 330 483 q 560 741 330 741 q 752 664 707 741 q 803 483 798 587 q 785 358 798 410 q 719 266 772 307 q 560 226 667 226 q 376 303 423 226 q 330 483 330 380 m 374 481 q 412 331 374 395 q 563 267 450 267 q 693 300 650 267 q 747 377 736 334 q 762 481 758 420 q 721 631 758 567 q 563 694 683 694 q 374 481 374 694 m 1049 484 q 990 257 1047 351 q 826 115 933 163 q 569 67 718 67 q 313 115 420 67 q 151 256 205 163 q 94 484 96 349 q 127 664 96 586 q 219 794 159 741 q 369 874 280 846 q 569 901 457 901 q 825 853 718 901 q 990 711 933 804 q 1049 484 1047 617 m 289 480 q 344 272 289 361 q 560 182 399 182 q 749 230 686 182 q 826 337 811 277 q 848 480 842 397 q 788 690 842 601 q 560 779 734 779 q 289 480 289 779 z "},"":{"ha":1137,"x_min":7,"x_max":1131,"o":"m 1131 484 q 1064 210 1131 323 q 870 40 997 97 q 566 -17 743 -17 q 263 40 390 -17 q 72 210 137 98 q 7 484 7 322 q 44 700 7 607 q 153 857 81 793 q 330 954 225 921 q 566 987 434 987 q 869 929 742 987 q 1064 758 997 871 q 1131 484 1131 645 m 755 998 l 561 1124 l 364 1001 l 364 1043 l 559 1246 l 755 1043 l 755 998 m 1090 484 q 1026 736 1088 632 q 846 893 964 840 q 566 947 728 947 q 348 916 444 947 q 185 827 252 886 q 84 683 119 769 q 47 485 50 597 q 110 233 50 336 q 287 77 170 130 q 566 24 404 24 q 846 76 729 24 q 1026 233 964 129 q 1090 484 1088 337 m 559 1162 l 692 1076 l 559 1200 l 430 1069 l 559 1162 m 330 483 q 560 741 330 741 q 752 664 707 741 q 803 483 798 587 q 785 358 798 410 q 719 266 772 307 q 560 226 667 226 q 376 303 423 226 q 330 483 330 380 m 374 481 q 412 331 374 395 q 563 267 450 267 q 693 300 650 267 q 747 377 736 334 q 762 481 758 420 q 721 631 758 567 q 563 694 683 694 q 374 481 374 694 m 1049 484 q 990 257 1047 351 q 826 115 933 163 q 569 67 718 67 q 313 115 420 67 q 151 256 205 163 q 94 484 96 349 q 127 664 96 586 q 219 794 159 741 q 369 874 280 846 q 569 901 457 901 q 825 853 718 901 q 990 711 933 804 q 1049 484 1047 617 m 289 480 q 344 272 289 361 q 560 182 399 182 q 749 230 686 182 q 826 337 811 277 q 848 480 842 397 q 788 690 842 601 q 560 779 734 779 q 289 480 289 779 z "},"":{"ha":1137,"x_min":7,"x_max":1131,"o":"m 1131 484 q 1064 210 1131 323 q 870 40 997 97 q 566 -17 743 -17 q 263 40 390 -17 q 72 210 137 98 q 7 484 7 322 q 44 700 7 607 q 153 857 81 793 q 330 954 225 921 q 566 987 434 987 q 869 929 742 987 q 1064 758 997 871 q 1131 484 1131 645 m 1090 484 q 1026 736 1088 632 q 846 893 964 840 q 566 947 728 947 q 348 916 444 947 q 185 827 252 886 q 84 683 119 769 q 47 485 50 597 q 110 233 50 336 q 287 77 170 130 q 566 24 404 24 q 846 76 729 24 q 1026 233 964 129 q 1090 484 1088 337 m 811 1104 q 534 1070 648 947 q 363 1080 420 1194 l 322 1112 q 541 1166 422 1295 q 760 1131 659 1036 l 811 1104 m 401 1166 q 484 1153 445 1164 q 587 1073 522 1142 q 730 1082 652 1004 q 614 1072 648 1054 q 525 1148 579 1090 q 401 1166 471 1206 m 330 483 q 560 741 330 741 q 752 664 707 741 q 803 483 798 587 q 785 358 798 410 q 719 266 772 307 q 560 226 667 226 q 376 303 423 226 q 330 483 330 380 m 374 481 q 412 331 374 395 q 563 267 450 267 q 693 300 650 267 q 747 377 736 334 q 762 481 758 420 q 721 631 758 567 q 563 694 683 694 q 374 481 374 694 m 1049 484 q 990 257 1047 351 q 826 115 933 163 q 569 67 718 67 q 313 115 420 67 q 151 256 205 163 q 94 484 96 349 q 127 664 96 586 q 219 794 159 741 q 369 874 280 846 q 569 901 457 901 q 825 853 718 901 q 990 711 933 804 q 1049 484 1047 617 m 289 480 q 344 272 289 361 q 560 182 399 182 q 749 230 686 182 q 826 337 811 277 q 848 480 842 397 q 788 690 842 601 q 560 779 734 779 q 289 480 289 779 z "},"":{"ha":1137,"x_min":7,"x_max":1131,"o":"m 1131 484 q 1064 210 1131 323 q 870 40 997 97 q 566 -17 743 -17 q 263 40 390 -17 q 72 210 137 98 q 7 484 7 322 q 44 700 7 607 q 153 857 81 793 q 330 954 225 921 q 566 987 434 987 q 869 929 742 987 q 1064 758 997 871 q 1131 484 1131 645 m 1090 484 q 1026 736 1088 632 q 846 893 964 840 q 566 947 728 947 q 348 916 444 947 q 185 827 252 886 q 84 683 119 769 q 47 485 50 597 q 110 233 50 336 q 287 77 170 130 q 566 24 404 24 q 846 76 729 24 q 1026 233 964 129 q 1090 484 1088 337 m 811 1104 q 534 1070 648 947 q 363 1080 420 1194 l 322 1112 q 541 1166 422 1295 q 760 1131 659 1036 l 811 1104 m 401 1166 q 484 1153 445 1164 q 587 1073 522 1142 q 730 1082 652 1004 q 614 1072 648 1054 q 525 1148 579 1090 q 401 1166 471 1206 m 330 483 q 560 741 330 741 q 752 664 707 741 q 803 483 798 587 q 785 358 798 410 q 719 266 772 307 q 560 226 667 226 q 376 303 423 226 q 330 483 330 380 m 374 481 q 412 331 374 395 q 563 267 450 267 q 693 300 650 267 q 747 377 736 334 q 762 481 758 420 q 721 631 758 567 q 563 694 683 694 q 374 481 374 694 m 1049 484 q 990 257 1047 351 q 826 115 933 163 q 569 67 718 67 q 313 115 420 67 q 151 256 205 163 q 94 484 96 349 q 127 664 96 586 q 219 794 159 741 q 369 874 280 846 q 569 901 457 901 q 825 853 718 901 q 990 711 933 804 q 1049 484 1047 617 m 289 480 q 344 272 289 361 q 560 182 399 182 q 749 230 686 182 q 826 337 811 277 q 848 480 842 397 q 788 690 842 601 q 560 779 734 779 q 289 480 289 779 z "},"":{"ha":1137,"x_min":7,"x_max":1131,"o":"m 1131 484 q 1064 210 1131 323 q 870 40 997 97 q 566 -17 743 -17 q 263 40 390 -17 q 72 210 137 98 q 7 484 7 322 q 44 700 7 607 q 153 857 81 793 q 330 954 225 921 q 566 987 434 987 q 869 929 742 987 q 1064 758 997 871 q 1131 484 1131 645 m 762 1196 q 818 1174 796 1196 q 840 1117 840 1151 q 814 1055 837 1076 q 758 1034 791 1034 q 703 1056 725 1034 q 680 1112 680 1078 q 703 1173 680 1150 q 762 1196 725 1196 m 382 1196 q 438 1174 416 1196 q 460 1117 460 1151 q 434 1055 457 1076 q 378 1034 412 1034 q 323 1056 345 1034 q 300 1112 300 1078 q 323 1173 300 1150 q 382 1196 345 1196 m 1090 484 q 1026 736 1088 632 q 846 893 964 840 q 566 947 728 947 q 348 916 444 947 q 185 827 252 886 q 84 683 119 769 q 47 485 50 597 q 110 233 50 336 q 287 77 170 130 q 566 24 404 24 q 846 76 729 24 q 1026 233 964 129 q 1090 484 1088 337 m 762 1157 q 728 1144 741 1157 q 715 1110 715 1132 q 728 1079 715 1091 q 759 1066 741 1066 q 791 1078 779 1066 q 806 1113 804 1090 q 794 1144 806 1132 q 762 1157 781 1157 m 382 1160 q 348 1147 361 1160 q 336 1113 336 1135 q 348 1081 336 1094 q 379 1069 361 1069 q 412 1081 399 1069 q 427 1116 425 1093 q 414 1147 427 1135 q 382 1160 401 1160 m 330 483 q 560 741 330 741 q 752 664 707 741 q 803 483 798 587 q 785 358 798 410 q 719 266 772 307 q 560 226 667 226 q 376 303 423 226 q 330 483 330 380 m 374 481 q 412 331 374 395 q 563 267 450 267 q 693 300 650 267 q 747 377 736 334 q 762 481 758 420 q 721 631 758 567 q 563 694 683 694 q 374 481 374 694 m 1049 484 q 990 257 1047 351 q 826 115 933 163 q 569 67 718 67 q 313 115 420 67 q 151 256 205 163 q 94 484 96 349 q 127 664 96 586 q 219 794 159 741 q 369 874 280 846 q 569 901 457 901 q 825 853 718 901 q 990 711 933 804 q 1049 484 1047 617 m 289 480 q 344 272 289 361 q 560 182 399 182 q 749 230 686 182 q 826 337 811 277 q 848 480 842 397 q 788 690 842 601 q 560 779 734 779 q 289 480 289 779 m 382 1139 q 401 1132 394 1139 q 409 1114 409 1125 q 400 1094 408 1101 q 381 1086 393 1086 q 363 1094 370 1086 q 356 1112 356 1101 q 363 1132 356 1125 q 382 1139 370 1139 m 761 1137 q 780 1129 772 1137 q 787 1112 787 1122 q 779 1091 786 1098 q 760 1084 771 1084 q 742 1091 749 1084 q 734 1109 734 1099 q 742 1129 734 1122 q 761 1137 749 1137 z "},"":{"ha":1137,"x_min":7,"x_max":1131,"o":"m 1131 484 q 1064 210 1131 323 q 870 40 997 97 q 566 -17 743 -17 q 263 40 390 -17 q 72 210 137 98 q 7 484 7 322 q 44 700 7 607 q 153 857 81 793 q 330 954 225 921 q 566 987 434 987 q 869 929 742 987 q 1064 758 997 871 q 1131 484 1131 645 m 762 1196 q 818 1174 796 1196 q 840 1117 840 1151 q 814 1055 837 1076 q 758 1034 791 1034 q 703 1056 725 1034 q 680 1112 680 1078 q 703 1173 680 1150 q 762 1196 725 1196 m 382 1196 q 438 1174 416 1196 q 460 1117 460 1151 q 434 1055 457 1076 q 378 1034 412 1034 q 323 1056 345 1034 q 300 1112 300 1078 q 323 1173 300 1150 q 382 1196 345 1196 m 1090 484 q 1026 736 1088 632 q 846 893 964 840 q 566 947 728 947 q 348 916 444 947 q 185 827 252 886 q 84 683 119 769 q 47 485 50 597 q 110 233 50 336 q 287 77 170 130 q 566 24 404 24 q 846 76 729 24 q 1026 233 964 129 q 1090 484 1088 337 m 762 1157 q 728 1144 741 1157 q 715 1110 715 1132 q 728 1079 715 1091 q 759 1066 741 1066 q 791 1078 779 1066 q 806 1113 804 1090 q 794 1144 806 1132 q 762 1157 781 1157 m 382 1160 q 348 1147 361 1160 q 336 1113 336 1135 q 348 1081 336 1094 q 379 1069 361 1069 q 412 1081 399 1069 q 427 1116 425 1093 q 414 1147 427 1135 q 382 1160 401 1160 m 330 483 q 560 741 330 741 q 752 664 707 741 q 803 483 798 587 q 785 358 798 410 q 719 266 772 307 q 560 226 667 226 q 376 303 423 226 q 330 483 330 380 m 374 481 q 412 331 374 395 q 563 267 450 267 q 693 300 650 267 q 747 377 736 334 q 762 481 758 420 q 721 631 758 567 q 563 694 683 694 q 374 481 374 694 m 1049 484 q 990 257 1047 351 q 826 115 933 163 q 569 67 718 67 q 313 115 420 67 q 151 256 205 163 q 94 484 96 349 q 127 664 96 586 q 219 794 159 741 q 369 874 280 846 q 569 901 457 901 q 825 853 718 901 q 990 711 933 804 q 1049 484 1047 617 m 289 480 q 344 272 289 361 q 560 182 399 182 q 749 230 686 182 q 826 337 811 277 q 848 480 842 397 q 788 690 842 601 q 560 779 734 779 q 289 480 289 779 m 761 1137 q 780 1129 772 1137 q 787 1112 787 1122 q 779 1091 786 1098 q 760 1084 771 1084 q 742 1091 749 1084 q 734 1109 734 1099 q 742 1129 734 1122 q 761 1137 749 1137 m 382 1139 q 401 1132 394 1139 q 409 1114 409 1125 q 400 1094 408 1101 q 381 1086 393 1086 q 363 1094 370 1086 q 356 1112 356 1101 q 363 1132 356 1125 q 382 1139 370 1139 z "},"":{"ha":1137,"x_min":1,"x_max":1131,"o":"m 384 288 q 560 227 423 232 q 719 267 666 227 q 785 359 772 307 q 803 483 798 411 q 783 589 798 578 l 384 288 m 981 864 l 1055 924 l 1131 822 l 1072 769 q 1131 484 1131 645 q 1064 210 1131 323 q 870 40 997 97 q 566 -17 743 -17 q 190 84 390 -17 l 76 -5 l 1 95 l 92 168 q 7 484 7 322 q 44 700 7 607 q 153 857 81 793 q 330 954 225 921 q 566 987 434 987 q 844 938 742 987 q 981 864 947 890 m 742 665 q 560 741 708 741 q 330 483 330 741 q 358 369 332 378 l 742 665 m 1089 484 q 1015 768 1086 632 l 1084 826 l 1048 875 l 978 817 q 845 893 962 840 q 565 947 727 947 q 347 916 443 947 q 184 827 250 886 q 83 683 117 769 q 46 485 49 597 q 137 159 49 336 l 54 92 l 84 50 l 189 133 q 565 24 402 24 q 845 76 728 24 q 1024 233 962 129 q 1089 484 1086 337 m 378 435 l 374 481 q 563 694 374 694 q 684 666 681 694 l 378 435 m 755 519 l 760 481 q 747 376 758 419 q 693 300 736 334 q 563 267 650 267 q 460 293 465 267 l 755 519 m 1049 484 q 990 257 1047 351 q 826 115 933 163 q 569 67 718 67 q 313 115 420 67 q 151 256 205 163 q 94 484 96 349 q 127 664 96 586 q 219 794 159 741 q 369 874 280 846 q 569 901 457 901 q 825 853 718 901 q 990 711 933 804 q 1049 484 1047 617 m 289 480 q 344 272 289 361 q 560 182 399 182 q 749 230 686 182 q 826 337 811 277 q 848 480 842 397 q 788 690 842 601 q 560 779 734 779 q 289 480 289 779 m 81 90 l 91 77 l 215 176 l 208 184 l 204 187 l 81 90 m 330 301 l 800 662 l 810 644 l 342 281 l 330 301 m 952 765 l 1040 838 l 1050 825 l 963 753 l 952 765 z "},"":{"ha":1137,"x_min":1,"x_max":1131,"o":"m 384 288 q 560 227 423 232 q 719 267 666 227 q 785 359 772 307 q 803 483 798 411 q 783 589 798 578 l 384 288 m 981 864 l 1055 924 l 1131 822 l 1072 769 q 1131 484 1131 645 q 1064 210 1131 323 q 870 40 997 97 q 566 -17 743 -17 q 190 84 390 -17 l 76 -5 l 1 95 l 92 168 q 7 484 7 322 q 44 700 7 607 q 153 857 81 793 q 330 954 225 921 q 566 987 434 987 q 844 938 742 987 q 981 864 947 890 m 742 665 q 560 741 708 741 q 330 483 330 741 q 358 369 332 378 l 742 665 m 1089 484 q 1015 768 1086 632 l 1084 826 l 1048 875 l 978 817 q 845 893 962 840 q 565 947 727 947 q 347 916 443 947 q 184 827 250 886 q 83 683 117 769 q 46 485 49 597 q 137 159 49 336 l 54 92 l 84 50 l 189 133 q 565 24 402 24 q 845 76 728 24 q 1024 233 962 129 q 1089 484 1086 337 m 378 435 l 374 481 q 563 694 374 694 q 684 666 681 694 l 378 435 m 755 519 l 760 481 q 747 376 758 419 q 693 300 736 334 q 563 267 650 267 q 460 293 465 267 l 755 519 m 1049 484 q 990 257 1047 351 q 826 115 933 163 q 569 67 718 67 q 313 115 420 67 q 151 256 205 163 q 94 484 96 349 q 127 664 96 586 q 219 794 159 741 q 369 874 280 846 q 569 901 457 901 q 825 853 718 901 q 990 711 933 804 q 1049 484 1047 617 m 289 480 q 344 272 289 361 q 560 182 399 182 q 749 230 686 182 q 826 337 811 277 q 848 480 842 397 q 788 690 842 601 q 560 779 734 779 q 289 480 289 779 m 81 90 l 91 77 l 215 176 l 208 184 l 204 187 l 81 90 m 330 301 l 800 662 l 810 644 l 342 281 l 330 301 m 952 765 l 1040 838 l 1050 825 l 963 753 l 952 765 z "},"":{"ha":1013,"x_min":41,"x_max":1013,"o":"m 359 979 l 359 400 q 397 262 355 301 q 529 221 439 224 q 649 263 601 222 q 694 400 697 304 l 694 979 l 1013 979 l 1013 939 l 735 939 l 735 400 q 690 243 739 297 q 529 180 642 190 q 363 237 411 184 q 319 400 316 290 l 319 939 l 41 939 l 41 979 l 359 979 m 972 728 l 1013 728 l 1013 405 q 973 210 1011 283 q 876 88 935 137 q 729 12 817 39 q 532 -18 640 -15 q 348 7 441 -16 q 185 79 255 30 q 78 204 116 127 q 41 404 41 281 l 41 728 l 81 728 l 81 404 q 119 223 88 283 q 211 117 149 163 q 359 48 273 71 q 532 23 446 26 q 718 54 633 27 q 852 124 802 80 q 937 229 903 168 q 972 405 970 289 l 972 728 m 189 1218 l 503 1218 l 622 1002 l 189 1218 m 323 1181 l 540 1080 l 473 1181 l 323 1181 m 41 898 l 283 898 l 283 401 q 336 214 283 282 q 528 145 388 146 q 717 219 661 153 q 772 401 773 285 l 772 898 l 1013 898 l 1013 769 l 937 769 l 937 405 q 904 244 931 296 q 832 156 876 193 q 708 91 789 119 q 533 60 628 64 q 371 83 453 62 q 235 148 290 104 q 155 237 180 191 q 123 404 130 283 l 123 769 l 41 769 l 41 898 m 392 1166 l 496 1119 l 464 1166 l 392 1166 z "},"":{"ha":1013,"x_min":41,"x_max":1013,"o":"m 359 979 l 359 400 q 397 262 355 301 q 529 221 439 224 q 649 263 601 222 q 694 400 697 304 l 694 979 l 1013 979 l 1013 405 q 973 210 1011 283 q 876 88 935 137 q 729 12 817 39 q 532 -18 640 -15 q 348 7 441 -16 q 185 79 255 30 q 78 204 116 127 q 41 404 41 281 l 41 979 l 359 979 m 81 939 l 81 404 q 119 223 88 283 q 211 117 149 163 q 359 48 273 71 q 532 23 446 26 q 718 54 633 27 q 852 124 802 80 q 937 229 903 168 q 972 405 970 289 l 972 939 l 735 939 l 735 400 q 690 243 739 297 q 529 180 642 190 q 363 237 411 184 q 319 400 316 290 l 319 939 l 81 939 m 189 1218 l 503 1218 l 622 1002 l 189 1218 m 323 1181 l 540 1080 l 473 1181 l 323 1181 m 120 900 l 283 900 l 283 401 q 332 214 277 281 q 528 145 388 146 q 717 219 661 153 q 772 401 773 285 l 772 898 l 939 898 l 939 406 q 904 244 931 296 q 832 156 876 193 q 708 91 789 119 q 533 60 628 64 q 371 83 453 62 q 235 148 290 104 q 151 237 180 191 q 120 404 122 283 l 120 900 m 392 1166 l 496 1119 l 464 1166 l 392 1166 z "},"":{"ha":1013,"x_min":41,"x_max":1013,"o":"m 359 979 l 359 400 q 397 262 355 301 q 529 221 439 224 q 649 263 601 222 q 694 400 697 304 l 694 979 l 1013 979 l 1013 939 l 735 939 l 735 400 q 690 243 739 297 q 529 180 642 190 q 363 237 411 184 q 319 400 316 290 l 319 939 l 41 939 l 41 979 l 359 979 m 972 728 l 1013 728 l 1013 405 q 973 210 1011 283 q 876 88 935 137 q 729 12 817 39 q 532 -18 640 -15 q 348 7 441 -16 q 185 79 255 30 q 78 204 116 127 q 41 404 41 281 l 41 728 l 81 728 l 81 404 q 119 223 88 283 q 211 117 149 163 q 359 48 273 71 q 532 23 446 26 q 718 54 633 27 q 852 124 802 80 q 937 229 903 168 q 972 405 970 289 l 972 728 m 481 1002 l 600 1218 l 913 1218 l 481 1002 m 631 1181 l 567 1080 l 777 1181 l 631 1181 m 41 898 l 283 898 l 283 401 q 336 214 283 282 q 528 145 388 146 q 717 219 661 153 q 772 401 773 285 l 772 898 l 1013 898 l 1013 769 l 937 769 l 937 405 q 904 244 931 296 q 832 156 876 193 q 708 91 789 119 q 533 60 628 64 q 371 83 453 62 q 235 148 290 104 q 155 237 180 191 q 123 404 130 283 l 123 769 l 41 769 l 41 898 m 718 1168 l 614 1120 l 646 1168 l 718 1168 z "},"":{"ha":1013,"x_min":41,"x_max":1013,"o":"m 359 979 l 359 400 q 397 262 355 301 q 529 221 439 224 q 649 263 601 222 q 694 400 697 304 l 694 979 l 1013 979 l 1013 405 q 973 210 1011 283 q 876 88 935 137 q 729 12 817 39 q 532 -18 640 -15 q 348 7 441 -16 q 185 79 255 30 q 78 204 116 127 q 41 404 41 281 l 41 979 l 359 979 m 81 939 l 81 404 q 119 223 88 283 q 211 117 149 163 q 359 48 273 71 q 532 23 446 26 q 718 54 633 27 q 852 124 802 80 q 937 229 903 168 q 972 405 970 289 l 972 939 l 735 939 l 735 400 q 690 243 739 297 q 529 180 642 190 q 363 237 411 184 q 319 400 316 290 l 319 939 l 81 939 m 481 1002 l 600 1218 l 913 1218 l 481 1002 m 631 1181 l 567 1080 l 777 1181 l 631 1181 m 120 900 l 283 900 l 283 401 q 332 214 277 281 q 528 145 388 146 q 717 219 661 153 q 772 401 773 285 l 772 898 l 939 898 l 939 406 q 904 244 931 296 q 832 156 876 193 q 708 91 789 119 q 533 60 628 64 q 371 83 453 62 q 235 148 290 104 q 151 237 180 191 q 120 404 122 283 l 120 900 m 718 1168 l 614 1120 l 646 1168 l 718 1168 z "},"":{"ha":1013,"x_min":41,"x_max":1013,"o":"m 359 979 l 359 400 q 397 262 355 301 q 529 221 439 224 q 649 263 601 222 q 694 400 697 304 l 694 979 l 1013 979 l 1013 939 l 735 939 l 735 400 q 690 243 739 297 q 529 180 642 190 q 363 237 411 184 q 319 400 316 290 l 319 939 l 41 939 l 41 979 l 359 979 m 972 728 l 1013 728 l 1013 405 q 973 210 1011 283 q 876 88 935 137 q 729 12 817 39 q 532 -18 640 -15 q 348 7 441 -16 q 185 79 255 30 q 78 204 116 127 q 41 404 41 281 l 41 728 l 81 728 l 81 404 q 119 223 88 283 q 211 117 149 163 q 359 48 273 71 q 532 23 446 26 q 718 54 633 27 q 852 124 802 80 q 937 229 903 168 q 972 405 970 289 l 972 728 m 723 998 l 528 1124 l 332 1001 l 332 1043 l 526 1246 l 723 1043 l 723 998 m 526 1162 l 659 1076 l 526 1200 l 397 1069 l 526 1162 m 41 898 l 283 898 l 283 401 q 336 214 283 282 q 528 145 388 146 q 717 219 661 153 q 772 401 773 285 l 772 898 l 1013 898 l 1013 769 l 937 769 l 937 405 q 904 244 931 296 q 832 156 876 193 q 708 91 789 119 q 533 60 628 64 q 371 83 453 62 q 235 148 290 104 q 155 237 180 191 q 123 404 130 283 l 123 769 l 41 769 l 41 898 z "},"":{"ha":1013,"x_min":41,"x_max":1013,"o":"m 359 979 l 359 400 q 397 262 355 301 q 529 221 439 224 q 649 263 601 222 q 694 400 697 304 l 694 979 l 1013 979 l 1013 405 q 973 210 1011 283 q 876 88 935 137 q 729 12 817 39 q 532 -18 640 -15 q 348 7 441 -16 q 185 79 255 30 q 78 204 116 127 q 41 404 41 281 l 41 979 l 359 979 m 81 939 l 81 404 q 119 223 88 283 q 211 117 149 163 q 359 48 273 71 q 532 23 446 26 q 718 54 633 27 q 852 124 802 80 q 937 229 903 168 q 972 405 970 289 l 972 939 l 735 939 l 735 400 q 690 243 739 297 q 529 180 642 190 q 363 237 411 184 q 319 400 316 290 l 319 939 l 81 939 m 723 998 l 528 1124 l 332 1001 l 332 1043 l 526 1246 l 723 1043 l 723 998 m 526 1162 l 659 1076 l 526 1200 l 397 1069 l 526 1162 m 120 900 l 283 900 l 283 401 q 332 214 277 281 q 528 145 388 146 q 717 219 661 153 q 772 401 773 285 l 772 898 l 939 898 l 939 406 q 904 244 931 296 q 832 156 876 193 q 708 91 789 119 q 533 60 628 64 q 371 83 453 62 q 235 148 290 104 q 151 237 180 191 q 120 404 122 283 l 120 900 z "},"":{"ha":1013,"x_min":41,"x_max":1013,"o":"m 359 979 l 359 400 q 397 262 355 301 q 529 221 439 224 q 649 263 601 222 q 694 400 697 304 l 694 979 l 1013 979 l 1013 939 l 735 939 l 735 400 q 690 243 739 297 q 529 180 642 190 q 363 237 411 184 q 319 400 316 290 l 319 939 l 41 939 l 41 979 l 359 979 m 972 728 l 1013 728 l 1013 405 q 973 210 1011 283 q 876 88 935 137 q 729 12 817 39 q 532 -18 640 -15 q 348 7 441 -16 q 185 79 255 30 q 78 204 116 127 q 41 404 41 281 l 41 728 l 81 728 l 81 404 q 119 223 88 283 q 211 117 149 163 q 359 48 273 71 q 532 23 446 26 q 718 54 633 27 q 852 124 802 80 q 937 229 903 168 q 972 405 970 289 l 972 728 m 371 1196 q 428 1174 406 1196 q 450 1117 450 1151 q 424 1055 446 1076 q 367 1034 401 1034 q 312 1056 334 1034 q 290 1112 290 1078 q 312 1173 290 1150 q 371 1196 334 1196 m 371 1157 q 337 1144 350 1157 q 325 1110 325 1132 q 337 1079 325 1091 q 368 1066 350 1066 q 401 1078 388 1066 q 416 1113 414 1090 q 403 1144 416 1132 q 371 1157 391 1157 m 694 1194 q 750 1171 728 1194 q 772 1114 772 1148 q 746 1052 769 1073 q 690 1031 724 1031 q 635 1053 657 1031 q 612 1109 612 1076 q 635 1171 612 1147 q 694 1194 657 1194 m 694 1154 q 660 1142 673 1154 q 648 1107 648 1129 q 660 1076 648 1088 q 691 1063 673 1063 q 724 1075 711 1063 q 739 1110 736 1087 q 726 1142 739 1129 q 694 1154 713 1154 m 41 898 l 283 898 l 283 401 q 336 214 283 282 q 528 145 388 146 q 717 219 661 153 q 772 401 773 285 l 772 898 l 1013 898 l 1013 769 l 937 769 l 937 405 q 904 244 931 296 q 832 156 876 193 q 708 91 789 119 q 533 60 628 64 q 371 83 453 62 q 235 148 290 104 q 155 237 180 191 q 123 404 130 283 l 123 769 l 41 769 l 41 898 m 372 1138 q 391 1131 383 1138 q 398 1113 398 1124 q 389 1092 397 1099 q 370 1085 382 1085 q 352 1093 359 1085 q 345 1111 345 1100 q 352 1131 345 1124 q 372 1138 359 1138 m 694 1134 q 713 1127 706 1134 q 721 1109 721 1120 q 712 1088 720 1095 q 693 1081 705 1081 q 675 1088 682 1081 q 668 1107 668 1096 q 675 1127 668 1120 q 694 1134 682 1134 z "},"":{"ha":1013,"x_min":41,"x_max":1013,"o":"m 359 979 l 359 400 q 397 262 355 301 q 529 221 439 224 q 649 263 601 222 q 694 400 697 304 l 694 979 l 1013 979 l 1013 405 q 973 210 1011 283 q 876 88 935 137 q 729 12 817 39 q 532 -18 640 -15 q 348 7 441 -16 q 185 79 255 30 q 78 204 116 127 q 41 404 41 281 l 41 979 l 359 979 m 81 939 l 81 404 q 119 223 88 283 q 211 117 149 163 q 359 48 273 71 q 532 23 446 26 q 718 54 633 27 q 852 124 802 80 q 937 229 903 168 q 972 405 970 289 l 972 939 l 735 939 l 735 400 q 690 243 739 297 q 529 180 642 190 q 363 237 411 184 q 319 400 316 290 l 319 939 l 81 939 m 371 1196 q 428 1174 406 1196 q 450 1117 450 1151 q 424 1055 446 1076 q 367 1034 401 1034 q 312 1056 334 1034 q 290 1112 290 1078 q 312 1173 290 1150 q 371 1196 334 1196 m 694 1194 q 750 1171 728 1194 q 772 1114 772 1148 q 746 1052 769 1073 q 690 1031 724 1031 q 635 1053 657 1031 q 612 1109 612 1076 q 635 1171 612 1147 q 694 1194 657 1194 m 371 1157 q 337 1144 350 1157 q 325 1110 325 1132 q 337 1079 325 1091 q 368 1066 350 1066 q 401 1078 388 1066 q 416 1113 414 1090 q 403 1144 416 1132 q 371 1157 391 1157 m 694 1154 q 660 1142 673 1154 q 648 1107 648 1129 q 660 1076 648 1088 q 691 1063 673 1063 q 724 1075 711 1063 q 739 1110 736 1087 q 726 1142 739 1129 q 694 1154 713 1154 m 120 900 l 283 900 l 283 401 q 332 214 277 281 q 528 145 388 146 q 717 219 661 153 q 772 401 773 285 l 772 898 l 939 898 l 939 406 q 904 244 931 296 q 832 156 876 193 q 708 91 789 119 q 533 60 628 64 q 371 83 453 62 q 235 148 290 104 q 151 237 180 191 q 120 404 122 283 l 120 900 m 372 1138 q 391 1131 383 1138 q 398 1113 398 1124 q 389 1092 397 1099 q 370 1085 382 1085 q 352 1093 359 1085 q 345 1111 345 1100 q 352 1131 345 1124 q 372 1138 359 1138 m 694 1134 q 713 1127 706 1134 q 721 1109 721 1120 q 712 1088 720 1095 q 693 1081 705 1081 q 675 1088 682 1081 q 668 1107 668 1096 q 675 1127 668 1120 q 694 1134 682 1134 z "},"":{"ha":857,"x_min":41,"x_max":857,"o":"m 41 939 l 41 979 l 248 979 l 448 677 l 650 979 l 857 979 l 857 939 l 677 939 l 471 636 l 427 636 l 227 939 l 41 939 m 857 728 l 857 688 l 840 688 l 609 359 l 609 0 l 289 0 l 289 359 l 58 688 l 41 688 l 41 728 l 81 728 l 331 372 l 331 41 l 570 41 l 570 372 l 817 728 l 857 728 m 405 1002 l 524 1218 l 838 1218 l 405 1002 m 552 1181 l 488 1080 l 699 1181 l 552 1181 m 41 898 l 205 898 l 411 597 l 492 597 l 697 898 l 857 898 l 857 769 l 802 769 l 533 382 l 533 79 l 380 79 l 380 380 l 108 769 l 41 769 l 41 898 m 636 1165 l 532 1118 l 564 1165 l 636 1165 z "},"":{"ha":1095,"x_min":0,"x_max":1175,"o":"m 1175 979 l 747 359 l 747 0 l 427 0 l 427 359 l 0 979 l 387 979 l 586 677 l 788 979 l 1175 979 m 79 939 l 469 372 l 469 41 l 708 41 l 708 372 l 1100 939 l 815 939 l 610 636 l 566 636 l 365 939 l 79 939 m 538 1002 l 657 1218 l 970 1218 l 538 1002 m 682 1181 l 618 1080 l 829 1181 l 682 1181 m 153 902 l 340 902 l 547 602 l 628 602 l 833 903 l 1027 903 l 669 388 l 669 84 l 515 84 l 515 385 l 153 902 m 768 1168 l 664 1120 l 696 1168 l 768 1168 z "},"":{"ha":945,"x_min":41,"x_max":943,"o":"m 359 184 l 359 0 l 41 0 l 41 41 l 319 41 l 319 225 l 524 225 q 699 242 632 224 q 808 290 766 260 q 873 368 849 320 q 903 495 897 416 q 873 626 897 578 q 806 704 849 674 q 693 752 764 734 q 319 765 623 770 l 319 939 l 41 939 l 41 979 l 359 979 l 359 808 q 705 789 631 808 q 829 736 779 770 q 912 644 880 701 q 943 494 943 587 q 907 349 938 409 q 827 255 877 290 q 704 201 777 220 q 522 184 631 182 l 359 184 m 81 728 l 81 251 l 41 251 l 41 728 l 81 728 m 41 898 l 280 898 l 280 736 l 318 736 q 678 720 613 738 q 780 677 743 703 q 840 612 817 651 q 867 494 863 572 q 844 382 863 420 q 791 317 825 343 q 693 274 757 290 q 524 258 630 258 l 317 258 l 282 258 l 282 81 l 41 81 l 41 210 l 123 210 l 123 769 l 41 769 l 41 898 m 505 321 q 615 337 562 321 q 701 384 668 353 q 740 487 734 414 q 704 591 744 555 q 617 640 663 627 q 502 652 572 652 l 279 652 l 279 321 l 505 321 m 505 354 l 315 354 l 315 617 l 503 617 q 600 607 562 617 q 672 568 639 597 q 703 486 706 538 q 670 403 698 427 q 598 367 642 379 q 505 354 553 354 m 351 576 l 351 400 l 503 399 q 586 409 554 399 q 638 434 618 419 q 664 488 658 449 q 641 540 662 524 q 587 566 621 557 q 501 576 554 576 l 351 576 z "},"":{"ha":945,"x_min":41,"x_max":943,"o":"m 359 184 l 359 0 l 41 0 l 41 979 l 359 979 l 359 808 q 705 789 631 808 q 829 736 779 770 q 912 644 880 701 q 943 494 943 587 q 907 349 938 409 q 827 255 877 290 q 704 201 777 220 q 522 184 631 182 l 359 184 m 81 939 l 81 41 l 319 41 l 319 225 l 524 225 q 699 242 632 224 q 808 290 766 260 q 873 368 849 320 q 903 495 897 416 q 873 626 897 578 q 806 704 849 674 q 693 752 764 734 q 319 765 623 770 l 319 939 l 81 939 m 505 321 q 615 337 562 321 q 701 384 668 353 q 740 487 734 414 q 704 591 744 555 q 617 640 663 627 q 502 652 572 652 l 279 652 l 279 321 l 505 321 m 351 576 l 351 400 l 503 399 q 586 409 554 399 q 638 434 618 419 q 664 488 658 449 q 641 540 662 524 q 587 566 621 557 q 501 576 554 576 l 351 576 m 122 898 l 280 898 l 279 730 l 317 730 q 680 713 613 730 q 781 674 746 697 q 840 612 817 651 q 867 494 863 572 q 844 382 863 420 q 791 317 825 343 q 693 274 757 290 q 524 258 630 258 l 317 258 l 282 258 l 282 81 l 122 81 l 122 898 m 505 354 l 315 354 l 315 617 l 503 617 q 600 607 562 617 q 672 568 639 597 q 703 486 706 538 q 670 403 698 427 q 598 367 642 379 q 505 354 553 354 z "},"":{"ha":1104,"x_min":41,"x_max":1097,"o":"m 378 379 l 378 -201 l 41 -201 l 41 979 l 709 979 q 953 924 869 978 q 1055 742 1037 869 q 1013 589 1061 644 q 857 497 966 533 l 857 494 q 956 466 910 488 q 1032 413 1001 444 q 1080 345 1063 383 q 1097 271 1097 307 q 1037 95 1097 155 q 885 17 978 35 q 659 0 791 -1 l 464 0 l 464 198 l 596 198 q 694 222 652 196 q 738 288 736 249 q 702 355 741 330 q 596 379 664 379 l 437 380 l 437 594 l 616 593 q 657 614 635 593 q 680 669 679 635 q 654 726 677 709 q 615 742 631 742 l 378 742 l 378 379 m 81 -160 l 338 -160 l 337 783 l 616 783 q 676 755 637 783 q 721 669 714 727 q 683 584 719 620 q 616 553 647 548 l 477 553 l 477 420 l 596 420 q 729 385 676 422 q 779 288 783 348 q 718 193 772 229 q 595 157 664 157 l 506 157 l 506 41 l 659 41 q 878 56 789 38 q 1013 126 966 73 q 1056 271 1059 180 q 1040 337 1056 307 q 1000 391 1025 368 q 937 434 976 415 q 808 488 899 454 l 808 505 q 973 599 925 549 q 1014 742 1021 648 q 926 893 999 849 q 709 939 854 937 l 81 939 l 81 -160 m 122 -117 l 122 898 l 708 898 q 894 860 833 892 q 974 743 955 827 q 945 624 974 662 q 762 515 917 586 l 762 483 q 917 412 887 434 q 974 362 947 391 q 1020 271 1001 334 q 986 149 1023 190 q 872 94 949 109 q 654 76 795 79 l 534 76 l 534 125 l 594 125 q 745 164 681 125 q 814 290 808 203 q 751 410 806 369 q 605 450 697 450 l 515 450 l 515 521 l 613 521 q 711 564 670 524 q 751 673 751 605 q 708 777 749 741 q 616 819 667 814 l 304 819 l 304 -117 l 122 -117 z "},"":{"ha":1095,"x_min":0,"x_max":1175,"o":"m 1175 979 l 747 359 l 747 0 l 427 0 l 427 359 l 0 979 l 387 979 l 586 677 l 788 979 l 1175 979 m 79 939 l 469 372 l 469 41 l 708 41 l 708 372 l 1100 939 l 815 939 l 610 636 l 566 636 l 365 939 l 79 939 m 441 1196 q 498 1174 476 1196 q 520 1117 520 1151 q 494 1055 517 1076 q 437 1034 471 1034 q 382 1056 405 1034 q 360 1112 360 1078 q 382 1173 360 1150 q 441 1196 405 1196 m 441 1157 q 408 1144 420 1157 q 395 1110 395 1132 q 408 1079 395 1091 q 439 1066 420 1066 q 471 1078 458 1066 q 486 1113 484 1090 q 474 1144 486 1132 q 441 1157 461 1157 m 756 1199 q 813 1176 791 1199 q 835 1120 835 1154 q 809 1057 831 1078 q 752 1036 786 1036 q 697 1059 720 1036 q 675 1115 675 1081 q 697 1176 675 1153 q 756 1199 720 1199 m 756 1160 q 723 1147 735 1160 q 710 1113 710 1135 q 723 1081 710 1094 q 753 1069 735 1069 q 786 1081 773 1069 q 801 1116 799 1093 q 788 1147 801 1135 q 756 1160 776 1160 m 153 902 l 340 902 l 547 602 l 628 602 l 833 903 l 1027 903 l 669 388 l 669 84 l 515 84 l 515 385 l 153 902 m 757 1141 q 776 1134 768 1141 q 783 1116 783 1126 q 774 1095 782 1102 q 755 1088 767 1088 q 738 1095 745 1088 q 730 1114 730 1103 q 738 1134 730 1126 q 757 1141 745 1141 m 442 1138 q 461 1131 454 1138 q 469 1113 469 1124 q 460 1092 467 1099 q 441 1085 452 1085 q 423 1093 430 1085 q 416 1111 416 1100 q 423 1131 416 1124 q 442 1138 430 1138 z "},"":{"ha":1398,"x_min":11,"x_max":1398,"o":"m 564 939 q 346 909 439 937 q 191 820 252 880 q 91 681 130 760 q 57 486 51 602 q 113 243 57 334 q 286 96 168 153 q 513 41 403 38 l 1398 41 l 1398 0 l 513 0 q 269 58 393 -5 q 79 224 144 122 q 16 486 14 326 q 52 696 11 608 q 163 848 92 784 q 334 944 233 911 q 564 979 434 977 l 1356 979 l 1356 688 l 836 688 l 836 575 l 1172 575 l 1172 404 l 836 404 l 836 292 l 1398 292 l 1398 251 l 795 251 l 795 444 l 1131 444 l 1131 534 l 795 534 l 795 728 l 1316 728 l 1316 939 l 564 939 m 330 483 q 602 743 330 741 l 602 224 q 376 303 423 226 q 330 483 330 380 m 374 481 q 412 331 374 395 q 563 267 450 267 l 563 694 q 374 481 374 694 m 711 81 l 623 81 q 315 130 426 80 q 154 259 205 179 q 98 484 103 339 q 127 659 96 586 q 215 789 159 731 q 363 872 271 848 q 572 898 456 897 l 1274 898 l 1274 769 l 760 769 l 760 507 l 1088 507 l 1088 471 l 758 471 l 758 210 l 1398 210 l 1398 81 l 711 81 m 289 480 q 344 272 289 361 q 560 182 399 182 l 636 183 l 636 780 l 581 780 q 289 480 289 779 z "},"":{"ha":1398,"x_min":11,"x_max":1398,"o":"m 564 939 q 346 909 439 937 q 191 820 252 880 q 91 681 130 760 q 57 486 51 602 q 113 243 57 334 q 286 96 168 153 q 513 41 403 38 l 1358 41 l 1358 251 l 795 251 l 795 444 l 1131 444 l 1131 534 l 795 534 l 795 728 l 1316 728 l 1316 939 l 564 939 m 330 483 q 602 743 330 741 l 602 224 q 376 303 423 226 q 330 483 330 380 m 374 481 q 412 331 374 395 q 563 267 450 267 l 563 694 q 374 481 374 694 m 1398 292 l 1398 0 l 513 0 q 269 58 393 -5 q 79 224 144 122 q 16 486 14 326 q 52 696 11 608 q 163 848 92 784 q 334 944 233 911 q 564 979 434 977 l 1356 979 l 1356 688 l 836 688 l 836 575 l 1172 575 l 1172 404 l 836 404 l 836 292 l 1398 292 m 711 81 l 623 81 q 315 130 426 80 q 154 259 205 179 q 98 484 103 339 q 127 659 96 586 q 215 789 159 731 q 363 872 271 848 q 572 898 456 897 l 1274 898 l 1274 769 l 760 769 l 760 507 l 1088 507 l 1088 471 l 758 471 l 758 210 l 1314 210 l 1314 81 l 711 81 m 289 480 q 344 272 289 361 q 560 182 399 182 l 636 183 l 636 780 l 581 780 q 289 480 289 779 z "},"":{"ha":770,"x_min":19,"x_max":770,"o":"m 770 979 l 770 939 l 277 939 q 99 788 136 936 q 293 426 62 640 q 206 251 464 258 l 41 251 l 41 292 l 206 292 q 255 399 398 286 q 54 798 19 616 q 277 979 90 979 l 770 979 m 770 688 l 572 688 q 521 591 398 693 q 736 217 741 399 q 521 0 732 35 l 41 0 l 41 41 l 521 41 q 694 236 700 79 q 456 591 689 393 q 572 728 347 732 l 770 728 l 770 688 m 625 1237 l 429 989 l 234 1237 l 234 1289 l 431 1139 l 625 1291 l 625 1237 m 296 1204 l 429 1040 l 559 1196 l 429 1084 l 296 1204 m 41 210 l 207 210 q 331 452 525 231 q 142 784 115 669 q 277 898 170 899 l 770 898 l 770 769 l 572 769 q 397 593 289 777 q 657 252 644 387 q 523 81 670 118 l 41 81 l 41 210 z "},"":{"ha":770,"x_min":0,"x_max":770,"o":"m 770 979 l 770 688 l 572 688 q 521 591 398 693 q 736 217 741 399 q 521 0 732 35 l 0 0 l 0 292 l 206 292 q 255 399 398 286 q 54 798 19 616 q 277 979 90 979 l 770 979 m 625 1237 l 429 989 l 234 1237 l 234 1289 l 431 1139 l 625 1291 l 625 1237 m 41 251 l 41 41 l 521 41 q 694 236 700 79 q 456 591 689 393 q 572 728 347 732 l 729 728 l 729 939 l 277 939 q 99 788 136 936 q 293 426 62 640 q 206 251 464 258 l 41 251 m 296 1204 l 429 1040 l 559 1196 l 429 1084 l 296 1204 m 87 213 l 206 213 q 331 452 525 231 q 142 784 115 669 q 278 897 170 899 l 688 897 l 688 769 l 572 769 q 397 593 289 777 q 657 252 644 387 q 522 83 670 118 l 87 83 l 87 213 z "},"":{"ha":857,"x_min":41,"x_max":857,"o":"m 41 939 l 41 979 l 248 979 l 448 677 l 650 979 l 857 979 l 857 939 l 677 939 l 471 636 l 427 636 l 227 939 l 41 939 m 857 728 l 857 688 l 840 688 l 609 359 l 609 0 l 289 0 l 289 359 l 58 688 l 41 688 l 41 728 l 81 728 l 331 372 l 331 41 l 570 41 l 570 372 l 817 728 l 857 728 m 295 1194 q 352 1171 330 1194 q 374 1114 374 1148 q 348 1052 370 1073 q 291 1031 325 1031 q 236 1053 258 1031 q 214 1109 214 1076 q 236 1171 214 1147 q 295 1194 258 1194 m 604 1196 q 661 1174 639 1196 q 683 1117 683 1151 q 657 1055 680 1076 q 600 1034 634 1034 q 545 1056 568 1034 q 523 1112 523 1078 q 545 1173 523 1150 q 604 1196 568 1196 m 605 1138 q 624 1131 616 1138 q 631 1113 631 1124 q 623 1092 630 1099 q 604 1085 615 1085 q 586 1093 593 1085 q 578 1111 578 1100 q 586 1131 578 1124 q 605 1138 593 1138 m 604 1157 q 571 1144 583 1157 q 558 1110 558 1132 q 571 1079 558 1091 q 602 1066 583 1066 q 634 1078 621 1066 q 649 1113 647 1090 q 636 1144 649 1132 q 604 1157 624 1157 m 41 898 l 205 898 l 411 597 l 492 597 l 697 898 l 857 898 l 857 769 l 802 769 l 533 382 l 533 79 l 380 79 l 380 380 l 108 769 l 41 769 l 41 898 m 295 1154 q 261 1142 274 1154 q 249 1107 249 1129 q 261 1076 249 1088 q 292 1063 274 1063 q 325 1075 312 1063 q 340 1110 338 1087 q 327 1142 340 1129 q 295 1154 315 1154 m 296 1135 q 315 1128 307 1135 q 322 1110 322 1121 q 313 1089 321 1097 q 294 1082 306 1082 q 276 1090 283 1082 q 269 1108 269 1097 q 276 1128 269 1121 q 296 1135 283 1135 z "},"":{"ha":936,"x_min":41,"x_max":936,"o":"m 41 939 l 41 979 l 936 979 l 936 688 l 462 292 l 936 292 l 936 251 l 421 251 l 421 309 l 895 701 l 895 939 l 41 939 m 936 0 l 41 0 l 41 292 l 515 688 l 41 688 l 41 728 l 553 728 l 553 671 l 81 273 l 81 41 l 936 41 l 936 0 m 639 1237 l 442 989 l 248 1237 l 248 1289 l 444 1139 l 639 1291 l 639 1237 m 309 1204 l 442 1040 l 572 1196 l 442 1084 l 309 1204 m 41 898 l 856 898 l 856 718 l 384 334 l 384 210 l 936 210 l 936 81 l 119 81 l 119 259 l 587 655 l 587 769 l 41 769 l 41 898 z "},"":{"ha":936,"x_min":41,"x_max":936,"o":"m 41 979 l 936 979 l 936 688 l 462 292 l 936 292 l 936 0 l 41 0 l 41 292 l 515 688 l 41 688 l 41 979 m 639 1237 l 442 989 l 248 1237 l 248 1289 l 444 1139 l 639 1291 l 639 1237 m 309 1204 l 442 1040 l 572 1196 l 442 1084 l 309 1204 m 81 939 l 81 728 l 553 728 l 553 671 l 81 273 l 81 41 l 895 41 l 895 251 l 421 251 l 421 309 l 895 701 l 895 939 l 81 939 m 125 895 l 856 895 l 856 718 l 384 334 l 384 216 l 849 216 l 849 81 l 119 81 l 119 259 l 587 655 l 587 766 l 125 766 l 125 895 z "},"":{"ha":798,"x_min":57,"x_max":741,"o":"m 382 560 l 518 560 q 448 465 477 486 q 375 406 419 444 q 332 287 331 368 q 393 194 334 224 q 545 167 453 164 q 663 187 612 170 l 663 114 q 576 90 640 102 q 438 79 513 77 q 291 95 358 80 q 186 145 224 110 q 137 222 148 180 q 158 324 138 290 q 241 411 178 358 q 382 560 305 464 m 606 734 l 303 734 l 303 996 l 606 996 l 606 734 m 523 803 l 387 803 l 387 924 l 523 924 l 523 803 m 315 633 l 593 633 q 562 485 588 536 q 501 408 535 433 q 437 359 467 382 q 408 301 408 336 q 443 255 408 266 q 545 244 478 244 q 647 258 591 244 q 741 290 702 272 l 741 51 q 590 13 661 26 q 438 0 520 0 q 269 19 355 0 q 119 92 182 39 q 57 236 57 144 q 90 353 57 307 q 190 454 123 399 q 286 543 256 508 q 315 633 315 578 m 350 593 q 314 523 351 560 q 213 431 277 486 q 123 337 149 376 q 98 229 96 298 q 154 120 104 165 q 281 57 203 75 q 438 41 358 39 q 582 53 515 39 q 700 91 648 66 l 700 229 q 643 214 684 222 q 545 203 602 205 q 416 221 464 199 q 366 301 368 243 q 404 387 368 358 q 471 439 441 416 q 524 500 500 461 q 556 593 548 538 l 350 593 m 566 770 l 566 958 l 341 958 l 341 770 l 566 770 z "},"":{"ha":1389,"x_min":-84,"x_max":1525,"o":"m 338 1706 l 595 1732 l 609 1689 l 496 1608 l 424 1601 l 376 1101 q 506 1294 431 1242 q 683 1360 582 1346 q 888 1361 784 1373 q 1047 1314 993 1350 q 1140 1202 1102 1279 q 1188 1044 1177 1124 l 1202 1017 l 1205 892 l 1260 452 l 1068 352 l 1072 335 l 1092 318 q 1318 311 1306 372 l 1401 298 q 1400 221 1448 244 l 420 194 l 92 154 q 215 271 41 191 l 427 288 l 397 321 l 383 355 l 410 395 l 414 412 l 318 456 l 359 892 l 359 1004 q 318 1050 332 1010 l 376 1598 l 332 1618 l 315 1675 l 338 1706 m 883 1005 l 883 888 l 890 874 l 886 313 l 941 310 l 945 914 l 955 914 l 955 998 l 883 1005 m 623 1012 l 599 945 l 664 931 l 677 1008 l 623 1012 m 518 949 l 528 1010 l 508 1012 l 494 949 l 518 949 m 414 965 l 420 965 l 426 990 l 378 994 l 378 968 l 414 965 m 1056 991 l 1042 920 l 1069 921 l 1094 987 l 1056 991 m 1097 923 l 1147 921 l 1169 951 l 1174 981 l 1120 991 l 1097 923 m 369 946 l 596 923 l 741 895 l 730 401 l 716 530 q 684 726 701 673 q 630 820 667 780 q 554 880 592 861 q 475 902 517 899 q 378 907 434 905 l 369 946 m 971 892 l 1169 920 l 1176 871 q 1107 847 1131 857 q 1066 810 1084 837 q 1027 728 1049 783 q 984 508 1004 673 l 968 363 l 971 892 m 355 960 l 364 895 q 454 893 407 896 q 542 870 501 891 q 618 810 582 849 q 671 724 655 772 q 724 366 686 675 l 739 357 l 751 906 l 595 933 l 355 960 m 960 905 l 958 315 l 974 317 q 1038 723 1010 654 q 1085 814 1066 792 q 1136 847 1104 836 q 1185 859 1167 859 l 1185 930 l 960 905 m 724 311 q 685 452 699 401 q 655 563 672 503 q 608 682 637 623 q 515 762 578 741 q 423 726 448 757 q 376 640 398 694 q 330 463 354 585 l 724 311 m 1198 439 q 1149 692 1172 629 q 1101 746 1127 755 q 1045 688 1059 720 q 1024 625 1030 656 q 1004 496 1019 593 l 994 385 l 987 320 l 1198 431 l 1198 439 m 376 1027 l 369 1017 l 380 1000 l 462 1012 l 551 1020 l 672 1022 l 874 1014 l 1006 1000 l 1145 998 l 1190 980 l 1186 1025 q 1066 1057 1130 1047 q 908 1072 1002 1066 q 721 1076 814 1078 q 551 1071 628 1074 q 376 1027 473 1067 m 395 1030 q 608 1059 490 1055 q 786 1062 726 1062 q 925 1059 846 1062 q 1067 1045 1004 1055 q 1183 1015 1130 1036 l 1186 990 l 1130 1004 l 947 1017 l 813 1023 l 650 1027 l 534 1025 l 437 1017 l 380 1007 l 376 1015 l 395 1030 m 647 1311 q 805 1297 749 1299 q 917 1291 861 1294 q 985 1293 974 1287 q 990 1311 996 1299 q 961 1333 984 1322 q 887 1348 938 1343 q 796 1353 837 1353 q 721 1348 755 1353 q 647 1311 688 1343 m 979 1277 q 1014 1218 989 1230 q 1055 1202 1039 1205 q 1083 1211 1072 1198 q 1084 1240 1094 1223 q 1057 1270 1075 1257 q 1024 1284 1039 1282 q 979 1277 1010 1286 m 1013 1280 q 1054 1267 1036 1280 q 1080 1239 1072 1255 q 1082 1218 1088 1223 q 1067 1216 1076 1213 q 1045 1222 1059 1219 q 1017 1239 1031 1225 q 999 1263 1003 1252 q 1013 1280 994 1275 m 391 1603 l 355 1205 l 404 1603 l 391 1603 m 231 229 q 103 195 131 209 q 86 171 75 180 q 122 165 98 162 q 170 184 145 169 q 231 229 195 199 m 1409 251 q 1368 283 1395 285 q 1317 268 1340 281 q 1252 249 1294 254 q 1179 235 1210 243 q 1233 233 1149 227 q 1409 251 1316 239 m 239 98 q 201 -16 258 3 l 239 -35 q 354 136 277 117 q 563 60 544 136 q 468 -149 601 -92 l 354 -149 l 258 -54 q -8 -149 239 -168 l -27 41 l -84 41 l -84 136 q 239 98 239 155 m 68 22 l 144 22 l 144 60 l 68 60 l 68 22 m 68 -92 l 163 -73 l 144 -35 l 68 -35 l 68 -92 m 392 -92 l 468 -73 l 449 60 l 354 41 q 392 -92 334 -54 m 582 136 q 848 98 829 155 q 810 -16 867 3 q 867 -73 867 3 l 943 136 l 1077 136 l 1153 -92 l 1153 -149 l 962 -92 l 924 -149 l 829 -111 q 582 -149 753 -168 l 582 136 m 677 22 l 753 22 l 753 60 l 677 60 l 677 22 m 677 -92 l 772 -73 l 753 -35 l 677 -35 l 677 -92 m 981 -35 l 1039 -35 l 1019 60 l 981 22 l 981 -35 m 152 -195 l 418 -195 l 418 -290 l 286 -309 l 380 -309 l 380 -366 l 304 -366 l 267 -480 l 190 -461 l 152 -290 l 152 -195 m 742 -271 q 647 -480 780 -423 q 437 -385 456 -480 q 532 -195 399 -290 q 742 -271 723 -195 m 570 -423 l 647 -404 l 628 -271 l 532 -290 q 570 -423 513 -385 m 764 -192 q 916 -268 840 -154 q 954 -192 916 -192 l 1258 -192 l 1258 -287 l 1182 -287 l 1182 -382 l 1354 -382 q 1316 -192 1220 -249 l 1506 -192 l 1506 -268 l 1411 -306 q 1411 -477 1525 -420 l 1106 -477 l 1087 -306 l 1011 -287 l 992 -477 l 935 -477 l 840 -382 l 840 -477 l 764 -477 l 764 -192 z "}}}
